<?xml version="1.0" encoding="UTF-8" standalone="no"?>
<!-- Created with Inkscape (http://www.inkscape.org/) -->
<svg
   xmlns:dc="http://purl.org/dc/elements/1.1/"
   xmlns:cc="http://web.resource.org/cc/"
   xmlns:rdf="http://www.w3.org/1999/02/22-rdf-syntax-ns#"
   xmlns:svg="http://www.w3.org/2000/svg"
   xmlns="http://www.w3.org/2000/svg"
   xmlns:xlink="http://www.w3.org/1999/xlink"
   xmlns:sodipodi="http://sodipodi.sourceforge.net/DTD/sodipodi-0.dtd"
   xmlns:inkscape="http://www.inkscape.org/namespaces/inkscape"
   width="48"
   height="48"
   id="svg2"
   sodipodi:version="0.32"
   inkscape:version="0.44"
   version="1.0"
   sodipodi:docbase="C:\Documents and Settings\Administrator\My Documents\My Pictures\jokosher"
   sodipodi:docname="acoustic guitar.svg">
  <defs
     id="defs4">
    <linearGradient
       id="linearGradient16076">
      <stop
         id="stop16078"
         offset="0"
         style="stop-color:black;stop-opacity:1;" />
      <stop
         id="stop16080"
         offset="1"
         style="stop-color:#555753;stop-opacity:0;" />
    </linearGradient>
    <linearGradient
       id="linearGradient6728">
      <stop
         style="stop-color:#ececeb;stop-opacity:1;"
         offset="0"
         id="stop6730" />
      <stop
         style="stop-color:#555753;stop-opacity:0;"
         offset="1"
         id="stop6732" />
    </linearGradient>
    <linearGradient
       id="linearGradient6718">
      <stop
         style="stop-color:#563d06;stop-opacity:1;"
         offset="0"
         id="stop6720" />
      <stop
         style="stop-color:#555753;stop-opacity:0;"
         offset="1"
         id="stop6722" />
    </linearGradient>
    <linearGradient
       inkscape:collect="always"
       xlink:href="#linearGradient6718"
       id="linearGradient6724"
       x1="312.18304"
       y1="1223.8044"
       x2="321.47693"
       y2="673.30707"
       gradientUnits="userSpaceOnUse"
       gradientTransform="matrix(4.776115e-2,0,0,4.762098e-2,-0.827219,-0.185411)" />
    <linearGradient
       inkscape:collect="always"
       xlink:href="#linearGradient6728"
       id="linearGradient14292"
       x1="81.90493"
       y1="722.47223"
       x2="382.25861"
       y2="712.02899"
       gradientUnits="userSpaceOnUse"
       gradientTransform="matrix(4.776115e-2,0,0,4.762098e-2,0.779964,0.256649)" />
    <radialGradient
       inkscape:collect="always"
       xlink:href="#linearGradient16076"
       id="radialGradient16082"
       cx="296.47211"
       cy="945.46307"
       fx="296.47211"
       fy="945.46307"
       r="236.13336"
       gradientTransform="matrix(1,0,0,0.2457,0,713.1626)"
       gradientUnits="userSpaceOnUse" />
    <linearGradient
       inkscape:collect="always"
       xlink:href="#linearGradient6728"
       id="linearGradient18163"
       x1="17.375"
       y1="21.324627"
       x2="25.5"
       y2="34.605877"
       gradientUnits="userSpaceOnUse"
       gradientTransform="translate(0,0.78125)" />
  </defs>
  <sodipodi:namedview
     id="base"
     pagecolor="#ffffff"
     bordercolor="#666666"
     borderopacity="1.0"
     gridtolerance="10000"
     guidetolerance="10"
     objecttolerance="10"
     inkscape:pageopacity="0.0"
     inkscape:pageshadow="2"
     inkscape:zoom="32"
     inkscape:cx="29.069699"
     inkscape:cy="18.965346"
     inkscape:document-units="px"
     inkscape:current-layer="layer1"
     width="48px"
     height="48px"
     showguides="true"
     inkscape:guide-bbox="true"
     inkscape:window-width="1280"
     inkscape:window-height="971"
     inkscape:window-x="-4"
     inkscape:window-y="-4">
    <sodipodi:guide
       orientation="vertical"
       position="-2.8571429"
       id="guide1951" />
    <sodipodi:guide
       orientation="horizontal"
       position="-5.7142857"
       id="guide1953" />
    <sodipodi:guide
       orientation="horizontal"
       position="1000"
       id="guide1955" />
    <sodipodi:guide
       orientation="vertical"
       position="1002.8571"
       id="guide1957" />
  </sodipodi:namedview>
  <metadata
     id="metadata7">
    <rdf:RDF>
      <cc:Work
         rdf:about="">
        <dc:format>image/svg+xml</dc:format>
        <dc:type
           rdf:resource="http://purl.org/dc/dcmitype/StillImage" />
      </cc:Work>
    </rdf:RDF>
  </metadata>
  <g
     inkscape:label="Layer 1"
     inkscape:groupmode="layer"
     id="layer1">
    <path
       sodipodi:type="arc"
       style="opacity:1;fill:url(#radialGradient16082);fill-opacity:1;fill-rule:nonzero;stroke:#555753;stroke-width:0;stroke-linecap:round;stroke-linejoin:round;stroke-miterlimit:4;stroke-dasharray:none;stroke-opacity:1"
       id="path15179"
       sodipodi:cx="296.47211"
       sodipodi:cy="945.46307"
       sodipodi:rx="236.13336"
       sodipodi:ry="58.018028"
       d="M 532.60547 945.46307 A 236.13336 58.018028 0 1 1  60.338745,945.46307 A 236.13336 58.018028 0 1 1  532.60547 945.46307 z"
       transform="matrix(4.776116e-2,0,0,4.762101e-2,-0.82722,-7.907682e-2)" />
    <path
       style="fill:#c17d11;fill-opacity:1;fill-rule:evenodd;stroke:#8f5902;stroke-width:0.81074756;stroke-linecap:butt;stroke-linejoin:miter;stroke-miterlimit:4;stroke-dasharray:none;stroke-opacity:1"
       d="M 45.60345,4.4066052 C 45.60345,4.4066052 45.296414,3.7603201 45.057604,3.1480501 C 45.057604,3.1480501 44.887032,2.2636595 43.420083,1.6513895 C 41.953131,1.0391196 42.06121,1.1668848 42.06121,1.1668848 C 42.06121,1.1668848 40.34972,4.2365301 37.756972,6.6175814 C 37.756972,6.6175814 37.612372,7.1652991 37.27122,7.6755247 C 36.930069,8.185749 22.394709,22.145559 22.394709,22.145559 C 22.394709,22.145559 20.426495,19.781388 18.038438,19.747374 C 15.65038,19.713358 14.865733,21.380094 14.865733,21.380094 C 14.865733,21.380094 13.398783,25.257805 13.023517,25.529925 C 13.023517,25.529925 12.85294,26.58439 8.3156309,27.12863 C 3.7783205,27.672871 1.9361045,31.992776 1.9361045,31.992776 C 1.9361045,31.992776 0.98088136,34.475873 2.0725649,36.788893 C 3.1642484,39.101913 4.2705498,40.053158 5.4061809,41.368703 C 7.4889942,43.571095 11.140301,46.353118 15.411574,45.557959 C 17.486755,45.171641 18.977412,44.430347 20.17645,42.344942 C 21.171959,40.320418 21.09228,39.297396 21.114109,37.262537 C 21.114109,37.262537 21.18508,34.237766 24.743178,32.981944 C 24.743178,32.981944 27.231531,32.222119 27.086793,31.06761 C 27.010532,29.684969 25.339954,29.81175 24.254483,28.640902 C 24.254483,28.640902 22.52387,27.135497 24.212483,25.307527 C 25.901095,23.479555 31.401144,17.755123 31.401144,17.755123 L 39.0956,9.7554024 C 39.0956,9.7554024 39.428614,9.2707516 40.554409,8.9986319 C 40.554409,8.9986319 42.567203,6.8897011 45.60345,4.4066052"
       id="path1959"
       sodipodi:nodetypes="ccsccscsccscscscccccscccc" />
    <path
       style="fill:#8f5902;fill-opacity:1;fill-rule:evenodd;stroke:none;stroke-width:3;stroke-linecap:butt;stroke-linejoin:miter;stroke-miterlimit:4;stroke-dasharray:none;stroke-opacity:1"
       d="M 10.362537,31.516568 L 9.4755443,32.298912 C 11.00968,33.706175 11.367413,34.336377 11.863601,35.836472 C 12.299566,36.03887 12.952239,35.603599 15.44569,37.707298 L 16.230337,36.822908 C 13.974397,35.303399 12.07382,33.488624 10.362537,31.516568 z "
       id="path6416"
       sodipodi:nodetypes="cccccc" />
    <path
       sodipodi:type="arc"
       style="opacity:1;fill:#555753;fill-opacity:1;fill-rule:nonzero;stroke:none;stroke-width:1;stroke-linecap:round;stroke-linejoin:miter;stroke-miterlimit:4;stroke-dasharray:none;stroke-opacity:1"
       id="path1914"
       sodipodi:cx="411.55399"
       sodipodi:cy="612.18951"
       sodipodi:rx="60.67783"
       sodipodi:ry="58.919052"
       d="M 472.23182 612.18951 A 60.67783 58.919052 0 1 1  350.87616,612.18951 A 60.67783 58.919052 0 1 1  472.23182 612.18951 z"
       transform="matrix(4.3641e-2,0,0,4.374571e-2,0.35627,2.436965)" />
    <path
       style="fill:url(#linearGradient6724);fill-opacity:1;fill-rule:evenodd;stroke:black;stroke-width:0.04769103px;stroke-linecap:butt;stroke-linejoin:miter;stroke-opacity:1"
       d="M 14.167005,24.947434 L 16.057033,21.220347 L 17.821059,20.592186 L 19.879091,21.01096 L 21.895121,22.392913 L 22.735134,23.397971 L 23.617146,24.193641 L 23.15514,25.910614 L 22.861136,28.171992 L 26.095184,30.894023 L 25.717177,31.731571 L 22.567131,33.239156 L 20.719103,36.170573 L 19.669087,41.782143 L 18.115065,43.499118 L 14.251006,45.006703 L 8.7069229,43.164096 L 2.9108362,37.049998 L 2.2808268,33.448544 L 3.8768506,30.182108 L 5.9768822,28.590767 L 10.722953,27.4182 L 13.15899,26.622529 L 14.167005,24.947434 z "
       id="path5831"
       sodipodi:nodetypes="cccccccccccccccccccccccc" />
    <path
       style="fill:none;fill-rule:evenodd;stroke:#e9b96e;stroke-width:0.81074756;stroke-linecap:butt;stroke-linejoin:miter;stroke-miterlimit:4;stroke-dasharray:none;stroke-opacity:1"
       d="M 5.8928806,40.720091 C 5.8928806,40.720091 2.3130628,37.345586 2.2808268,34.327968 C 2.4905672,31.092175 4.3152291,29.384265 7.1651129,28.238803 C 8.1518712,27.918099 9.9975889,27.590745 11.478964,27.334445 C 11.478964,27.334445 13.447643,27.01356 14.293007,24.779925 C 15.13302,22.560423 15.721029,21.471611 15.721029,21.471611 C 15.721029,21.471611 18.115064,18.707705 22.147125,22.853565 L 23.869149,24.403028 C 23.869149,24.403028 22.399128,25.994369 22.735134,27.58571 C 23.071138,29.177051 24.877166,30.14023 24.877166,30.14023 C 24.877166,30.14023 25.969182,30.517127 26.263186,31.019655 C 26.445236,31.330825 25.087168,32.024713 25.087168,32.024713 C 24.248991,32.27273 22.700873,32.992138 21.998992,33.738727 C 21.124476,34.546244 20.335733,35.762269 20.269251,37.6523 C 20.245565,38.325684 20.556405,39.921064 19.27121,42.139934 C 18.253655,43.896725 16.329403,44.77923 14.72469,44.785825 C 14.72469,44.785825 10.171718,45.589512 5.8928806,40.720091 z "
       id="path3174"
       sodipodi:nodetypes="csscscccscsccsscc" />
    <path
       style="fill:url(#linearGradient18163);fill-opacity:1;fill-rule:evenodd;stroke:black;stroke-width:0;stroke-linecap:butt;stroke-linejoin:miter;stroke-miterlimit:4;stroke-dasharray:none;stroke-opacity:1"
       d="M 15.46875,25.8125 C 16.346144,23.155722 16.523298,23.097366 16.65625,22.84375 C 17.439669,21.903648 18.915092,21.370639 20.21875,23.5625 C 20.21875,23.5625 19.09375,22.75 17.71875,23.46875 C 16.433711,24.140475 15.5,25.84375 15.46875,25.8125 z "
       id="path17270"
       sodipodi:nodetypes="cccsc" />
    <path
       style="fill:#c17d11;fill-opacity:1;fill-rule:evenodd;stroke:#8f5902;stroke-width:0.81074756;stroke-linecap:butt;stroke-linejoin:miter;stroke-miterlimit:4;stroke-dasharray:none;stroke-opacity:1"
       d="M 23.772154,20.826392 L 18.703839,25.79682 L 21.396265,28.316481 L 26.231674,23.162257"
       id="path4511"
       sodipodi:nodetypes="cccc" />
    <path
       style="fill:none;fill-rule:evenodd;stroke:black;stroke-width:0.04769103px;stroke-linecap:butt;stroke-linejoin:miter;stroke-opacity:1"
       d="M 38.967384,6.2469952 L 37.894531,7.8628081 L 12.082954,33.757048"
       id="path4503"
       sodipodi:nodetypes="ccc" />
    <path
       style="fill:none;fill-rule:evenodd;stroke:black;stroke-width:0.04769103px;stroke-linecap:butt;stroke-linejoin:miter;stroke-opacity:1"
       d="M 40.925908,7.7751312 L 38.900744,9.040723 L 13.803703,35.610476"
       id="path4505"
       sodipodi:nodetypes="ccc" />
    <path
       style="fill:none;fill-rule:evenodd;stroke:black;stroke-width:0.04769103px;stroke-linecap:butt;stroke-linejoin:miter;stroke-opacity:1"
       d="M 40.661244,4.2866932 L 38.092901,8.0358226 L 12.385231,34.151772"
       id="path4507"
       sodipodi:nodetypes="ccc" />
    <path
       style="fill:none;fill-rule:evenodd;stroke:black;stroke-width:0.04769103px;stroke-linecap:butt;stroke-linejoin:miter;stroke-opacity:1"
       d="M 42.559689,6.0766618 L 38.734482,8.7773791 L 13.524384,35.147889"
       id="path4509"
       sodipodi:nodetypes="ccc" />
    <path
       style="fill:none;fill-rule:evenodd;stroke:#555753;stroke-width:0.81074756;stroke-linecap:butt;stroke-linejoin:round;stroke-miterlimit:4;stroke-dasharray:none;stroke-opacity:1"
       d="M 42.123405,8.5895394 L 41.957143,8.7553121 L 42.123405,8.976342 L 42.345087,8.7000549 L 42.123405,8.5895394 z "
       id="path9841"
       sodipodi:nodetypes="ccccc" />
    <path
       style="fill:none;fill-rule:evenodd;stroke:#555753;stroke-width:0.81074756;stroke-linecap:butt;stroke-linejoin:round;stroke-miterlimit:4;stroke-dasharray:none;stroke-opacity:1"
       d="M 43.813719,7.0146987 L 43.647459,7.1804714 L 43.813719,7.4015022 L 44.035402,7.1252141 L 43.813719,7.0146987 z "
       id="path13383"
       sodipodi:nodetypes="ccccc" />
    <path
       style="fill:none;fill-rule:evenodd;stroke:#555753;stroke-width:0.81074756;stroke-linecap:butt;stroke-linejoin:round;stroke-miterlimit:4;stroke-dasharray:none;stroke-opacity:1"
       d="M 45.420908,5.63326 L 45.254647,5.7990336 L 45.420908,6.0200636 L 45.64259,5.7437755 L 45.420908,5.63326 z "
       id="path13385"
       sodipodi:nodetypes="ccccc" />
    <path
       style="fill:none;fill-rule:evenodd;stroke:#555753;stroke-width:0.81074756;stroke-linecap:butt;stroke-linejoin:round;stroke-miterlimit:4;stroke-dasharray:none;stroke-opacity:1"
       d="M 37.956351,5.2481379 L 38.151775,5.1177709 L 38.031801,4.8687215 L 37.760457,5.0967455 L 37.956351,5.2481379 z "
       id="path13387"
       sodipodi:nodetypes="ccccc"
       inkscape:transform-center-y="-0.59448718" />
    <path
       style="fill:none;fill-rule:evenodd;stroke:#555753;stroke-width:0.81074756;stroke-linecap:butt;stroke-linejoin:round;stroke-miterlimit:4;stroke-dasharray:none;stroke-opacity:1"
       d="M 39.518893,3.364008 L 39.714315,3.2336409 L 39.594342,2.9845907 L 39.323001,3.2126157 L 39.518893,3.364008 z "
       id="path13391"
       sodipodi:nodetypes="ccccc"
       inkscape:transform-center-y="-0.59448764" />
    <path
       style="fill:none;fill-rule:evenodd;stroke:#555753;stroke-width:0.81074756;stroke-linecap:butt;stroke-linejoin:round;stroke-miterlimit:4;stroke-dasharray:none;stroke-opacity:1"
       d="M 40.793557,1.7462666 L 40.988981,1.6158995 L 40.869008,1.3668493 L 40.597663,1.5948742 L 40.793557,1.7462666 z "
       id="path13393"
       sodipodi:nodetypes="ccccc"
       inkscape:transform-center-y="-0.5944875" />
    <path
       style="fill:url(#linearGradient14292);fill-opacity:1;fill-rule:evenodd;stroke:black;stroke-width:0;stroke-linecap:butt;stroke-linejoin:miter;stroke-miterlimit:4;stroke-dasharray:none;stroke-opacity:1"
       d="M 11.626939,29.345451 C 11.626939,29.345451 6.3739187,29.110054 5.1027377,32.62657 C 3.9048481,35.940337 7.7748748,38.759845 10.511046,41.422842 C 11.394741,42.282905 6.4287574,37.422434 6.7245064,34.194906 C 7.0363625,30.791601 11.134701,29.579803 11.626939,29.345451 z "
       id="path13399"
       sodipodi:nodetypes="csssc" />
    <path
       style="fill:none;fill-rule:evenodd;stroke:black;stroke-width:0.04769103px;stroke-linecap:butt;stroke-linejoin:miter;stroke-opacity:1"
       d="M 44.236403,4.5893863 L 38.442446,8.6338536 L 13.169848,34.723113"
       id="path17206"
       sodipodi:nodetypes="ccc" />
    <path
       style="fill:none;fill-rule:evenodd;stroke:black;stroke-width:0.04769103px;stroke-linecap:butt;stroke-linejoin:miter;stroke-opacity:1"
       d="M 41.830153,2.6831365 L 38.317446,8.3526038 L 12.701098,34.410613"
       id="path17208"
       sodipodi:nodetypes="ccc" />
  </g>
</svg>
