<?xml version="1.0" encoding="UTF-8" standalone="no"?>
<!-- Created with Inkscape (http://www.inkscape.org/) -->
<svg
   xmlns:dc="http://purl.org/dc/elements/1.1/"
   xmlns:cc="http://web.resource.org/cc/"
   xmlns:rdf="http://www.w3.org/1999/02/22-rdf-syntax-ns#"
   xmlns:svg="http://www.w3.org/2000/svg"
   xmlns="http://www.w3.org/2000/svg"
   xmlns:xlink="http://www.w3.org/1999/xlink"
   xmlns:sodipodi="http://inkscape.sourceforge.net/DTD/sodipodi-0.dtd"
   xmlns:inkscape="http://www.inkscape.org/namespaces/inkscape"
   inkscape:export-ydpi="90.000000"
   inkscape:export-xdpi="90.000000"
   inkscape:export-filename="/home/jimmac/Desktop/wi-fi.png"
   width="48px"
   height="48px"
   id="svg11300"
   sodipodi:version="0.32"
   inkscape:version="0.43"
   sodipodi:docbase="/home/laszlo/Software/SVN/jokosher/JonoEdit/trunk/Instruments/images"
   sodipodi:docname="audiofile.svg">
  <defs
     id="defs3">
    <linearGradient
       inkscape:collect="always"
       id="linearGradient5291">
      <stop
         style="stop-color:#fcaf3e;stop-opacity:1;"
         offset="0"
         id="stop5293" />
      <stop
         style="stop-color:#fcaf3e;stop-opacity:0;"
         offset="1"
         id="stop5295" />
    </linearGradient>
    <linearGradient
       id="linearGradient2232">
      <stop
         style="stop-color:#f57900;stop-opacity:1;"
         offset="0"
         id="stop2234" />
      <stop
         style="stop-color:#f57900;stop-opacity:0;"
         offset="1"
         id="stop2236" />
    </linearGradient>
    <linearGradient
       inkscape:collect="always"
       id="linearGradient4991">
      <stop
         style="stop-color:#ffffff;stop-opacity:1;"
         offset="0"
         id="stop4993" />
      <stop
         style="stop-color:#ffffff;stop-opacity:0;"
         offset="1"
         id="stop4995" />
    </linearGradient>
    <linearGradient
       id="linearGradient2187">
      <stop
         id="stop2189"
         offset="0"
         style="stop-color:#ffffff;stop-opacity:1;" />
      <stop
         id="stop2191"
         offset="1"
         style="stop-color:#ffffff;stop-opacity:0;" />
    </linearGradient>
    <radialGradient
       inkscape:collect="always"
       xlink:href="#linearGradient4991"
       id="radialGradient1989"
       gradientUnits="userSpaceOnUse"
       gradientTransform="matrix(-1.306376e-2,1.706422,1.734658,1.327993e-2,-0.31471,-11.15543)"
       cx="16.563837"
       cy="11.132236"
       fx="16.563837"
       fy="11.132236"
       r="19.0625" />
    <linearGradient
       inkscape:collect="always"
       xlink:href="#linearGradient2187"
       id="linearGradient1992"
       gradientUnits="userSpaceOnUse"
       gradientTransform="matrix(0,-1.186686,1.186686,0,2.54516,53.8702)"
       x1="17.060806"
       y1="11.39502"
       x2="12.624337"
       y2="12.583769" />
    <linearGradient
       inkscape:collect="always"
       xlink:href="#linearGradient2232"
       id="linearGradient1997"
       gradientUnits="userSpaceOnUse"
       gradientTransform="matrix(1.012595,0,0,1.012595,0.73991,-0.91229)"
       x1="31.5"
       y1="36.6124"
       x2="31.5"
       y2="42.5" />
    <linearGradient
       inkscape:collect="always"
       xlink:href="#linearGradient5291"
       id="linearGradient5297"
       x1="9.3983774"
       y1="23.488224"
       x2="43.920267"
       y2="23.488224"
       gradientUnits="userSpaceOnUse" />
  </defs>
  <sodipodi:namedview
     stroke="#788600"
     fill="#99b00b"
     id="base"
     pagecolor="#ffffff"
     bordercolor="#666666"
     borderopacity="0.25490196"
     inkscape:pageopacity="0.0"
     inkscape:pageshadow="2"
     inkscape:zoom="2"
     inkscape:cx="-18.882506"
     inkscape:cy="3.251839"
     inkscape:current-layer="layer1"
     showgrid="false"
     inkscape:grid-bbox="true"
     inkscape:document-units="px"
     inkscape:showpageshadow="false"
     inkscape:window-width="892"
     inkscape:window-height="831"
     inkscape:window-x="201"
     inkscape:window-y="68" />
  <metadata
     id="metadata4">
    <rdf:RDF>
      <cc:Work
         rdf:about="">
        <dc:format>image/svg+xml</dc:format>
        <dc:type
           rdf:resource="http://purl.org/dc/dcmitype/StillImage" />
        <dc:creator>
          <cc:Agent>
            <dc:title>Jakub Steiner</dc:title>
          </cc:Agent>
        </dc:creator>
        <dc:source>http://jimmac.musichall.cz</dc:source>
        <cc:license
           rdf:resource="http://creativecommons.org/licenses/by-sa/2.0/" />
        <dc:title>Edit Redo</dc:title>
        <dc:subject>
          <rdf:Bag>
            <rdf:li>edit</rdf:li>
            <rdf:li>redo</rdf:li>
            <rdf:li>again</rdf:li>
            <rdf:li>reapply</rdf:li>
          </rdf:Bag>
        </dc:subject>
      </cc:Work>
      <cc:License
         rdf:about="http://creativecommons.org/licenses/by-sa/2.0/">
        <cc:permits
           rdf:resource="http://web.resource.org/cc/Reproduction" />
        <cc:permits
           rdf:resource="http://web.resource.org/cc/Distribution" />
        <cc:requires
           rdf:resource="http://web.resource.org/cc/Notice" />
        <cc:requires
           rdf:resource="http://web.resource.org/cc/Attribution" />
        <cc:permits
           rdf:resource="http://web.resource.org/cc/DerivativeWorks" />
        <cc:requires
           rdf:resource="http://web.resource.org/cc/ShareAlike" />
      </cc:License>
    </rdf:RDF>
  </metadata>
  <g
     id="layer1"
     inkscape:label="Layer 1"
     inkscape:groupmode="layer">
    <path
       style="fill:#73d216;fill-opacity:1;fill-rule:evenodd;stroke:#4e9a06;stroke-width:1;stroke-linecap:butt;stroke-linejoin:miter;stroke-miterlimit:4;stroke-dasharray:none;stroke-opacity:1"
       d="M 1.5,46.605678 L 2.833239,25.241947 L 3.039067,26.605678 L 2.934274,24.43325 L 3.035309,25.403691 L 2.97093,19.605678 L 3.338413,24.702817 C 3.338413,24.702817 3.358621,16.831483 3.378828,17.10105 C 3.399035,17.370617 3.924416,24.972384 3.924416,24.972384 L 4.086072,16.292352 L 4.833731,27.560218 L 4.853938,19.581061 L 5.116629,20.821063 L 5.500562,13.488863 L 5.621804,15.052347 L 6.046151,12.895817 L 6.470497,23.840205 L 7.076707,31.334144 C 7.076707,31.334144 7.541468,24.2176 7.541468,24.487161 C 7.541468,24.756729 8.511403,33.544588 8.511403,33.544588 L 8.572024,31.5498 L 9.198441,35.000247 L 9.158027,34.137634 L 9.420718,34.299373 L 9.420718,33.814155 L 10.127962,34.946331 C 10.127962,34.946331 10.107756,33.05937 10.249205,33.43676 C 10.390653,33.814155 10.653345,34.676768 10.653345,34.676768 L 10.774586,33.275021 L 11.320176,35.108075 C 11.320176,35.108075 11.663694,18.664532 11.744522,19.095838 C 11.82535,19.527144 12.249697,23.301075 12.310318,22.977592 C 12.370939,22.654112 12.956942,13.758429 13.09839,14.621041 C 13.239839,15.483653 14.290603,25.188035 14.290603,25.188035 C 14.290603,25.188035 14.815984,10.847114 15.078676,11.979292 C 15.341367,13.111471 16.068819,23.247159 16.068819,23.247159 C 16.068819,23.247159 17.079168,10.146243 17.20041,10.847114 C 17.321653,11.547986 17.907654,24.2176 17.907654,24.2176 C 17.907654,24.2176 18.372415,16.93931 18.372415,17.154964 C 18.372415,17.370617 18.857382,24.001944 18.857382,24.001944 L 19.301936,16.723657 L 20.009181,24.594989 L 20.049596,17.640184 L 20.534564,24.594989 L 20.918496,14.621041 L 21.506453,25.141016 L 21.792222,16.754084 L 22.76384,27.88583 L 22.992457,24.531057 L 23.792612,29.868195 L 23.792612,26.055955 L 24.878539,37.492676 C 24.878539,37.492676 24.76423,29.715705 24.878539,30.325663 C 24.992847,30.935621 26.650313,37.950148 26.650313,37.950148 L 26.650313,35.510315 L 27.964854,38.712597 L 28.250625,33.070477 L 29.508013,38.560106 L 29.793782,34.290393 L 31.165479,39.475046 L 31.165479,35.205333 L 32.137097,40.389981 L 32.651483,33.375459 L 33.680255,39.170064 L 33.851718,32.308029 L 34.594718,38.255129 L 34.880488,26.208441 L 35.90926,33.680435 L 36.252186,14.161759 L 37.223803,29.105746 L 36.938034,11.874415 C 36.938034,11.874415 39.281347,29.105746 39.224193,28.190811 C 39.167039,27.275871 38.595499,8.824621 38.595499,8.824621 L 40.02435,26.818404 C 40.02435,26.818404 40.02435,5.164869 40.138657,6.384786 C 40.252965,7.604703 41.167429,25.293506 41.167429,25.293506 C 41.167429,25.293506 41.396045,1.505117 41.338891,2.420054 C 41.281737,3.334994 42.310509,26.818404 42.310509,26.818404 C 42.310509,26.818404 42.424817,21.633752 42.481971,22.24371 C 42.539126,22.853668 43.796513,33.527949 43.796513,33.527949 L 43.967975,23.006159 L 44.996747,33.070477 L 44.996747,28.03832 L 45.453979,33.070477 C 45.453979,33.070477 45.739749,28.80077 45.854057,29.410728 C 45.968365,30.020686 47.5,46.605678 47.5,46.605678 L 1.5,46.605678 z "
       id="path1939"
       sodipodi:nodetypes="cccccccsccccccccccscccccccscccssscscscscccccccccccccsccccccccccccccccccsccscscscccccscc" />
    <path
       style="color:black;fill:url(#linearGradient5297);fill-opacity:1.0;fill-rule:nonzero;stroke:url(#linearGradient1997);stroke-width:1.01259494;stroke-linecap:butt;stroke-linejoin:miter;marker:none;marker-start:none;marker-mid:none;marker-end:none;stroke-miterlimit:4;stroke-dasharray:none;stroke-dashoffset:0;stroke-opacity:1;visibility:visible;display:block;overflow:visible"
       d="M 39.597991,44.689261 C -0.931939,46.02704 5.473579,11.536075 26.555799,11.742745 L 26.555799,2.249252 L 43.41397,17.019548 L 26.555799,32.509749 C 26.555799,32.509749 26.555799,22.719596 26.555799,22.719596 C 12.315566,22.126246 8.149326,44.422118 39.597991,44.689261 z "
       id="path1432"
       sodipodi:nodetypes="ccccccc" />
    <path
       sodipodi:nodetypes="ccccccc"
       id="path2177"
       d="M 17.877992,38.898382 C 6.007242,32.742183 9.587075,12.340013 27.582277,12.808307 L 27.582277,4.607209 C 27.582277,4.607209 41.80694,17.02539 41.80694,17.02539 L 27.582277,30.132447 C 27.582277,30.132447 27.582277,21.750553 27.582277,21.750553 C 12.55552,21.397897 13.244024,34.668834 17.877992,38.898382 z "
       style="opacity:0.69886361;color:black;fill:#f57900;fill-opacity:1;fill-rule:nonzero;stroke:url(#linearGradient1992);stroke-width:1.01259458;stroke-linecap:butt;stroke-linejoin:miter;marker:none;marker-start:none;marker-mid:none;marker-end:none;stroke-miterlimit:10;stroke-dasharray:none;stroke-dashoffset:0;stroke-opacity:1;visibility:visible;display:block;overflow:visible" />
    <path
       style="opacity:0.49431817;color:black;fill:url(#radialGradient1989);fill-opacity:1;fill-rule:nonzero;stroke:none;stroke-width:0.9999997;stroke-linecap:butt;stroke-linejoin:miter;marker:none;marker-start:none;marker-mid:none;marker-end:none;stroke-miterlimit:10;stroke-dasharray:none;stroke-dashoffset:0;stroke-opacity:1;visibility:visible;display:inline;overflow:visible"
       d="M 27.104827,3.713839 L 37.926163,14.072312 C 30.901286,14.07231 33.180397,23.122058 26.978252,26.033268 L 27.04154,22.32027 C 11.662755,22.256982 12.548775,38.015491 23.750606,42.319019 C 4.422045,37.375603 7.106079,12.63733 26.978252,12.131035 L 27.104827,3.713839 z "
       id="path4989"
       sodipodi:nodetypes="ccccccc" />
  </g>
</svg>
