<?xml version="1.0" encoding="UTF-8" standalone="no"?>
<!-- Created with Inkscape (http://www.inkscape.org/) -->
<svg
   xmlns:dc="http://purl.org/dc/elements/1.1/"
   xmlns:cc="http://web.resource.org/cc/"
   xmlns:rdf="http://www.w3.org/1999/02/22-rdf-syntax-ns#"
   xmlns:svg="http://www.w3.org/2000/svg"
   xmlns="http://www.w3.org/2000/svg"
   xmlns:xlink="http://www.w3.org/1999/xlink"
   xmlns:sodipodi="http://inkscape.sourceforge.net/DTD/sodipodi-0.dtd"
   xmlns:inkscape="http://www.inkscape.org/namespaces/inkscape"
   width="48px"
   height="48px"
   id="svg1800"
   sodipodi:version="0.32"
   inkscape:version="0.43"
   sodipodi:docbase="/home/laszlo/Software/SVN/svn2/JonoEdit/Instruments/images"
   sodipodi:docname="bassdrum.svg">
  <defs
     id="defs3">
    <linearGradient
       id="linearGradient3275">
      <stop
         style="stop-color:#ffffff;stop-opacity:1;"
         offset="0"
         id="stop3277" />
      <stop
         style="stop-color:#a0a0a0;stop-opacity:1.0000000;"
         offset="1.0000000"
         id="stop3279" />
    </linearGradient>
    <linearGradient
       id="linearGradient3411">
      <stop
         style="stop-color:#8f5902;stop-opacity:1;"
         offset="0"
         id="stop3413" />
      <stop
         id="stop3421"
         offset="0.30357143"
         style="stop-color:#e9b96e;stop-opacity:1;" />
      <stop
         id="stop3415"
         offset="0.60000002"
         style="stop-color:#edd8b3;stop-opacity:1;" />
      <stop
         style="stop-color:#e9b96e;stop-opacity:1;"
         offset="0.80357146"
         id="stop3419" />
      <stop
         style="stop-color:#8f5902;stop-opacity:1;"
         offset="1"
         id="stop3417" />
    </linearGradient>
    <linearGradient
       id="linearGradient2508">
      <stop
         style="stop-color:#393939;stop-opacity:1.0000000;"
         offset="0.0000000"
         id="stop2510" />
      <stop
         id="stop2512"
         offset="0.35714287"
         style="stop-color:#ffffff;stop-opacity:1;" />
      <stop
         style="stop-color:#000000;stop-opacity:1.0000000;"
         offset="1.0000000"
         id="stop2514" />
    </linearGradient>
    <linearGradient
       id="linearGradient3394">
      <stop
         id="stop3396"
         offset="0"
         style="stop-color:#a40000;stop-opacity:1;" />
      <stop
         style="stop-color:#ef2929;stop-opacity:1;"
         offset="0.35714287"
         id="stop3400" />
      <stop
         id="stop3398"
         offset="1"
         style="stop-color:#a40000;stop-opacity:1;" />
    </linearGradient>
    <linearGradient
       id="linearGradient2563">
      <stop
         id="stop2565"
         offset="0"
         style="stop-color:#e7e7e7;stop-opacity:1;" />
      <stop
         id="stop2567"
         offset="1.0000000"
         style="stop-color:#a0a0a0;stop-opacity:1.0000000;" />
    </linearGradient>
    <linearGradient
       inkscape:collect="always"
       xlink:href="#linearGradient2508"
       id="linearGradient3772"
       gradientUnits="userSpaceOnUse"
       gradientTransform="matrix(14.87178,0,0,1.666612,-2047.179,-436.918)"
       x1="57.879494"
       y1="259.89999"
       x2="61.100014"
       y2="259.89999" />
    <linearGradient
       inkscape:collect="always"
       xlink:href="#linearGradient2508"
       id="linearGradient3778"
       gradientUnits="userSpaceOnUse"
       x1="57.879494"
       y1="259.89999"
       x2="61.100014"
       y2="259.89999"
       gradientTransform="matrix(9.502157,0,0,9.502157,-1455.736,-2409.729)" />
    <linearGradient
       inkscape:collect="always"
       xlink:href="#linearGradient2563"
       id="linearGradient9539"
       gradientUnits="userSpaceOnUse"
       gradientTransform="matrix(0.148254,0,0,0.148254,-54.24259,65.42382)"
       x1="-378.3988"
       y1="19.568058"
       x2="-400.89465"
       y2="-71.738655" />
    <linearGradient
       inkscape:collect="always"
       xlink:href="#linearGradient3275"
       id="linearGradient9541"
       gradientUnits="userSpaceOnUse"
       x1="-386.55185"
       y1="2.5512984"
       x2="-350.73047"
       y2="231.5601" />
    <linearGradient
       inkscape:collect="always"
       xlink:href="#linearGradient3394"
       id="linearGradient9543"
       gradientUnits="userSpaceOnUse"
       gradientTransform="matrix(0.148254,0,0,0.148254,-54.24259,26.87778)"
       x1="-612.5"
       y1="73"
       x2="-599.5"
       y2="-209.5" />
    <linearGradient
       inkscape:collect="always"
       xlink:href="#linearGradient3394"
       id="linearGradient9545"
       gradientUnits="userSpaceOnUse"
       gradientTransform="matrix(0.148254,0,0,0.148254,-56.31815,26.87778)"
       x1="-612.5"
       y1="73"
       x2="-599.5"
       y2="-209.5" />
    <linearGradient
       inkscape:collect="always"
       xlink:href="#linearGradient3411"
       id="linearGradient9547"
       gradientUnits="userSpaceOnUse"
       gradientTransform="matrix(0.148254,0,0,0.148254,-54.24259,26.87778)"
       x1="-612.5"
       y1="73"
       x2="-599.5"
       y2="-209.5" />
    <linearGradient
       inkscape:collect="always"
       xlink:href="#linearGradient3411"
       id="linearGradient9549"
       gradientUnits="userSpaceOnUse"
       gradientTransform="matrix(0.148254,0,0,0.148254,-56.31815,26.87778)"
       x1="-612.5"
       y1="73"
       x2="-599.5"
       y2="-209.5" />
    <linearGradient
       inkscape:collect="always"
       xlink:href="#linearGradient2508"
       id="linearGradient9551"
       gradientUnits="userSpaceOnUse"
       gradientTransform="matrix(8.70931e-2,1.399437e-18,-1.399437e-18,8.70931e-2,-459.6005,-128.4331)"
       x1="-1029.483"
       y1="-96.5"
       x2="-996.75043"
       y2="-96.5" />
    <linearGradient
       inkscape:collect="always"
       xlink:href="#linearGradient2508"
       id="linearGradient9553"
       gradientUnits="userSpaceOnUse"
       gradientTransform="matrix(8.70931e-2,1.399437e-18,-1.399437e-18,8.70931e-2,-459.6005,-128.4331)"
       x1="-1092.25"
       y1="-268.125"
       x2="-937.75"
       y2="-268.125" />
    <linearGradient
       inkscape:collect="always"
       xlink:href="#linearGradient2508"
       id="linearGradient9555"
       gradientUnits="userSpaceOnUse"
       gradientTransform="matrix(8.70931e-2,1.399437e-18,-1.016787e-18,6.327945e-2,-459.6005,-128.3395)"
       x1="-1046.725"
       y1="99.465492"
       x2="-979.99377"
       y2="99.465492" />
    <linearGradient
       inkscape:collect="always"
       xlink:href="#linearGradient2508"
       id="linearGradient9557"
       gradientUnits="userSpaceOnUse"
       gradientTransform="matrix(8.70931e-2,6.093476e-19,-6.093476e-19,8.70931e-2,-459.6005,-128.4331)"
       x1="-1029.483"
       y1="-96.5"
       x2="-996.75043"
       y2="-96.5" />
    <linearGradient
       inkscape:collect="always"
       xlink:href="#linearGradient2508"
       id="linearGradient9559"
       gradientUnits="userSpaceOnUse"
       gradientTransform="matrix(8.70931e-2,6.093476e-19,-6.093476e-19,8.70931e-2,-459.6005,-128.4331)"
       x1="-1092.25"
       y1="-268.125"
       x2="-937.75"
       y2="-268.125" />
    <linearGradient
       inkscape:collect="always"
       xlink:href="#linearGradient2508"
       id="linearGradient9561"
       gradientUnits="userSpaceOnUse"
       gradientTransform="matrix(8.70931e-2,6.093476e-19,-4.427352e-19,6.327945e-2,-459.6005,-128.3395)"
       x1="-1046.725"
       y1="99.465492"
       x2="-979.99377"
       y2="99.465492" />
    <linearGradient
       inkscape:collect="always"
       xlink:href="#linearGradient2508"
       id="linearGradient9563"
       gradientUnits="userSpaceOnUse"
       gradientTransform="matrix(8.70931e-2,2.804031e-18,-2.804031e-18,8.70931e-2,-459.6005,-128.4331)"
       x1="-1029.483"
       y1="-96.5"
       x2="-996.75043"
       y2="-96.5" />
    <linearGradient
       inkscape:collect="always"
       xlink:href="#linearGradient2508"
       id="linearGradient9565"
       gradientUnits="userSpaceOnUse"
       gradientTransform="matrix(8.70931e-2,2.804031e-18,-2.804031e-18,8.70931e-2,-459.6005,-128.4331)"
       x1="-1092.25"
       y1="-268.125"
       x2="-937.75"
       y2="-268.125" />
    <linearGradient
       inkscape:collect="always"
       xlink:href="#linearGradient2508"
       id="linearGradient9567"
       gradientUnits="userSpaceOnUse"
       gradientTransform="matrix(8.70931e-2,2.804031e-18,-2.037325e-18,6.327945e-2,-459.6005,-128.3395)"
       x1="-1046.725"
       y1="99.465492"
       x2="-979.99377"
       y2="99.465492" />
    <linearGradient
       inkscape:collect="always"
       xlink:href="#linearGradient2508"
       id="linearGradient9569"
       gradientUnits="userSpaceOnUse"
       gradientTransform="matrix(8.70931e-2,-2.401227e-18,1.689445e-17,8.70931e-2,-459.6005,-128.4331)"
       x1="-1029.483"
       y1="-96.5"
       x2="-996.75043"
       y2="-96.5" />
    <linearGradient
       inkscape:collect="always"
       xlink:href="#linearGradient2508"
       id="linearGradient9571"
       gradientUnits="userSpaceOnUse"
       gradientTransform="matrix(8.70931e-2,-2.754735e-18,1.746514e-17,8.70931e-2,-459.6173,-129.1401)"
       x1="-1092.25"
       y1="-268.125"
       x2="-937.75"
       y2="-268.125" />
    <linearGradient
       inkscape:collect="always"
       xlink:href="#linearGradient2508"
       id="linearGradient9573"
       gradientUnits="userSpaceOnUse"
       gradientTransform="matrix(8.70931e-2,-2.137866e-18,1.208365e-17,6.327945e-2,-459.6482,-130.3389)"
       x1="-1046.725"
       y1="99.465492"
       x2="-979.99377"
       y2="99.465492" />
    <linearGradient
       inkscape:collect="always"
       xlink:href="#linearGradient2508"
       id="linearGradient9575"
       gradientUnits="userSpaceOnUse"
       gradientTransform="matrix(1.29119e-2,8.314088e-19,-8.314088e-19,1.29119e-2,36.83752,122.2142)"
       x1="-1029.483"
       y1="-96.5"
       x2="-996.75043"
       y2="-96.5" />
    <linearGradient
       inkscape:collect="always"
       xlink:href="#linearGradient2508"
       id="linearGradient9577"
       gradientUnits="userSpaceOnUse"
       gradientTransform="matrix(-3.080602e-4,1.290822e-2,-1.290822e-2,-3.080602e-4,-123.0583,33.9111)"
       x1="-1092.25"
       y1="-268.125"
       x2="-937.75"
       y2="-268.125" />
    <linearGradient
       inkscape:collect="always"
       xlink:href="#linearGradient2508"
       id="linearGradient9579"
       gradientUnits="userSpaceOnUse"
       gradientTransform="matrix(-3.080602e-4,1.290822e-2,-9.378759e-3,-2.238281e-4,-122.7756,33.91077)"
       x1="-1046.725"
       y1="99.465492"
       x2="-979.99377"
       y2="99.465492" />
    <linearGradient
       inkscape:collect="always"
       xlink:href="#linearGradient2508"
       id="linearGradient9581"
       gradientUnits="userSpaceOnUse"
       gradientTransform="matrix(9.115855e-3,-1.105697e-18,1.428424e-18,1.290997e-2,28.51255,120.5241)"
       x1="-1029.483"
       y1="-96.5"
       x2="-996.75043"
       y2="-96.5" />
    <linearGradient
       inkscape:collect="always"
       xlink:href="#linearGradient2508"
       id="linearGradient9583"
       gradientUnits="userSpaceOnUse"
       gradientTransform="matrix(-3.080602e-4,9.110723e-3,-1.290822e-2,-2.174312e-4,-121.4709,26.46651)"
       x1="-1092.25"
       y1="-268.125"
       x2="-937.75"
       y2="-268.125" />
    <linearGradient
       inkscape:collect="always"
       xlink:href="#linearGradient2508"
       id="linearGradient9585"
       gradientUnits="userSpaceOnUse"
       gradientTransform="matrix(-3.080602e-4,9.110723e-3,-9.378759e-3,-1.579796e-4,-121.1883,26.46627)"
       x1="-1046.725"
       y1="99.465492"
       x2="-979.99377"
       y2="99.465492" />
    <linearGradient
       inkscape:collect="always"
       xlink:href="#linearGradient2508"
       id="linearGradient9587"
       gradientUnits="userSpaceOnUse"
       gradientTransform="matrix(8.70931e-2,1.863309e-18,-1.863309e-18,8.70931e-2,-459.6005,-128.4331)"
       x1="-1029.483"
       y1="-96.5"
       x2="-996.75043"
       y2="-96.5" />
    <linearGradient
       inkscape:collect="always"
       xlink:href="#linearGradient2508"
       id="linearGradient9589"
       gradientUnits="userSpaceOnUse"
       gradientTransform="matrix(8.70931e-2,1.863309e-18,-1.863309e-18,8.70931e-2,-459.6005,-128.4331)"
       x1="-1092.25"
       y1="-268.125"
       x2="-937.75"
       y2="-268.125" />
    <linearGradient
       inkscape:collect="always"
       xlink:href="#linearGradient2508"
       id="linearGradient9591"
       gradientUnits="userSpaceOnUse"
       gradientTransform="matrix(8.70931e-2,1.863309e-18,-1.353819e-18,6.327945e-2,-459.6005,-128.3395)"
       x1="-1046.725"
       y1="99.465492"
       x2="-979.99377"
       y2="99.465492" />
    <linearGradient
       inkscape:collect="always"
       xlink:href="#linearGradient2508"
       id="linearGradient9593"
       gradientUnits="userSpaceOnUse"
       gradientTransform="matrix(8.70931e-2,1.227843e-18,-1.227843e-18,8.70931e-2,-459.6005,-128.4331)"
       x1="-1029.483"
       y1="-96.5"
       x2="-996.75043"
       y2="-96.5" />
    <linearGradient
       inkscape:collect="always"
       xlink:href="#linearGradient2508"
       id="linearGradient9595"
       gradientUnits="userSpaceOnUse"
       gradientTransform="matrix(8.70931e-2,1.227843e-18,-1.227843e-18,8.70931e-2,-459.6005,-128.4331)"
       x1="-1092.25"
       y1="-268.125"
       x2="-937.75"
       y2="-268.125" />
    <linearGradient
       inkscape:collect="always"
       xlink:href="#linearGradient2508"
       id="linearGradient9597"
       gradientUnits="userSpaceOnUse"
       gradientTransform="matrix(8.70931e-2,1.227843e-18,-8.92116e-19,6.327945e-2,-459.6005,-128.3395)"
       x1="-1046.725"
       y1="99.465492"
       x2="-979.99377"
       y2="99.465492" />
    <linearGradient
       inkscape:collect="always"
       xlink:href="#linearGradient2508"
       id="linearGradient9599"
       gradientUnits="userSpaceOnUse"
       gradientTransform="matrix(8.70931e-2,3.383871e-18,-3.383871e-18,8.70931e-2,-459.6005,-128.4331)"
       x1="-1029.483"
       y1="-96.5"
       x2="-996.75043"
       y2="-96.5" />
    <linearGradient
       inkscape:collect="always"
       xlink:href="#linearGradient2508"
       id="linearGradient9601"
       gradientUnits="userSpaceOnUse"
       gradientTransform="matrix(8.70931e-2,3.383871e-18,-3.383871e-18,8.70931e-2,-459.6005,-128.4331)"
       x1="-1092.25"
       y1="-268.125"
       x2="-937.75"
       y2="-268.125" />
    <linearGradient
       inkscape:collect="always"
       xlink:href="#linearGradient2508"
       id="linearGradient9603"
       gradientUnits="userSpaceOnUse"
       gradientTransform="matrix(8.70931e-2,3.383871e-18,-2.458615e-18,6.327945e-2,-459.6005,-128.3395)"
       x1="-1046.725"
       y1="99.465492"
       x2="-979.99377"
       y2="99.465492" />
    <linearGradient
       inkscape:collect="always"
       xlink:href="#linearGradient2508"
       id="linearGradient9605"
       gradientUnits="userSpaceOnUse"
       gradientTransform="matrix(8.70931e-2,-1.972763e-18,1.899429e-17,8.70931e-2,-459.6005,-128.4331)"
       x1="-1029.483"
       y1="-96.5"
       x2="-996.75043"
       y2="-96.5" />
    <linearGradient
       inkscape:collect="always"
       xlink:href="#linearGradient2508"
       id="linearGradient9607"
       gradientUnits="userSpaceOnUse"
       gradientTransform="matrix(8.70931e-2,-2.326271e-18,1.956498e-17,8.70931e-2,-459.6173,-129.1401)"
       x1="-1092.25"
       y1="-268.125"
       x2="-937.75"
       y2="-268.125" />
    <linearGradient
       inkscape:collect="always"
       xlink:href="#linearGradient2508"
       id="linearGradient9609"
       gradientUnits="userSpaceOnUse"
       gradientTransform="matrix(8.70931e-2,-1.709402e-18,1.360933e-17,6.327945e-2,-459.6482,-130.3389)"
       x1="-1046.725"
       y1="99.465492"
       x2="-979.99377"
       y2="99.465492" />
    <linearGradient
       inkscape:collect="always"
       xlink:href="#linearGradient2508"
       id="linearGradient9611"
       gradientUnits="userSpaceOnUse"
       gradientTransform="matrix(1.29119e-2,1.329252e-18,-1.329252e-18,1.29119e-2,30.50679,-130.9299)"
       x1="-1029.483"
       y1="-96.5"
       x2="-996.75043"
       y2="-96.5" />
    <linearGradient
       inkscape:collect="always"
       xlink:href="#linearGradient2508"
       id="linearGradient9613"
       gradientUnits="userSpaceOnUse"
       gradientTransform="matrix(3.080602e-4,-1.290822e-2,1.290822e-2,3.080602e-4,-130.046,7.463837)"
       x1="-1092.25"
       y1="-268.125"
       x2="-937.75"
       y2="-268.125" />
    <linearGradient
       inkscape:collect="always"
       xlink:href="#linearGradient2508"
       id="linearGradient9615"
       gradientUnits="userSpaceOnUse"
       gradientTransform="matrix(3.080602e-4,1.290822e-2,9.378759e-3,-2.238281e-4,-130.7188,33.67203)"
       x1="-1046.725"
       y1="99.465492"
       x2="-979.99377"
       y2="99.465492" />
    <linearGradient
       inkscape:collect="always"
       xlink:href="#linearGradient2508"
       id="linearGradient9617"
       gradientUnits="userSpaceOnUse"
       gradientTransform="matrix(9.115873e-3,-2.411729e-19,6.794993e-19,1.290997e-2,24.15194,-128.9555)"
       x1="-1029.483"
       y1="-96.5"
       x2="-996.75043"
       y2="-96.5" />
    <linearGradient
       inkscape:collect="always"
       xlink:href="#linearGradient2508"
       id="linearGradient9619"
       gradientUnits="userSpaceOnUse"
       gradientTransform="matrix(3.080602e-4,-9.110723e-3,1.290822e-2,2.174312e-4,-126.9796,7.957601)"
       x1="-1092.25"
       y1="-268.125"
       x2="-937.75"
       y2="-268.125" />
    <linearGradient
       inkscape:collect="always"
       xlink:href="#linearGradient2508"
       id="linearGradient9621"
       gradientUnits="userSpaceOnUse"
       gradientTransform="matrix(3.080602e-4,9.110723e-3,9.378759e-3,-1.579796e-4,-128.3144,26.30986)"
       x1="-1046.725"
       y1="99.465492"
       x2="-979.99377"
       y2="99.465492" />
  </defs>
  <sodipodi:namedview
     fill="#edd400"
     id="base"
     pagecolor="#ffffff"
     bordercolor="#666666"
     borderopacity="0.20392157"
     inkscape:pageopacity="0.0"
     inkscape:pageshadow="2"
     inkscape:zoom="1"
     inkscape:cx="30.795016"
     inkscape:cy="-31.86552"
     inkscape:current-layer="layer1"
     showgrid="true"
     inkscape:grid-bbox="true"
     inkscape:document-units="px"
     inkscape:showpageshadow="false"
     inkscape:window-width="1280"
     inkscape:window-height="952"
     inkscape:window-x="0"
     inkscape:window-y="0"
     inkscape:grid-points="true"
     guidecolor="#0000ff"
     guideopacity="0.20392157"
     gridempcolor="#3f3fff"
     gridempopacity="0.16470588"
     gridcolor="#3f3f37"
     gridopacity="0.08235294" />
  <metadata
     id="metadata4">
    <rdf:RDF>
      <cc:Work
         rdf:about="">
        <dc:format>image/svg+xml</dc:format>
        <dc:type
           rdf:resource="http://purl.org/dc/dcmitype/StillImage" />
        <cc:license
           rdf:resource="http://creativecommons.org/licenses/by-sa/2.0/" />
        <dc:title>Emblem Photos</dc:title>
        <dc:creator>
          <cc:Agent>
            <dc:title>Jakub Steiner</dc:title>
          </cc:Agent>
        </dc:creator>
        <dc:subject>
          <rdf:Bag>
            <rdf:li>emblem</rdf:li>
            <rdf:li>photos</rdf:li>
            <rdf:li>pictures</rdf:li>
            <rdf:li>raw</rdf:li>
            <rdf:li>jpeg</rdf:li>
          </rdf:Bag>
        </dc:subject>
      </cc:Work>
      <cc:License
         rdf:about="http://creativecommons.org/licenses/by-sa/2.0/">
        <cc:permits
           rdf:resource="http://web.resource.org/cc/Reproduction" />
        <cc:permits
           rdf:resource="http://web.resource.org/cc/Distribution" />
        <cc:requires
           rdf:resource="http://web.resource.org/cc/Notice" />
        <cc:requires
           rdf:resource="http://web.resource.org/cc/Attribution" />
        <cc:permits
           rdf:resource="http://web.resource.org/cc/DerivativeWorks" />
        <cc:requires
           rdf:resource="http://web.resource.org/cc/ShareAlike" />
      </cc:License>
    </rdf:RDF>
  </metadata>
  <g
     id="layer1"
     inkscape:label="Layer 1"
     inkscape:groupmode="layer">
    <text
       style="fill:#a7a7a7;fill-opacity:1"
       y="22.580748"
       x="-15.746811"
       id="text1529">
      <tspan
         style="font-size:1.18620813px"
         id="tspan1531"
         font-size="8"
         y="22.580748"
         x="-15.746811" />
    </text>
    <text
       style="fill:#a7a7a7;fill-opacity:1"
       y="27.029028"
       x="-15.746811"
       id="text1553">
      <tspan
         style="font-size:1.18620813px"
         id="tspan1555"
         font-size="8"
         y="27.029028"
         x="-15.746811" />
    </text>
    <rect
       style="fill:url(#linearGradient3778);fill-opacity:1;stroke:#000000;stroke-width:0.20000008;stroke-linecap:round;stroke-linejoin:round;stroke-miterlimit:4;stroke-dasharray:none;stroke-dashoffset:0;stroke-opacity:1"
       id="rect3759"
       width="28.701458"
       height="361.08197"
       x="-904.80579"
       y="-120.65944"
       rx="0.99998963"
       ry="0.99999022" />
    <rect
       style="fill:url(#linearGradient3772);fill-opacity:1;stroke:#000000;stroke-width:0.20000017;stroke-linecap:round;stroke-linejoin:round;stroke-miterlimit:4;stroke-dasharray:none;stroke-dashoffset:0;stroke-opacity:1"
       id="rect3763"
       width="44.920494"
       height="63.331249"
       x="-1184.9205"
       y="-35.431248"
       rx="0.99998933"
       ry="0.99999231" />
    <g
       id="g9487"
       transform="matrix(1.304045,0,0,1.304045,183.5153,-15.56938)">
      <path
         sodipodi:nodetypes="csssssssssssssccssssccccssssc"
         id="path9249"
         d="M -130.18571,16.500002 C -130.18621,16.500549 -130.18529,16.504206 -130.18571,16.504635 C -130.19071,16.507437 -130.19883,16.511306 -130.20424,16.513901 C -130.20539,16.51387 -130.20771,16.513898 -130.20887,16.513901 C -130.21119,16.513929 -130.21582,16.513953 -130.21814,16.513901 C -130.24435,16.513311 -130.27062,16.513901 -130.2969,16.513901 C -134.2546,16.513901 -137.46868,23.216341 -137.46868,31.473656 C -137.46868,39.730971 -134.2546,46.433411 -130.2969,46.433411 C -130.27062,46.433411 -130.24435,46.434001 -130.21814,46.433411 C -130.21582,46.433359 -130.21119,46.433383 -130.20887,46.433411 C -130.20771,46.433414 -130.20539,46.433442 -130.20424,46.433411 C -130.20423,46.434447 -130.2042,46.437768 -130.20424,46.438044 C -130.20377,46.438004 -130.20001,46.438056 -130.1996,46.438044 C -130.18697,46.442149 -130.17112,46.446311 -130.15791,46.44731 C -130.15555,46.447328 -130.15057,46.44731 -130.14864,46.44731 L -128.10552,46.44731 C -128.10552,46.44731 -116.79524,46.433411 -114.58197,46.433411 C -112.05252,46.433411 -110,39.730971 -110,31.473656 C -110,23.216341 -112.05252,16.513899 -114.58197,16.513901 C -114.60173,16.513901 -114.61786,16.513085 -114.63757,16.513901 C -114.59288,16.506937 -114.54845,16.503523 -114.50321,16.500002 L -117.53779,16.500002 L -128.11015,16.500002 L -130.14864,16.500002 C -130.15057,16.500002 -130.15555,16.499984 -130.15791,16.500002 C -130.16082,16.500018 -130.16848,16.500098 -130.17181,16.500002 C -130.17259,16.500008 -130.17573,16.499953 -130.17644,16.500002 C -130.17686,16.499995 -130.18057,16.500026 -130.18107,16.500002 C -130.18149,16.500426 -130.1852,16.499455 -130.18571,16.500002 z "
         style="fill:url(#linearGradient9539);fill-opacity:1;stroke:#000000;stroke-width:1.91710734;stroke-linecap:round;stroke-linejoin:round;stroke-miterlimit:4;stroke-dasharray:none;stroke-dashoffset:0;stroke-opacity:1" />
      <path
         transform="matrix(0.127287,0,0,0.148108,-64.30218,27.47467)"
         d="M -359 27 A 36 101 0 1 1  -431,27 A 36 101 0 1 1  -359 27 z"
         sodipodi:ry="101"
         sodipodi:rx="36"
         sodipodi:cy="27"
         sodipodi:cx="-395"
         id="path9251"
         style="fill:url(#linearGradient9541);fill-opacity:1;stroke:#000000;stroke-width:1.11700368;stroke-linecap:round;stroke-linejoin:round;stroke-miterlimit:4;stroke-dasharray:none;stroke-dashoffset:0;stroke-opacity:1"
         sodipodi:type="arc" />
      <path
         id="path9253"
         d="M -128.10552,16.500002 C -128.10612,16.500239 -128.10956,16.504368 -128.11015,16.504635 C -128.11515,16.507437 -128.12327,16.511306 -128.12868,16.513901 C -128.12984,16.51387 -128.13216,16.513898 -128.13331,16.513901 C -128.13563,16.513929 -128.14027,16.513953 -128.14258,16.513901 C -128.1688,16.513311 -128.19506,16.513901 -128.22134,16.513901 C -132.17905,16.513901 -135.39313,23.216341 -135.39313,31.473656 C -135.39313,39.730971 -132.17905,46.433411 -128.22134,46.433411 C -128.19506,46.433411 -128.1688,46.434001 -128.14258,46.433411 C -128.14027,46.433359 -128.13563,46.433383 -128.13331,46.433411 C -128.13216,46.433414 -128.12984,46.433442 -128.12868,46.433411 C -128.1287,46.433838 -128.12861,46.437494 -128.12868,46.438044 C -128.12784,46.438375 -128.12492,46.437733 -128.12405,46.438044 C -128.11142,46.442149 -128.09556,46.446311 -128.08235,46.44731 C -128.07999,46.447328 -128.07501,46.44731 -128.07309,46.44731 L -115.46223,46.44731 C -117.57059,45.078466 -119.16395,38.89118 -119.16395,31.473656 C -119.16395,24.056132 -117.57059,17.868846 -115.46223,16.500002 L -128.07309,16.500002 C -128.07501,16.500002 -128.07999,16.499984 -128.08235,16.500002 C -128.08526,16.500018 -128.09292,16.500098 -128.09625,16.500002 C -128.09704,16.500008 -128.10017,16.499953 -128.10088,16.500002 C -128.10154,16.500167 -128.10489,16.499799 -128.10552,16.500002 z "
         style="fill:url(#linearGradient9543);fill-opacity:1;stroke:#000000;stroke-width:0.13238922;stroke-linecap:round;stroke-linejoin:round;stroke-miterlimit:4;stroke-dasharray:none;stroke-dashoffset:0;stroke-opacity:1" />
      <path
         id="path9255"
         d="M -130.18107,16.500002 C -130.18168,16.500239 -130.18512,16.504368 -130.18571,16.504635 C -130.19071,16.507437 -130.19883,16.511306 -130.20424,16.513901 C -130.20539,16.51387 -130.20771,16.513898 -130.20887,16.513901 C -130.21119,16.513929 -130.21582,16.513953 -130.21814,16.513901 C -130.24435,16.513311 -130.27062,16.513901 -130.2969,16.513901 C -134.2546,16.513901 -137.46868,23.216341 -137.46868,31.473656 C -137.46868,39.730971 -134.2546,46.433411 -130.2969,46.433411 C -130.27062,46.433411 -130.24435,46.434001 -130.21814,46.433411 C -130.21582,46.433359 -130.21119,46.433383 -130.20887,46.433411 C -130.20771,46.433414 -130.20539,46.433442 -130.20424,46.433411 C -130.20426,46.433838 -130.20417,46.437494 -130.20424,46.438044 C -130.2034,46.438375 -130.20048,46.437733 -130.1996,46.438044 C -130.18697,46.442149 -130.17112,46.446311 -130.15791,46.44731 C -130.15555,46.447328 -130.15057,46.44731 -130.14864,46.44731 L -117.53779,46.44731 C -119.64614,45.078466 -121.2395,38.89118 -121.2395,31.473656 C -121.2395,24.056132 -119.64614,17.868846 -117.53779,16.500002 L -130.14864,16.500002 C -130.15057,16.500002 -130.15555,16.499984 -130.15791,16.500002 C -130.16082,16.500018 -130.16848,16.500098 -130.17181,16.500002 C -130.17259,16.500008 -130.17573,16.499953 -130.17644,16.500002 C -130.17709,16.500167 -130.18044,16.499799 -130.18107,16.500002 z "
         style="fill:url(#linearGradient9545);fill-opacity:1;stroke:#000000;stroke-width:0.13238922;stroke-linecap:round;stroke-linejoin:round;stroke-miterlimit:4;stroke-dasharray:none;stroke-dashoffset:0;stroke-opacity:1" />
      <path
         sodipodi:nodetypes="csccscc"
         id="path9257"
         d="M -117.54705,16.500002 C -119.65541,17.868846 -121.2395,24.056132 -121.2395,31.473656 C -121.2395,38.89118 -119.64614,45.078466 -117.53779,46.44731 L -115.02673,46.44731 C -117.54705,45.026051 -119.16395,38.89118 -119.16395,31.473656 C -119.16395,24.056132 -117.3988,16.725336 -114.50335,16.500002 L -117.54705,16.500002 z "
         style="fill:url(#linearGradient9547);fill-opacity:1;stroke:#000000;stroke-width:0.13238922;stroke-linecap:round;stroke-linejoin:round;stroke-miterlimit:4;stroke-dasharray:none;stroke-dashoffset:0;stroke-opacity:1" />
      <path
         id="path9259"
         d="M -130.18571,16.500002 C -130.18621,16.500549 -130.18529,16.504206 -130.18571,16.504635 C -130.19071,16.507437 -130.19883,16.511306 -130.20424,16.513901 C -130.20539,16.51387 -130.20771,16.513898 -130.20887,16.513901 C -130.21119,16.513929 -130.21582,16.513953 -130.21814,16.513901 C -130.24435,16.513311 -130.27062,16.513901 -130.2969,16.513901 C -134.2546,16.513901 -137.46868,23.216341 -137.46868,31.473656 C -137.46868,39.730971 -134.2546,46.433411 -130.2969,46.433411 C -130.27062,46.433411 -130.24435,46.434001 -130.21814,46.433411 C -130.21582,46.433359 -130.21119,46.433383 -130.20887,46.433411 C -130.20771,46.433414 -130.20539,46.433442 -130.20424,46.433411 C -130.20423,46.434447 -130.2042,46.437768 -130.20424,46.438044 C -130.20377,46.438004 -130.20001,46.438056 -130.1996,46.438044 C -130.18697,46.442149 -130.17112,46.446311 -130.15791,46.44731 C -130.15555,46.447328 -130.15057,46.44731 -130.14864,46.44731 L -128.09625,46.44731 C -128.10523,46.445486 -128.11615,46.44061 -128.12405,46.438044 C -128.12446,46.438056 -128.12821,46.438004 -128.12868,46.438044 C -128.12865,46.437768 -128.12867,46.434447 -128.12868,46.433411 C -128.12984,46.433442 -128.13216,46.433414 -128.13331,46.433411 C -128.13563,46.433383 -128.14027,46.433359 -128.14258,46.433411 C -128.1688,46.434001 -128.19506,46.433411 -128.22134,46.433411 C -132.17905,46.433411 -135.39313,39.730971 -135.39313,31.473656 C -135.39313,23.216341 -132.17905,16.513901 -128.22134,16.513901 C -128.19506,16.513901 -128.1688,16.513311 -128.14258,16.513901 C -128.14027,16.513953 -128.13563,16.513929 -128.13331,16.513901 C -128.13216,16.513898 -128.12984,16.51387 -128.12868,16.513901 C -128.12327,16.511306 -128.11515,16.507437 -128.11015,16.504635 C -128.10973,16.504206 -128.11065,16.500549 -128.11015,16.500002 L -130.14864,16.500002 C -130.15057,16.500002 -130.15555,16.499984 -130.15791,16.500002 C -130.16082,16.500018 -130.16848,16.500098 -130.17181,16.500002 C -130.17259,16.500008 -130.17573,16.499953 -130.17644,16.500002 C -130.17686,16.499995 -130.18057,16.500026 -130.18107,16.500002 C -130.18149,16.500426 -130.1852,16.499455 -130.18571,16.500002 z "
         style="fill:url(#linearGradient9549);fill-opacity:1;stroke:#000000;stroke-width:0.13238922;stroke-linecap:round;stroke-linejoin:round;stroke-miterlimit:4;stroke-dasharray:none;stroke-dashoffset:0;stroke-opacity:1" />
      <g
         transform="matrix(-3.537137e-3,0.148212,-0.148212,-3.537137e-3,-144.7136,108.9877)"
         id="g9261">
        <rect
           style="fill:url(#linearGradient9551);fill-opacity:1;stroke:none;stroke-width:2.50000048;stroke-linecap:round;stroke-linejoin:round;stroke-miterlimit:4;stroke-dasharray:none;stroke-dashoffset:0;stroke-opacity:1"
           id="rect9263"
           width="2.6330523"
           height="23.253859"
           x="-549.15253"
           y="-148.46451"
           rx="5.1724415"
           ry="5.1724558" />
        <path
           style="fill:url(#linearGradient9553);fill-opacity:1;stroke:none;stroke-width:2.5;stroke-linecap:round;stroke-linejoin:round;stroke-miterlimit:4;stroke-dasharray:none;stroke-dashoffset:0;stroke-opacity:1"
           d="M -554.44217,-159.99999 C -554.55744,-159.01322 -554.61907,-157.98465 -554.61907,-156.92718 C -554.61907,-149.55396 -551.65373,-143.56989 -548,-143.56989 C -544.34627,-143.56989 -541.38092,-149.55396 -541.38092,-156.92718 C -541.38092,-157.98465 -541.44256,-159.01322 -541.55783,-159.99999 L -554.44217,-159.99999 z "
           id="path9265" />
        <path
           style="fill:url(#linearGradient9555);fill-opacity:1;stroke:none;stroke-width:0.19999997;stroke-linecap:round;stroke-linejoin:round;stroke-miterlimit:4;stroke-dashoffset:0;stroke-opacity:1"
           d="M -549.54862,-128.09033 C -549.98959,-128.05732 -550.34062,-127.44379 -550.34062,-126.68631 L -550.75432,-122.46834 C -550.75432,-122.32232 -550.74032,-122.18133 -550.71621,-122.04912 C -550.71597,-122.04776 -550.71647,-122.04651 -550.71621,-122.04516 C -550.71644,-122.04396 -550.71599,-122.04242 -550.71621,-122.0412 C -550.74032,-121.909 -550.75432,-121.76997 -550.75432,-121.62395 L -550.34062,-117.40599 C -550.34062,-116.62721 -549.97171,-116 -549.51324,-116 L -546.20098,-116 C -545.74251,-116 -545.3736,-116.62721 -545.3736,-117.40599 L -544.9599,-121.62395 C -544.9599,-121.76997 -544.9739,-121.909 -544.99801,-122.0412 C -544.99775,-122.04256 -544.99826,-122.0438 -544.99801,-122.04516 C -544.99823,-122.04637 -544.99778,-122.04791 -544.99801,-122.04912 C -544.9739,-122.18133 -544.9599,-122.32232 -544.9599,-122.46834 L -545.3736,-126.68631 C -545.3736,-127.46508 -545.74251,-128.09033 -546.20098,-128.09033 L -549.51324,-128.09033 C -549.52577,-128.09033 -549.53622,-128.09126 -549.54862,-128.09033 z "
           id="path9267" />
      </g>
      <g
         transform="matrix(-3.537137e-3,0.148212,-0.148212,-3.537137e-3,-144.5564,116.6789)"
         id="g9269">
        <rect
           style="fill:url(#linearGradient9557);fill-opacity:1;stroke:none;stroke-width:2.50000048;stroke-linecap:round;stroke-linejoin:round;stroke-miterlimit:4;stroke-dasharray:none;stroke-dashoffset:0;stroke-opacity:1"
           id="rect9271"
           width="2.6330523"
           height="23.253859"
           x="-549.15253"
           y="-148.46451"
           rx="5.1724415"
           ry="5.1724558" />
        <path
           style="fill:url(#linearGradient9559);fill-opacity:1;stroke:none;stroke-width:2.5;stroke-linecap:round;stroke-linejoin:round;stroke-miterlimit:4;stroke-dasharray:none;stroke-dashoffset:0;stroke-opacity:1"
           d="M -554.44217,-159.99999 C -554.55744,-159.01322 -554.61907,-157.98465 -554.61907,-156.92718 C -554.61907,-149.55396 -551.65373,-143.56989 -548,-143.56989 C -544.34627,-143.56989 -541.38092,-149.55396 -541.38092,-156.92718 C -541.38092,-157.98465 -541.44256,-159.01322 -541.55783,-159.99999 L -554.44217,-159.99999 z "
           id="path9273" />
        <path
           style="fill:url(#linearGradient9561);fill-opacity:1;stroke:none;stroke-width:0.19999997;stroke-linecap:round;stroke-linejoin:round;stroke-miterlimit:4;stroke-dashoffset:0;stroke-opacity:1"
           d="M -549.54862,-128.09033 C -549.98959,-128.05732 -550.34062,-127.44379 -550.34062,-126.68631 L -550.75432,-122.46834 C -550.75432,-122.32232 -550.74032,-122.18133 -550.71621,-122.04912 C -550.71597,-122.04776 -550.71647,-122.04651 -550.71621,-122.04516 C -550.71644,-122.04396 -550.71599,-122.04242 -550.71621,-122.0412 C -550.74032,-121.909 -550.75432,-121.76997 -550.75432,-121.62395 L -550.34062,-117.40599 C -550.34062,-116.62721 -549.97171,-116 -549.51324,-116 L -546.20098,-116 C -545.74251,-116 -545.3736,-116.62721 -545.3736,-117.40599 L -544.9599,-121.62395 C -544.9599,-121.76997 -544.9739,-121.909 -544.99801,-122.0412 C -544.99775,-122.04256 -544.99826,-122.0438 -544.99801,-122.04516 C -544.99823,-122.04637 -544.99778,-122.04791 -544.99801,-122.04912 C -544.9739,-122.18133 -544.9599,-122.32232 -544.9599,-122.46834 L -545.3736,-126.68631 C -545.3736,-127.46508 -545.74251,-128.09033 -546.20098,-128.09033 L -549.51324,-128.09033 C -549.52577,-128.09033 -549.53622,-128.09126 -549.54862,-128.09033 z "
           id="path9275" />
      </g>
      <g
         transform="matrix(-3.537137e-3,0.148212,-0.148212,-3.537137e-3,-143.7717,122.7483)"
         id="g9277">
        <rect
           style="fill:url(#linearGradient9563);fill-opacity:1;stroke:none;stroke-width:2.50000048;stroke-linecap:round;stroke-linejoin:round;stroke-miterlimit:4;stroke-dasharray:none;stroke-dashoffset:0;stroke-opacity:1"
           id="rect9279"
           width="2.6330523"
           height="23.253859"
           x="-549.15253"
           y="-148.46451"
           rx="5.1724415"
           ry="5.1724558" />
        <path
           sodipodi:nodetypes="cssscc"
           style="fill:url(#linearGradient9565);fill-opacity:1;stroke:none;stroke-width:2.5;stroke-linecap:round;stroke-linejoin:round;stroke-miterlimit:4;stroke-dasharray:none;stroke-dashoffset:0;stroke-opacity:1"
           d="M -554.44217,-159.99999 C -554.55744,-159.01322 -554.61907,-157.98465 -554.61907,-156.92718 C -554.61907,-149.55396 -551.65373,-143.56989 -548,-143.56989 C -544.34627,-143.56989 -541.38092,-149.55396 -541.38092,-156.92718 C -541.38092,-157.98465 -542.67362,-162.87404 -542.78889,-163.86081 L -554.44217,-159.99999 z "
           id="path9281" />
        <path
           style="fill:url(#linearGradient9567);fill-opacity:1;stroke:none;stroke-width:0.19999997;stroke-linecap:round;stroke-linejoin:round;stroke-miterlimit:4;stroke-dashoffset:0;stroke-opacity:1"
           d="M -549.54862,-128.09033 C -549.98959,-128.05732 -550.34062,-127.44379 -550.34062,-126.68631 L -550.75432,-122.46834 C -550.75432,-122.32232 -550.74032,-122.18133 -550.71621,-122.04912 C -550.71597,-122.04776 -550.71647,-122.04651 -550.71621,-122.04516 C -550.71644,-122.04396 -550.71599,-122.04242 -550.71621,-122.0412 C -550.74032,-121.909 -550.75432,-121.76997 -550.75432,-121.62395 L -550.34062,-117.40599 C -550.34062,-116.62721 -549.97171,-116 -549.51324,-116 L -546.20098,-116 C -545.74251,-116 -545.3736,-116.62721 -545.3736,-117.40599 L -544.9599,-121.62395 C -544.9599,-121.76997 -544.9739,-121.909 -544.99801,-122.0412 C -544.99775,-122.04256 -544.99826,-122.0438 -544.99801,-122.04516 C -544.99823,-122.04637 -544.99778,-122.04791 -544.99801,-122.04912 C -544.9739,-122.18133 -544.9599,-122.32232 -544.9599,-122.46834 L -545.3736,-126.68631 C -545.3736,-127.46508 -545.74251,-128.09033 -546.20098,-128.09033 L -549.51324,-128.09033 C -549.52577,-128.09033 -549.53622,-128.09126 -549.54862,-128.09033 z "
           id="path9283" />
      </g>
      <g
         transform="matrix(-3.537137e-3,0.115376,-0.148212,-2.753495e-3,-142.3235,108.4454)"
         id="g9285">
        <rect
           style="fill:url(#linearGradient9569);fill-opacity:1;stroke:none;stroke-width:2.50000048;stroke-linecap:round;stroke-linejoin:round;stroke-miterlimit:4;stroke-dasharray:none;stroke-dashoffset:0;stroke-opacity:1"
           id="rect9287"
           width="2.6330523"
           height="23.253859"
           x="-549.15253"
           y="-148.46451"
           rx="5.1724415"
           ry="6.6445322" />
        <path
           sodipodi:nodetypes="cssscc"
           style="fill:url(#linearGradient9571);fill-opacity:1;stroke:none;stroke-width:2.5;stroke-linecap:round;stroke-linejoin:round;stroke-miterlimit:4;stroke-dasharray:none;stroke-dashoffset:0;stroke-opacity:1"
           d="M -554.45905,-160.70689 C -554.57432,-159.72012 -554.63595,-158.69155 -554.63595,-157.63408 C -554.63595,-150.26086 -551.67061,-144.27679 -548.01688,-144.27679 C -544.36315,-144.27679 -542.75681,-152.36723 -543.60074,-155.96458 C -544.3398,-159.11492 -543.8134,-166.68043 -543.92867,-167.6672 L -554.45905,-160.70689 z "
           id="path9289" />
        <path
           style="fill:url(#linearGradient9573);fill-opacity:1;stroke:none;stroke-width:0.19999997;stroke-linecap:round;stroke-linejoin:round;stroke-miterlimit:4;stroke-dashoffset:0;stroke-opacity:1"
           d="M -549.59634,-130.08976 C -550.03731,-130.05675 -550.38834,-129.44322 -550.38834,-128.68574 L -550.80204,-124.46777 C -550.80204,-124.32175 -550.78804,-124.18076 -550.76393,-124.04855 C -550.76369,-124.04719 -550.76419,-124.04594 -550.76393,-124.04459 C -550.76416,-124.04339 -550.76371,-124.04185 -550.76393,-124.04063 C -550.78804,-123.90843 -550.80204,-123.7694 -550.80204,-123.62338 L -550.38834,-119.40542 C -550.38834,-118.62664 -550.01943,-117.99943 -549.56096,-117.99943 L -546.2487,-117.99943 C -545.79023,-117.99943 -545.42132,-118.62664 -545.42132,-119.40542 L -545.00762,-123.62338 C -545.00762,-123.7694 -545.02162,-123.90843 -545.04573,-124.04063 C -545.04547,-124.04199 -545.04598,-124.04323 -545.04573,-124.04459 C -545.04595,-124.0458 -545.0455,-124.04734 -545.04573,-124.04855 C -545.02162,-124.18076 -545.00762,-124.32175 -545.00762,-124.46777 L -545.42132,-128.68574 C -545.42132,-129.46451 -545.79023,-130.08976 -546.2487,-130.08976 L -549.56096,-130.08976 C -549.57349,-130.08976 -549.58394,-130.09069 -549.59634,-130.08976 z "
           id="path9291" />
      </g>
      <rect
         transform="matrix(-2.385863e-2,0.999715,-0.999715,-2.385863e-2,0,0)"
         ry="0.76683742"
         rx="0.76683533"
         y="119.24448"
         x="23.561062"
         height="3.4474788"
         width="0.39036065"
         id="rect9293"
         style="fill:url(#linearGradient9575);fill-opacity:1;stroke:none;stroke-width:2.50000048;stroke-linecap:round;stroke-linejoin:round;stroke-miterlimit:4;stroke-dasharray:none;stroke-dashoffset:0;stroke-opacity:1" />
      <path
         id="path9295"
         d="M -117.54705,19.909844 C -117.6929,19.889269 -118.3423,19.932763 -118.49903,19.929022 C -119.59183,19.902943 -120.48923,20.321274 -120.50215,20.8628 C -120.51508,21.404326 -119.63866,21.864993 -118.54586,21.891072 C -118.38913,21.894812 -118.23647,21.889315 -118.08981,21.875722 L -117.54705,19.909844 z "
         style="fill:url(#linearGradient9577);fill-opacity:1;stroke:none;stroke-width:2.5;stroke-linecap:round;stroke-linejoin:round;stroke-miterlimit:4;stroke-dasharray:none;stroke-dashoffset:0;stroke-opacity:1"
         sodipodi:nodetypes="cssscc" />
      <path
         id="path9297"
         d="M -122.49442,20.578523 C -122.49775,20.513049 -122.58744,20.458852 -122.69971,20.456173 L -123.3234,20.379938 C -123.34504,20.379422 -123.36599,20.380998 -123.38567,20.384104 C -123.38587,20.384135 -123.38606,20.384057 -123.38626,20.384089 C -123.38643,20.384052 -123.38666,20.384113 -123.38684,20.384076 C -123.40635,20.380035 -123.42691,20.377468 -123.44855,20.376952 L -124.07516,20.423347 C -124.19059,20.420592 -124.28485,20.473051 -124.28648,20.541001 L -124.29819,21.031918 C -124.29981,21.099868 -124.20816,21.156764 -124.09273,21.159518 L -123.46905,21.235752 C -123.4474,21.23627 -123.42675,21.234686 -123.40707,21.23158 C -123.40687,21.231623 -123.40668,21.231552 -123.40648,21.231595 C -123.4063,21.231565 -123.40608,21.231638 -123.4059,21.231608 C -123.38639,21.23565 -123.36554,21.238224 -123.3439,21.238739 L -122.71728,21.192343 C -122.60186,21.195098 -122.50788,21.142634 -122.50626,21.074683 L -122.49455,20.583767 C -122.4945,20.581911 -122.49433,20.580364 -122.49442,20.578523 z "
         style="fill:url(#linearGradient9579);fill-opacity:1;stroke:none;stroke-width:0.19999997;stroke-linecap:round;stroke-linejoin:round;stroke-miterlimit:4;stroke-dashoffset:0;stroke-opacity:1" />
      <rect
         transform="matrix(-3.379392e-2,0.999429,-0.999858,-1.684214e-2,0,0)"
         ry="0.76679868"
         rx="0.76673752"
         y="117.55474"
         x="19.139326"
         height="3.4469624"
         width="0.27559608"
         id="rect9299"
         style="fill:url(#linearGradient9581);fill-opacity:1;stroke:none;stroke-width:2.50000048;stroke-linecap:round;stroke-linejoin:round;stroke-miterlimit:4;stroke-dasharray:none;stroke-dashoffset:0;stroke-opacity:1" />
      <path
         id="path9301"
         d="M -115.32324,16.648256 C -115.17499,16.581318 -116.75493,16.600487 -116.91166,16.597847 C -118.00446,16.579439 -118.90186,16.874702 -118.91478,17.256914 C -118.92771,17.639128 -118.05129,17.96427 -116.95849,17.982677 C -116.80176,17.985317 -116.6491,17.981438 -116.50244,17.971843 L -115.32324,16.648256 z "
         style="fill:url(#linearGradient9583);fill-opacity:1;stroke:none;stroke-width:2.5;stroke-linecap:round;stroke-linejoin:round;stroke-miterlimit:4;stroke-dasharray:none;stroke-dashoffset:0;stroke-opacity:1"
         sodipodi:nodetypes="cssscc" />
      <path
         id="path9303"
         d="M -120.90705,17.05627 C -120.91038,17.010058 -121.00007,16.971806 -121.11234,16.969914 L -121.73603,16.916107 C -121.75767,16.915742 -121.77862,16.916855 -121.7983,16.919048 C -121.7985,16.919069 -121.79868,16.919014 -121.79889,16.919037 C -121.79906,16.919011 -121.79929,16.919054 -121.79947,16.919027 C -121.81898,16.916175 -121.83954,16.914363 -121.86118,16.913998 L -122.48779,16.946746 C -122.60322,16.944801 -122.69748,16.981828 -122.69911,17.029786 L -122.71082,17.37628 C -122.71244,17.42424 -122.62079,17.464396 -122.50536,17.466341 L -121.88168,17.520148 C -121.86003,17.520513 -121.83938,17.519395 -121.8197,17.517202 C -121.8195,17.517233 -121.81931,17.517183 -121.81911,17.517213 C -121.81893,17.517192 -121.8187,17.517244 -121.81853,17.517222 C -121.79902,17.520074 -121.77817,17.521892 -121.75653,17.522256 L -121.12991,17.489508 C -121.01449,17.491454 -120.92051,17.454423 -120.91889,17.406463 L -120.90718,17.059971 C -120.90713,17.05866 -120.90696,17.057569 -120.90705,17.05627 z "
         style="fill:url(#linearGradient9585);fill-opacity:1;stroke:none;stroke-width:0.19999997;stroke-linecap:round;stroke-linejoin:round;stroke-miterlimit:4;stroke-dashoffset:0;stroke-opacity:1" />
      <g
         transform="matrix(3.537137e-3,0.148212,0.148212,-3.537137e-3,-111.6389,108.8313)"
         id="g9405">
        <rect
           style="fill:url(#linearGradient9587);fill-opacity:1;stroke:none;stroke-width:2.50000048;stroke-linecap:round;stroke-linejoin:round;stroke-miterlimit:4;stroke-dasharray:none;stroke-dashoffset:0;stroke-opacity:1"
           id="rect9407"
           width="2.6330523"
           height="23.253859"
           x="-549.15253"
           y="-148.46451"
           rx="5.1724415"
           ry="5.1724558" />
        <path
           style="fill:url(#linearGradient9589);fill-opacity:1;stroke:none;stroke-width:2.5;stroke-linecap:round;stroke-linejoin:round;stroke-miterlimit:4;stroke-dasharray:none;stroke-dashoffset:0;stroke-opacity:1"
           d="M -554.44217,-159.99999 C -554.55744,-159.01322 -554.61907,-157.98465 -554.61907,-156.92718 C -554.61907,-149.55396 -551.65373,-143.56989 -548,-143.56989 C -544.34627,-143.56989 -541.38092,-149.55396 -541.38092,-156.92718 C -541.38092,-157.98465 -541.44256,-159.01322 -541.55783,-159.99999 L -554.44217,-159.99999 z "
           id="path9409" />
        <path
           style="fill:url(#linearGradient9591);fill-opacity:1;stroke:none;stroke-width:0.19999997;stroke-linecap:round;stroke-linejoin:round;stroke-miterlimit:4;stroke-dashoffset:0;stroke-opacity:1"
           d="M -549.54862,-128.09033 C -549.98959,-128.05732 -550.34062,-127.44379 -550.34062,-126.68631 L -550.75432,-122.46834 C -550.75432,-122.32232 -550.74032,-122.18133 -550.71621,-122.04912 C -550.71597,-122.04776 -550.71647,-122.04651 -550.71621,-122.04516 C -550.71644,-122.04396 -550.71599,-122.04242 -550.71621,-122.0412 C -550.74032,-121.909 -550.75432,-121.76997 -550.75432,-121.62395 L -550.34062,-117.40599 C -550.34062,-116.62721 -549.97171,-116 -549.51324,-116 L -546.20098,-116 C -545.74251,-116 -545.3736,-116.62721 -545.3736,-117.40599 L -544.9599,-121.62395 C -544.9599,-121.76997 -544.9739,-121.909 -544.99801,-122.0412 C -544.99775,-122.04256 -544.99826,-122.0438 -544.99801,-122.04516 C -544.99823,-122.04637 -544.99778,-122.04791 -544.99801,-122.04912 C -544.9739,-122.18133 -544.9599,-122.32232 -544.9599,-122.46834 L -545.3736,-126.68631 C -545.3736,-127.46508 -545.74251,-128.09033 -546.20098,-128.09033 L -549.51324,-128.09033 C -549.52577,-128.09033 -549.53622,-128.09126 -549.54862,-128.09033 z "
           id="path9411" />
      </g>
      <g
         transform="matrix(3.537137e-3,0.148212,0.148212,-3.537137e-3,-111.4621,116.5225)"
         id="g9413">
        <rect
           style="fill:url(#linearGradient9593);fill-opacity:1;stroke:none;stroke-width:2.50000048;stroke-linecap:round;stroke-linejoin:round;stroke-miterlimit:4;stroke-dasharray:none;stroke-dashoffset:0;stroke-opacity:1"
           id="rect9415"
           width="2.6330523"
           height="23.253859"
           x="-549.15253"
           y="-148.46451"
           rx="5.1724415"
           ry="5.1724558" />
        <path
           style="fill:url(#linearGradient9595);fill-opacity:1;stroke:none;stroke-width:2.5;stroke-linecap:round;stroke-linejoin:round;stroke-miterlimit:4;stroke-dasharray:none;stroke-dashoffset:0;stroke-opacity:1"
           d="M -554.44217,-159.99999 C -554.55744,-159.01322 -554.61907,-157.98465 -554.61907,-156.92718 C -554.61907,-149.55396 -551.65373,-143.56989 -548,-143.56989 C -544.34627,-143.56989 -541.38092,-149.55396 -541.38092,-156.92718 C -541.38092,-157.98465 -541.44256,-159.01322 -541.55783,-159.99999 L -554.44217,-159.99999 z "
           id="path9417" />
        <path
           style="fill:url(#linearGradient9597);fill-opacity:1;stroke:none;stroke-width:0.19999997;stroke-linecap:round;stroke-linejoin:round;stroke-miterlimit:4;stroke-dashoffset:0;stroke-opacity:1"
           d="M -549.54862,-128.09033 C -549.98959,-128.05732 -550.34062,-127.44379 -550.34062,-126.68631 L -550.75432,-122.46834 C -550.75432,-122.32232 -550.74032,-122.18133 -550.71621,-122.04912 C -550.71597,-122.04776 -550.71647,-122.04651 -550.71621,-122.04516 C -550.71644,-122.04396 -550.71599,-122.04242 -550.71621,-122.0412 C -550.74032,-121.909 -550.75432,-121.76997 -550.75432,-121.62395 L -550.34062,-117.40599 C -550.34062,-116.62721 -549.97171,-116 -549.51324,-116 L -546.20098,-116 C -545.74251,-116 -545.3736,-116.62721 -545.3736,-117.40599 L -544.9599,-121.62395 C -544.9599,-121.76997 -544.9739,-121.909 -544.99801,-122.0412 C -544.99775,-122.04256 -544.99826,-122.0438 -544.99801,-122.04516 C -544.99823,-122.04637 -544.99778,-122.04791 -544.99801,-122.04912 C -544.9739,-122.18133 -544.9599,-122.32232 -544.9599,-122.46834 L -545.3736,-126.68631 C -545.3736,-127.46508 -545.74251,-128.09033 -546.20098,-128.09033 L -549.51324,-128.09033 C -549.52577,-128.09033 -549.53622,-128.09126 -549.54862,-128.09033 z "
           id="path9419" />
      </g>
      <g
         transform="matrix(3.537137e-3,-0.148212,0.148212,3.537137e-3,-109.5057,-38.7394)"
         id="g9421">
        <rect
           style="fill:url(#linearGradient9599);fill-opacity:1;stroke:none;stroke-width:2.50000048;stroke-linecap:round;stroke-linejoin:round;stroke-miterlimit:4;stroke-dasharray:none;stroke-dashoffset:0;stroke-opacity:1"
           id="rect9423"
           width="2.6330523"
           height="23.253859"
           x="-549.15253"
           y="-148.46451"
           rx="5.1724415"
           ry="5.1724558" />
        <path
           sodipodi:nodetypes="cssscc"
           style="fill:url(#linearGradient9601);fill-opacity:1;stroke:none;stroke-width:2.5;stroke-linecap:round;stroke-linejoin:round;stroke-miterlimit:4;stroke-dasharray:none;stroke-dashoffset:0;stroke-opacity:1"
           d="M -554.44217,-159.99999 C -554.55744,-159.01322 -554.61907,-157.98465 -554.61907,-156.92718 C -554.61907,-149.55396 -551.65373,-143.56989 -548,-143.56989 C -544.34627,-143.56989 -541.38092,-149.55396 -541.38092,-156.92718 C -541.38092,-157.98465 -542.67362,-162.87404 -542.78889,-163.86081 L -554.44217,-159.99999 z "
           id="path9425" />
        <path
           style="fill:url(#linearGradient9603);fill-opacity:1;stroke:none;stroke-width:0.19999997;stroke-linecap:round;stroke-linejoin:round;stroke-miterlimit:4;stroke-dashoffset:0;stroke-opacity:1"
           d="M -549.54862,-128.09033 C -549.98959,-128.05732 -550.34062,-127.44379 -550.34062,-126.68631 L -550.75432,-122.46834 C -550.75432,-122.32232 -550.74032,-122.18133 -550.71621,-122.04912 C -550.71597,-122.04776 -550.71647,-122.04651 -550.71621,-122.04516 C -550.71644,-122.04396 -550.71599,-122.04242 -550.71621,-122.0412 C -550.74032,-121.909 -550.75432,-121.76997 -550.75432,-121.62395 L -550.34062,-117.40599 C -550.34062,-116.62721 -549.97171,-116 -549.51324,-116 L -546.20098,-116 C -545.74251,-116 -545.3736,-116.62721 -545.3736,-117.40599 L -544.9599,-121.62395 C -544.9599,-121.76997 -544.9739,-121.909 -544.99801,-122.0412 C -544.99775,-122.04256 -544.99826,-122.0438 -544.99801,-122.04516 C -544.99823,-122.04637 -544.99778,-122.04791 -544.99801,-122.04912 C -544.9739,-122.18133 -544.9599,-122.32232 -544.9599,-122.46834 L -545.3736,-126.68631 C -545.3736,-127.46508 -545.74251,-128.09033 -546.20098,-128.09033 L -549.51324,-128.09033 C -549.52577,-128.09033 -549.53622,-128.09126 -549.54862,-128.09033 z "
           id="path9427" />
      </g>
      <g
         transform="matrix(3.537137e-3,-0.115376,0.148212,2.753495e-3,-106.6723,-17.53885)"
         id="g9429">
        <rect
           style="fill:url(#linearGradient9605);fill-opacity:1;stroke:none;stroke-width:2.50000048;stroke-linecap:round;stroke-linejoin:round;stroke-miterlimit:4;stroke-dasharray:none;stroke-dashoffset:0;stroke-opacity:1"
           id="rect9431"
           width="2.6330523"
           height="23.253859"
           x="-549.15253"
           y="-148.46451"
           rx="5.1724415"
           ry="6.6445322" />
        <path
           sodipodi:nodetypes="cssscc"
           style="fill:url(#linearGradient9607);fill-opacity:1;stroke:none;stroke-width:2.5;stroke-linecap:round;stroke-linejoin:round;stroke-miterlimit:4;stroke-dasharray:none;stroke-dashoffset:0;stroke-opacity:1"
           d="M -554.45905,-160.70689 C -554.57432,-159.72012 -554.63595,-158.69155 -554.63595,-157.63408 C -554.63595,-150.26086 -551.67061,-144.27679 -548.01688,-144.27679 C -544.36315,-144.27679 -542.75681,-152.36723 -543.60074,-155.96458 C -544.3398,-159.11492 -543.8134,-166.68043 -543.92867,-167.6672 L -554.45905,-160.70689 z "
           id="path9433" />
        <path
           style="fill:url(#linearGradient9609);fill-opacity:1;stroke:none;stroke-width:0.19999997;stroke-linecap:round;stroke-linejoin:round;stroke-miterlimit:4;stroke-dashoffset:0;stroke-opacity:1"
           d="M -549.59634,-130.08976 C -550.03731,-130.05675 -550.38834,-129.44322 -550.38834,-128.68574 L -550.80204,-124.46777 C -550.80204,-124.32175 -550.78804,-124.18076 -550.76393,-124.04855 C -550.76369,-124.04719 -550.76419,-124.04594 -550.76393,-124.04459 C -550.76416,-124.04339 -550.76371,-124.04185 -550.76393,-124.04063 C -550.78804,-123.90843 -550.80204,-123.7694 -550.80204,-123.62338 L -550.38834,-119.40542 C -550.38834,-118.62664 -550.01943,-117.99943 -549.56096,-117.99943 L -546.2487,-117.99943 C -545.79023,-117.99943 -545.42132,-118.62664 -545.42132,-119.40542 L -545.00762,-123.62338 C -545.00762,-123.7694 -545.02162,-123.90843 -545.04573,-124.04063 C -545.04547,-124.04199 -545.04598,-124.04323 -545.04573,-124.04459 C -545.04595,-124.0458 -545.0455,-124.04734 -545.04573,-124.04855 C -545.02162,-124.18076 -545.00762,-124.32175 -545.00762,-124.46777 L -545.42132,-128.68574 C -545.42132,-129.46451 -545.79023,-130.08976 -546.2487,-130.08976 L -549.56096,-130.08976 C -549.57349,-130.08976 -549.58394,-130.09069 -549.59634,-130.08976 z "
           id="path9435" />
      </g>
      <rect
         transform="matrix(2.385881e-2,0.999715,0.999715,-2.385881e-2,0,0)"
         ry="0.76683247"
         rx="0.76683044"
         y="-133.89973"
         x="17.230406"
         height="3.4474573"
         width="0.39035851"
         id="rect9437"
         style="fill:url(#linearGradient9611);fill-opacity:1;stroke:none;stroke-width:2.50000048;stroke-linecap:round;stroke-linejoin:round;stroke-miterlimit:4;stroke-dasharray:none;stroke-dashoffset:0;stroke-opacity:1" />
      <path
         id="path9439"
         d="M -135.55739,21.465091 C -135.41154,21.485666 -134.76214,21.442172 -134.60541,21.445913 C -133.51261,21.471992 -132.61521,21.053661 -132.60229,20.512135 C -132.58936,19.970609 -133.46578,19.509942 -134.55858,19.483863 C -134.71531,19.480123 -134.86797,19.48562 -135.01463,19.499213 L -135.55739,21.465091 z "
         style="fill:url(#linearGradient9613);fill-opacity:1;stroke:none;stroke-width:2.5;stroke-linecap:round;stroke-linejoin:round;stroke-miterlimit:4;stroke-dasharray:none;stroke-dashoffset:0;stroke-opacity:1"
         sodipodi:nodetypes="cssscc" />
      <path
         id="path9441"
         d="M -131,20.339784 C -130.99667,20.27431 -130.90698,20.220113 -130.79471,20.217434 L -130.17102,20.141199 C -130.14938,20.140683 -130.12843,20.142259 -130.10875,20.145365 C -130.10855,20.145396 -130.10836,20.145318 -130.10816,20.14535 C -130.10799,20.145313 -130.10776,20.145374 -130.10758,20.145337 C -130.08807,20.141296 -130.06751,20.138729 -130.04587,20.138213 L -129.41926,20.184608 C -129.30383,20.181853 -129.20957,20.234312 -129.20794,20.302262 L -129.19623,20.793179 C -129.19461,20.861129 -129.28626,20.918025 -129.40169,20.920779 L -130.02537,20.997013 C -130.04702,20.997531 -130.06767,20.995947 -130.08735,20.992841 C -130.08755,20.992884 -130.08774,20.992813 -130.08794,20.992856 C -130.08812,20.992826 -130.08834,20.992899 -130.08852,20.992869 C -130.10803,20.996911 -130.12888,20.999485 -130.15052,21 L -130.77714,20.953604 C -130.89256,20.956359 -130.98654,20.903895 -130.98816,20.835944 L -130.99987,20.345028 C -130.99992,20.343172 -131.00009,20.341625 -131,20.339784 z "
         style="fill:url(#linearGradient9615);fill-opacity:1;stroke:none;stroke-width:0.19999997;stroke-linecap:round;stroke-linejoin:round;stroke-miterlimit:4;stroke-dashoffset:0;stroke-opacity:1" />
      <rect
         transform="matrix(3.379383e-2,0.999429,0.999858,-1.684214e-2,0,0)"
         ry="0.76679748"
         rx="0.76673871"
         y="-131.925"
         x="14.778709"
         height="3.4469581"
         width="0.27559662"
         id="rect9443"
         style="fill:url(#linearGradient9617);fill-opacity:1;stroke:none;stroke-width:2.50000048;stroke-linecap:round;stroke-linejoin:round;stroke-miterlimit:4;stroke-dasharray:none;stroke-dashoffset:0;stroke-opacity:1" />
      <path
         id="path9445"
         d="M -133.12739,17.775853 C -133.27564,17.842791 -131.6957,17.823622 -131.53897,17.826262 C -130.44617,17.84467 -129.54877,17.549407 -129.53585,17.167195 C -129.52292,16.784981 -130.39934,16.459839 -131.49214,16.441432 C -131.64887,16.438792 -131.80153,16.442671 -131.94819,16.452266 L -133.12739,17.775853 z "
         style="fill:url(#linearGradient9619);fill-opacity:1;stroke:none;stroke-width:2.5;stroke-linecap:round;stroke-linejoin:round;stroke-miterlimit:4;stroke-dasharray:none;stroke-dashoffset:0;stroke-opacity:1"
         sodipodi:nodetypes="cssscc" />
      <path
         id="path9447"
         d="M -128.59544,16.899862 C -128.59211,16.85365 -128.50242,16.815398 -128.39015,16.813506 L -127.76646,16.759699 C -127.74482,16.759334 -127.72387,16.760447 -127.70419,16.76264 C -127.70399,16.762661 -127.70381,16.762606 -127.7036,16.762629 C -127.70343,16.762603 -127.7032,16.762646 -127.70302,16.762619 C -127.68351,16.759767 -127.66295,16.757955 -127.64131,16.75759 L -127.0147,16.790338 C -126.89927,16.788393 -126.80501,16.82542 -126.80338,16.873378 L -126.79167,17.219872 C -126.79005,17.267832 -126.8817,17.307988 -126.99713,17.309933 L -127.62081,17.36374 C -127.64246,17.364105 -127.66311,17.362987 -127.68279,17.360794 C -127.68299,17.360825 -127.68318,17.360775 -127.68338,17.360805 C -127.68356,17.360784 -127.68379,17.360836 -127.68396,17.360814 C -127.70347,17.363666 -127.72432,17.365484 -127.74596,17.365848 L -128.37258,17.3331 C -128.488,17.335046 -128.58198,17.298015 -128.5836,17.250055 L -128.59531,16.903563 C -128.59536,16.902252 -128.59553,16.901161 -128.59544,16.899862 z "
         style="fill:url(#linearGradient9621);fill-opacity:1;stroke:none;stroke-width:0.19999997;stroke-linecap:round;stroke-linejoin:round;stroke-miterlimit:4;stroke-dashoffset:0;stroke-opacity:1" />
    </g>
  </g>
</svg>
