<?xml version="1.0" encoding="UTF-8" standalone="no"?>
<!-- Created with Inkscape (http://www.inkscape.org/) -->
<svg
   xmlns:dc="http://purl.org/dc/elements/1.1/"
   xmlns:cc="http://web.resource.org/cc/"
   xmlns:rdf="http://www.w3.org/1999/02/22-rdf-syntax-ns#"
   xmlns:svg="http://www.w3.org/2000/svg"
   xmlns="http://www.w3.org/2000/svg"
   xmlns:xlink="http://www.w3.org/1999/xlink"
   xmlns:sodipodi="http://inkscape.sourceforge.net/DTD/sodipodi-0.dtd"
   xmlns:inkscape="http://www.inkscape.org/namespaces/inkscape"
   width="48px"
   height="48px"
   id="svg1800"
   sodipodi:version="0.32"
   inkscape:version="0.43"
   sodipodi:docbase="/home/laszlo/Software/SVN/svn2/JonoEdit/Instruments/images"
   sodipodi:docname="bassguitar.svg">
  <defs
     id="defs3">
    <linearGradient
       id="linearGradient2929">
      <stop
         id="stop2931"
         offset="0"
         style="stop-color:#8f5902;stop-opacity:1;" />
      <stop
         style="stop-color:#e9b96e;stop-opacity:1;"
         offset="0.30357143"
         id="stop2933" />
      <stop
         style="stop-color:#edd8b3;stop-opacity:1;"
         offset="0.60000002"
         id="stop2935" />
      <stop
         id="stop2937"
         offset="1"
         style="stop-color:#e9b96e;stop-opacity:1;" />
    </linearGradient>
    <linearGradient
       id="linearGradient3641">
      <stop
         id="stop3643"
         offset="0"
         style="stop-color:#000000;stop-opacity:1;" />
      <stop
         style="stop-color:#ffffff;stop-opacity:1;"
         offset="0.35714287"
         id="stop3645" />
      <stop
         id="stop3647"
         offset="1.0000000"
         style="stop-color:#000000;stop-opacity:1.0000000;" />
    </linearGradient>
    <linearGradient
       y2="10.4377"
       x2="24.6035"
       y1="9.3433"
       x1="24.6035"
       gradientUnits="userSpaceOnUse"
       id="aigrd6">
      <stop
         id="stop13035"
         style="stop-color:#F0F0F0"
         offset="0" />
      <stop
         id="stop13037"
         style="stop-color:#686868"
         offset="1" />
    </linearGradient>
    <linearGradient
       id="linearGradient6711">
      <stop
         style="stop-color:#5b8ccb;stop-opacity:1.0000000;"
         offset="0.0000000"
         id="stop6713" />
      <stop
         style="stop-color:#3465a4;stop-opacity:1.0000000;"
         offset="1.0000000"
         id="stop6715" />
    </linearGradient>
    <linearGradient
       id="linearGradient2571">
      <stop
         id="stop2573"
         offset="0"
         style="stop-color:#e9b96e;stop-opacity:1;" />
      <stop
         style="stop-color:#c17d11;stop-opacity:1;"
         offset="0.5"
         id="stop2579" />
      <stop
         id="stop2575"
         offset="1"
         style="stop-color:#8f5902;stop-opacity:1;" />
    </linearGradient>
    <linearGradient
       id="linearGradient2600">
      <stop
         style="stop-color:#000000;stop-opacity:1.0000000;"
         offset="0.0000000"
         id="stop2602" />
      <stop
         id="stop2380"
         offset="0.50000000"
         style="stop-color:#424242;stop-opacity:1.0000000;" />
      <stop
         style="stop-color:#7c7c7c;stop-opacity:1.0000000;"
         offset="1.0000000"
         id="stop2604" />
    </linearGradient>
    <linearGradient
       inkscape:collect="always"
       xlink:href="#linearGradient6711"
       id="linearGradient3205"
       gradientUnits="userSpaceOnUse"
       gradientTransform="matrix(0.411233,0.436471,-0.436471,0.411233,-73.98085,132.8535)"
       x1="-32.600746"
       y1="-220.40154"
       x2="-12.590389"
       y2="-206.65727" />
    <linearGradient
       inkscape:collect="always"
       xlink:href="#linearGradient3641"
       id="linearGradient3207"
       gradientUnits="userSpaceOnUse"
       gradientTransform="matrix(5.277313e-2,-3.237381e-2,3.237381e-2,5.277313e-2,49.74498,17.83364)"
       x1="-76"
       y1="-273.05435"
       x2="-71.599426"
       y2="-303.83734" />
    <linearGradient
       inkscape:collect="always"
       xlink:href="#linearGradient3641"
       id="linearGradient3211"
       gradientUnits="userSpaceOnUse"
       gradientTransform="matrix(5.277313e-2,-3.237381e-2,3.237381e-2,5.277313e-2,51.69434,16.6305)"
       x1="-47.354393"
       y1="-302.2489"
       x2="-50.799236"
       y2="-273.05435" />
    <linearGradient
       inkscape:collect="always"
       xlink:href="#linearGradient3641"
       id="linearGradient3215"
       gradientUnits="userSpaceOnUse"
       gradientTransform="matrix(5.282227e-2,-3.229359e-2,3.229359e-2,5.282227e-2,53.63217,15.55856)"
       x1="-53.30611"
       y1="-292.60342"
       x2="-50.799236"
       y2="-273.05435" />
    <linearGradient
       inkscape:collect="always"
       xlink:href="#linearGradient3641"
       id="linearGradient3219"
       gradientUnits="userSpaceOnUse"
       gradientTransform="matrix(5.492621e-2,-2.856913e-2,2.856913e-2,5.492621e-2,54.70064,15.37084)"
       x1="-54.712296"
       y1="-292.79132"
       x2="-50.799236"
       y2="-273.05435" />
    <linearGradient
       inkscape:collect="always"
       xlink:href="#linearGradient2929"
       id="linearGradient3223"
       gradientUnits="userSpaceOnUse"
       gradientTransform="matrix(0.377697,0.400876,-0.400876,0.377697,-67.04721,124.7171)"
       x1="-13.67376"
       y1="-304.28934"
       x2="-29.964012"
       y2="-303.53741" />
    <linearGradient
       inkscape:collect="always"
       xlink:href="#linearGradient2571"
       id="linearGradient3225"
       gradientUnits="userSpaceOnUse"
       gradientTransform="matrix(0.377697,0.400876,-0.400876,0.377697,-67.04721,124.7171)"
       x1="-34.262367"
       y1="-295.10501"
       x2="-15.794658"
       y2="-283.35294" />
    <linearGradient
       inkscape:collect="always"
       xlink:href="#linearGradient2600"
       id="linearGradient4118"
       x1="21.5"
       y1="38"
       x2="19"
       y2="29.398603"
       gradientUnits="userSpaceOnUse"
       gradientTransform="matrix(1.077384,2.657023e-18,-2.657023e-18,1.077384,9.866015,-26.18377)" />
    <linearGradient
       inkscape:collect="always"
       xlink:href="#linearGradient2600"
       id="linearGradient4122"
       gradientUnits="userSpaceOnUse"
       gradientTransform="matrix(1.077384,2.657023e-18,-2.657023e-18,1.077384,9.866015,-23.5174)"
       x1="21.5"
       y1="38"
       x2="19"
       y2="29.398603" />
    <linearGradient
       inkscape:collect="always"
       xlink:href="#aigrd6"
       id="linearGradient4132"
       x1="21.176777"
       y1="35.994797"
       x2="21.176777"
       y2="41.298096"
       gradientUnits="userSpaceOnUse"
       gradientTransform="matrix(1.077384,2.657023e-18,-2.657023e-18,1.077384,10.24692,-21.61843)" />
  </defs>
  <sodipodi:namedview
     fill="#edd400"
     id="base"
     pagecolor="#ffffff"
     bordercolor="#666666"
     borderopacity="0.20392157"
     inkscape:pageopacity="0.0"
     inkscape:pageshadow="2"
     inkscape:zoom="1"
     inkscape:cx="9.9593682"
     inkscape:cy="-3.1913571"
     inkscape:current-layer="layer1"
     showgrid="true"
     inkscape:grid-bbox="true"
     inkscape:document-units="px"
     inkscape:showpageshadow="false"
     inkscape:window-width="1280"
     inkscape:window-height="952"
     inkscape:window-x="0"
     inkscape:window-y="0"
     inkscape:grid-points="true"
     guidecolor="#0000ff"
     guideopacity="0.20392157"
     gridempcolor="#3f3fff"
     gridempopacity="0.16470588"
     gridcolor="#3f3f37"
     gridopacity="0.08235294" />
  <metadata
     id="metadata4">
    <rdf:RDF>
      <cc:Work
         rdf:about="">
        <dc:format>image/svg+xml</dc:format>
        <dc:type
           rdf:resource="http://purl.org/dc/dcmitype/StillImage" />
        <cc:license
           rdf:resource="http://creativecommons.org/licenses/by-sa/2.0/" />
        <dc:title>Emblem Photos</dc:title>
        <dc:creator>
          <cc:Agent>
            <dc:title>Jakub Steiner</dc:title>
          </cc:Agent>
        </dc:creator>
        <dc:subject>
          <rdf:Bag>
            <rdf:li>emblem</rdf:li>
            <rdf:li>photos</rdf:li>
            <rdf:li>pictures</rdf:li>
            <rdf:li>raw</rdf:li>
            <rdf:li>jpeg</rdf:li>
          </rdf:Bag>
        </dc:subject>
      </cc:Work>
      <cc:License
         rdf:about="http://creativecommons.org/licenses/by-sa/2.0/">
        <cc:permits
           rdf:resource="http://web.resource.org/cc/Reproduction" />
        <cc:permits
           rdf:resource="http://web.resource.org/cc/Distribution" />
        <cc:requires
           rdf:resource="http://web.resource.org/cc/Notice" />
        <cc:requires
           rdf:resource="http://web.resource.org/cc/Attribution" />
        <cc:permits
           rdf:resource="http://web.resource.org/cc/DerivativeWorks" />
        <cc:requires
           rdf:resource="http://web.resource.org/cc/ShareAlike" />
      </cc:License>
    </rdf:RDF>
  </metadata>
  <g
     id="layer1"
     inkscape:label="Layer 1"
     inkscape:groupmode="layer">
    <text
       style="fill:#a7a7a7;fill-opacity:1"
       y="22.580748"
       x="-15.746811"
       id="text1529">
      <tspan
         style="font-size:1.18620813px"
         id="tspan1531"
         font-size="8"
         y="22.580748"
         x="-15.746811" />
    </text>
    <text
       style="fill:#a7a7a7;fill-opacity:1"
       y="27.029028"
       x="-15.746811"
       id="text1553">
      <tspan
         style="font-size:1.18620813px"
         id="tspan1555"
         font-size="8"
         y="27.029028"
         x="-15.746811" />
    </text>
    <path
       style="fill:url(#linearGradient3205);fill-opacity:1;fill-rule:evenodd;stroke:#204a87;stroke-width:0.99999845px;stroke-linecap:butt;stroke-linejoin:miter;stroke-opacity:1"
       d="M 4.0076192,42.478772 C 5.2536966,43.915485 6.6393762,45.294956 8.3533308,46.216679 C 10.023507,47.114857 11.26698,47.157882 13.028338,45.931625 C 14.713655,44.75831 15.918833,43.372385 16.299235,41.532833 C 16.595816,40.098629 16.177992,38.870786 17.013492,38.057446 C 18.013904,37.08357 19.388155,36.858685 20.566249,36.244712 C 21.88256,35.70595 21.530844,34.179571 20.599776,33.854391 C 20.188539,33.417919 19.290359,35.088098 17.32652,33.779345 C 16.338389,32.765231 16.620489,31.299748 18,30 C 18.802454,29.182358 18.953868,26.860539 18.283778,26.149329 C 17.596387,26.572235 16.818451,26.706 16.552693,25.522362 C 16.356752,24.287969 16.71455,21.860321 19.845241,20.081428 C 19.212284,18.960579 17.43235,19.124202 16.43271,20.000007 C 13.734958,22.195848 13.150424,24.596824 11.458203,26.847999 C 10.573822,27.821044 9.345295,28.362638 8.038155,28.561931 C 5.8657009,28.89315 3.4440631,29.488657 1.9975977,31.355208 C 0.52315232,33.257869 0.2746583,35.853906 1.1856809,38.031957 C 1.8674997,39.662013 2.8559956,41.150967 4.0076192,42.478772 z "
       id="path3139"
       sodipodi:nodetypes="csssscccccccccssss" />
    <path
       style="opacity:0.83625734;fill:url(#linearGradient3207);fill-opacity:1;stroke:#000000;stroke-width:0.2;stroke-linecap:round;stroke-linejoin:round;stroke-miterlimit:4;stroke-dasharray:none;stroke-dashoffset:0;stroke-opacity:1"
       d="M 37.10067,4.8169019 C 36.954194,4.9150598 36.870348,5.0765635 36.861018,5.247636 L 36.659814,5.371069 C 36.658902,5.3716249 36.657395,5.3724916 36.65652,5.3730867 C 36.648409,5.3789487 36.641169,5.3881062 36.636842,5.3965067 C 36.636405,5.3974099 36.634946,5.3992703 36.634558,5.4001787 C 36.634372,5.4006412 36.634086,5.4023803 36.633917,5.4028447 C 36.632632,5.4065868 36.631282,5.4122239 36.630731,5.4161487 C 36.630673,5.4166371 36.630136,5.4183131 36.630087,5.4188116 C 36.630026,5.4197982 36.630486,5.4221252 36.630461,5.4231206 C 36.630515,5.4325722 36.632822,5.4440078 36.637395,5.4529149 C 36.637903,5.4538462 36.638858,5.4553006 36.63942,5.4562106 L 36.963153,5.9839439 C 36.963717,5.9848569 36.964577,5.9863665 36.965177,5.9872395 C 36.971038,5.995361 36.980201,6.0025885 36.988602,6.0069162 C 36.989498,6.0073499 36.991358,6.0088198 36.992277,6.0091985 C 36.992727,6.0093942 36.994468,6.0096708 36.994939,6.0098403 C 36.998676,6.011136 37.004314,6.0124859 37.008236,6.013034 C 37.00873,6.0130869 37.010406,6.0136254 37.010896,6.0136742 C 37.011889,6.0137381 37.014219,6.0132732 37.015212,6.0132905 C 37.024669,6.0132413 37.036105,6.0109401 37.045009,6.0063608 C 37.045931,6.0058616 37.047384,6.0049064 37.048302,6.0043408 L 37.282482,5.8606832 C 37.390445,5.8952237 37.506548,5.8969744 37.615327,5.8630497 L 37.814625,6.1879321 C 37.815188,6.1888452 37.81605,6.1903563 37.816641,6.1912351 C 37.82251,6.1993501 37.831657,6.2065916 37.840066,6.2109134 C 37.840963,6.2113472 37.842828,6.2128081 37.843741,6.2131958 C 37.844199,6.2133824 37.845933,6.213668 37.846402,6.213836 C 37.850147,6.2151242 37.855786,6.2164743 37.859707,6.2170223 C 37.860193,6.2170825 37.86187,6.2176218 37.862368,6.2176625 C 37.86336,6.2177263 37.865683,6.2172688 37.866676,6.2172862 C 37.876125,6.2172444 37.887568,6.2149357 37.896472,6.2103565 C 37.897402,6.2098507 37.898856,6.2088955 37.899766,6.2083381 L 37.998714,6.1476386 C 37.999632,6.1470729 38.001143,6.1462109 38.002016,6.1456128 C 38.005434,6.1431445 38.009786,6.1398771 38.012548,6.1368847 C 38.014558,6.1345888 38.017146,6.1310501 38.018774,6.1285201 C 38.020857,6.1251075 38.023248,6.1195691 38.024621,6.1158579 C 38.024775,6.1153921 38.025106,6.1136696 38.025253,6.1131976 C 38.026088,6.1103446 38.027394,6.1054942 38.027807,6.1025538 C 38.027862,6.1020624 38.028399,6.1003863 38.028447,6.0998863 C 38.02851,6.0989012 38.028052,6.0965775 38.028074,6.0955788 C 38.02806,6.0945899 38.027752,6.0922676 38.027699,6.0912691 C 38.027468,6.0882754 38.026618,6.0839628 38.025932,6.0810043 C 38.025436,6.0790323 38.024244,6.0753316 38.023534,6.0733997 C 38.022781,6.0714696 38.022107,6.0676593 38.02114,6.0657845 C 38.020633,6.0648541 38.019679,6.0634011 38.019115,6.0624888 L 37.821843,5.7409021 C 37.909848,5.6573869 37.965797,5.5483317 37.985023,5.4297101 L 38.26208,5.259747 C 38.262992,5.2591903 38.26451,5.2583194 38.265383,5.2577211 C 38.273494,5.2518615 38.280729,5.2427129 38.28506,5.234301 C 38.285493,5.23341 38.286953,5.2315496 38.287346,5.2306315 C 38.287532,5.2301691 38.287807,5.228435 38.28798,5.2279737 C 38.289272,5.2242234 38.290623,5.2185871 38.291166,5.2146697 C 38.291228,5.2141708 38.291766,5.2124948 38.291807,5.2120036 C 38.291878,5.2110111 38.291411,5.2086932 38.291433,5.2076947 C 38.291381,5.1982454 38.289083,5.1868039 38.284506,5.177893 C 38.283992,5.1769699 38.283038,5.175517 38.282482,5.1745973 L 37.958741,4.6468714 C 37.958187,4.645954 37.957317,4.6444488 37.956724,4.6435684 C 37.950859,4.6354573 37.941702,4.6282216 37.933301,4.6238916 C 37.932406,4.6234611 37.930536,4.6219954 37.929623,4.6216077 C 37.929167,4.6214211 37.927433,4.621137 37.926968,4.6209723 C 37.923221,4.6196825 37.917584,4.618334 37.913661,4.6177843 C 37.913172,4.617721 37.91149,4.6171931 37.911001,4.6171441 C 37.91001,4.6170819 37.907686,4.6175387 37.906689,4.6175173 C 37.897236,4.6175705 37.8858,4.6198709 37.876893,4.624447 C 37.875967,4.6249568 37.87451,4.6259088 37.873598,4.6264654 L 37.629524,4.7761956 C 37.466438,4.7041863 37.276522,4.7090267 37.118812,4.8057725 C 37.11266,4.8095488 37.106607,4.8129271 37.10067,4.8169019 z "
       id="path3141" />
    <path
       style="opacity:0.83625734;fill:url(#linearGradient3211);fill-opacity:1;stroke:#000000;stroke-width:0.2;stroke-linecap:round;stroke-linejoin:round;stroke-miterlimit:4;stroke-dasharray:none;stroke-dashoffset:0;stroke-opacity:1"
       d="M 39.050067,3.6137394 C 38.903593,3.711898 38.819752,3.8733929 38.810414,4.0444727 L 38.609218,4.1678983 C 38.608308,4.1684558 38.606798,4.1693209 38.605917,4.1699249 C 38.597806,4.1757869 38.590574,4.1849362 38.586238,4.1933443 C 38.585809,4.1942391 38.58435,4.1960996 38.583955,4.1970162 C 38.583778,4.197472 38.583492,4.1992112 38.583322,4.1996756 C 38.582029,4.2034243 38.580679,4.2090622 38.580135,4.212978 C 38.580078,4.2134671 38.579533,4.2151513 38.579493,4.2156424 C 38.579429,4.2166276 38.579892,4.218956 38.579867,4.2199514 C 38.57992,4.2294023 38.582219,4.2408453 38.586791,4.2497516 C 38.587306,4.2506754 38.588263,4.2521306 38.588817,4.253048 L 38.912558,4.7807732 C 38.913121,4.7816863 38.913983,4.7831973 38.914575,4.7840778 C 38.920444,4.792192 38.929597,4.7994253 38.937999,4.8037545 C 38.938896,4.8041882 38.940761,4.8056492 38.941674,4.8060368 C 38.942131,4.8062235 38.943865,4.8065091 38.944335,4.806677 C 38.94808,4.8079653 38.953719,4.8093153 38.95764,4.8098634 C 38.958133,4.8099161 38.959811,4.8104546 38.960301,4.8105035 C 38.961293,4.8105674 38.963615,4.8101099 38.96461,4.8101288 C 38.974065,4.810078 38.985501,4.8077768 38.994405,4.8031976 C 38.995335,4.8026925 38.99679,4.8017374 38.997699,4.8011791 L 39.231879,4.6575215 C 39.33984,4.6920604 39.455945,4.6938127 39.564724,4.6598872 L 39.764029,4.9847631 C 39.764586,4.9856835 39.765446,4.987193 39.766046,4.9880661 C 39.771907,4.9961877 39.781063,5.0034226 39.789471,5.0077428 C 39.790359,5.0081839 39.792232,5.0096375 39.793139,5.0100341 C 39.793603,5.0102134 39.795337,5.0104974 39.795806,5.0106653 C 39.799551,5.0119536 39.805182,5.0133109 39.809105,5.0138606 C 39.809598,5.0139134 39.811275,5.0144519 39.811764,5.0144992 C 39.812756,5.0145631 39.815079,5.0141055 39.816073,5.0141245 C 39.825528,5.0140737 39.836972,5.0117651 39.845869,5.0071949 C 39.846807,5.0066808 39.84826,5.0057256 39.849171,5.0051674 L 39.94812,4.9444695 C 39.949038,4.9439038 39.950549,4.9430419 39.95142,4.942442 C 39.954837,4.9399739 39.959183,4.9367154 39.961952,4.9337157 C 39.963954,4.9314255 39.966549,4.9278794 39.968171,4.9253584 C 39.970262,4.9219383 39.972645,4.9164074 39.974025,4.9126872 C 39.974179,4.9122231 39.97451,4.9104997 39.974658,4.9100286 C 39.975492,4.907174 39.9768,4.9023251 39.97721,4.8993832 C 39.977267,4.8988933 39.977803,4.8972157 39.977844,4.8967245 C 39.977915,4.895732 39.977456,4.8934068 39.97747,4.8924156 C 39.977465,4.8914209 39.977148,4.8891043 39.977096,4.8881066 C 39.976866,4.8851137 39.976014,4.8808004 39.975338,4.8778352 C 39.974832,4.8758691 39.973649,4.8721624 39.972947,4.8702233 C 39.972186,4.8683004 39.971503,4.864496 39.970538,4.8626229 C 39.970031,4.8616924 39.969077,4.8602395 39.968521,4.8593198 L 39.771239,4.5377389 C 39.859246,4.4542253 39.915201,4.3451618 39.934419,4.2265475 L 40.211486,4.0565779 C 40.212395,4.0560196 40.213908,4.0551577 40.21478,4.0545594 C 40.222891,4.048699 40.230132,4.0395423 40.234465,4.0311319 C 40.234889,4.0302467 40.236356,4.0283789 40.236751,4.0274624 C 40.23693,4.0270074 40.237212,4.025265 40.237383,4.0248029 C 40.23867,4.0210617 40.240019,4.0154238 40.240569,4.011499 C 40.240626,4.0110091 40.241162,4.0093315 40.24121,4.008833 C 40.241274,4.0078478 40.240817,4.0055241 40.240836,4.004524 C 40.240786,3.9950754 40.238488,3.9836333 40.233904,3.9747312 C 40.233398,3.9738008 40.232443,3.9723479 40.23188,3.9714356 L 39.908145,3.4437023 C 39.907584,3.4427923 39.90672,3.4412781 39.906121,3.4404066 C 39.900262,3.4322867 39.891108,3.4250525 39.882704,3.420721 C 39.88181,3.4202903 39.879942,3.4188263 39.879021,3.4184459 C 39.878572,3.418252 39.87683,3.4179745 39.876371,3.4178016 C 39.872626,3.4165133 39.866987,3.4151634 39.863067,3.4146152 C 39.862568,3.4145577 39.860896,3.4140239 39.860406,3.413975 C 39.859413,3.4139112 39.857083,3.4143761 39.856093,3.4143466 C 39.84664,3.4143998 39.835197,3.4167092 39.82629,3.4212853 C 39.82537,3.4217861 39.823915,3.4227389 39.822997,3.4233038 L 39.578921,3.573034 C 39.415834,3.501023 39.225928,3.5058576 39.068208,3.6026092 C 39.062065,3.6063796 39.056004,3.6097653 39.050067,3.6137394 z "
       id="path3143" />
    <path
       style="opacity:0.83625734;fill:url(#linearGradient3215);fill-opacity:1;stroke:#000000;stroke-width:0.2;stroke-linecap:round;stroke-linejoin:round;stroke-miterlimit:4;stroke-dasharray:none;stroke-dashoffset:0;stroke-opacity:1"
       d="M 41.00768,2.522566 C 40.861056,2.620503 40.776967,2.7818762 40.767375,2.9529371 L 40.565984,3.0760618 C 40.565073,3.0766185 40.563561,3.0774805 40.562686,3.0780764 C 40.554559,3.0839348 40.547313,3.0930716 40.542969,3.1014701 C 40.542538,3.1023635 40.541077,3.1042216 40.540682,3.1051374 C 40.540496,3.1055998 40.540208,3.1073366 40.540039,3.107801 C 40.538749,3.1115392 40.537386,3.1171775 40.536839,3.1210909 C 40.536774,3.1215874 40.536236,3.1232618 40.536187,3.1237604 C 40.536124,3.1247455 40.53658,3.1270693 40.536557,3.1280654 C 40.536595,3.1375174 40.538879,3.1489599 40.543443,3.1578721 C 40.543942,3.1588099 40.544899,3.1602652 40.54546,3.1611752 L 40.868403,3.6893886 C 40.868958,3.6903075 40.869818,3.6918187 40.87041,3.6926975 C 40.876262,3.7008265 40.885403,3.7080762 40.893806,3.7124077 C 40.894696,3.7128504 40.896563,3.7143129 40.897468,3.7147079 C 40.897933,3.7148872 40.899668,3.7151736 40.90013,3.715349 C 40.903878,3.7166403 40.90951,3.7180001 40.913434,3.7185513 C 40.913922,3.7186131 40.9156,3.7191523 40.91609,3.7192011 C 40.917082,3.719265 40.919414,3.7188016 40.920403,3.7188295 C 40.929858,3.718794 40.941296,3.716512 40.95021,3.7119422 C 40.951142,3.7114387 40.952595,3.7104842 40.953507,3.7099284 L 41.187904,3.5666262 C 41.295821,3.6013224 41.411918,3.6032551 41.520748,3.5694943 L 41.71955,3.8946836 C 41.720114,3.8955958 41.720974,3.8971062 41.721567,3.8979867 C 41.727418,3.9061131 41.736566,3.9133563 41.744963,3.9176969 C 41.745852,3.9181379 41.747725,3.9195914 41.748631,3.9199873 C 41.74909,3.9201755 41.750822,3.9204596 41.751286,3.9206364 C 41.755032,3.9219262 41.760666,3.9232875 41.764591,3.9238396 C 41.765077,3.9238998 41.766756,3.9244399 41.767253,3.9244814 C 41.768238,3.9245526 41.770563,3.9240974 41.771558,3.9241163 C 41.781013,3.9240815 41.792458,3.9217905 41.801364,3.9172297 C 41.802296,3.9167254 41.803751,3.9157718 41.80467,3.9152078 L 41.903713,3.8546559 C 41.904624,3.8540992 41.90613,3.853247 41.907012,3.8526421 C 41.910425,3.8501852 41.914785,3.8469264 41.917557,3.8439298 C 41.919563,3.8416436 41.922162,3.8381022 41.923794,3.8355762 C 41.925881,3.8321674 41.928278,3.8266361 41.929662,3.8229198 C 41.929818,3.8224573 41.93015,3.8207348 41.930298,3.8202644 C 41.931135,3.8174136 41.932445,3.8125672 41.93286,3.8096292 C 41.932916,3.8091393 41.933461,3.8074552 41.933503,3.8069656 C 41.933567,3.8059804 41.933118,3.8036493 41.933132,3.802659 C 41.933135,3.8016575 41.932828,3.799336 41.932769,3.7983465 C 41.93254,3.7953543 41.931699,3.7910359 41.931031,3.788065 C 41.930528,3.7861012 41.929345,3.7823946 41.928644,3.7804569 C 41.927885,3.7785358 41.927214,3.7747278 41.926254,3.7728457 C 41.925747,3.7719153 41.924803,3.7704565 41.924238,3.7695427 L 41.727446,3.4476654 C 41.815577,3.3642835 41.871693,3.2553117 41.891095,3.1367213 L 42.168416,2.9671775 C 42.169335,2.9666135 42.170848,2.9657524 42.171722,2.9651556 C 42.179844,2.959307 42.187097,2.9501628 42.191439,2.9417619 C 42.191872,2.9408709 42.193342,2.9390054 42.193729,2.938097 C 42.193908,2.9376428 42.194192,2.9359013 42.194372,2.9354326 C 42.195661,2.9316953 42.197017,2.9260643 42.197578,2.9221346 C 42.197634,2.9216446 42.198173,2.9199695 42.198222,2.9194717 C 42.198293,2.9184791 42.197829,2.9161636 42.19785,2.9151651 C 42.197815,2.905717 42.195531,2.8942745 42.190966,2.88536 C 42.190457,2.884428 42.189504,2.8829766 42.188949,2.882057 L 41.866014,2.3538361 C 41.865453,2.352926 41.864589,2.3514126 41.863989,2.3505396 C 41.858148,2.342408 41.849006,2.3351567 41.840609,2.3308162 C 41.839706,2.3303914 41.837846,2.3289192 41.836932,2.3285315 C 41.836473,2.3283433 41.83474,2.3280577 41.834273,2.327893 C 41.830533,2.3265942 41.8249,2.3252344 41.820976,2.3246831 C 41.820486,2.324619 41.818811,2.3240822 41.81832,2.3240332 C 41.817321,2.3239768 41.814997,2.3244327 41.814,2.3244114 C 41.804545,2.3244478 41.793107,2.3267307 41.784199,2.3312892 C 41.78327,2.3317958 41.781812,2.332747 41.780901,2.3333037 L 41.536595,2.4826635 C 41.373617,2.4104073 41.183695,2.4149586 41.025838,2.5114683 C 41.019693,2.5152212 41.013624,2.5185999 41.00768,2.522566 z "
       id="path3145" />
    <path
       style="opacity:0.83625734;fill:url(#linearGradient3219);fill-opacity:1;stroke:#000000;stroke-width:0.2;stroke-linecap:round;stroke-linejoin:round;stroke-miterlimit:4;stroke-dasharray:none;stroke-dashoffset:0;stroke-opacity:1"
       d="M 43.0065,1.4941534 C 42.853469,1.5817248 42.758432,1.7369125 42.737052,1.9069 L 42.527648,2.0158181 C 42.526695,2.0163148 42.525128,2.0170716 42.524212,2.0176067 C 42.515702,2.0228874 42.507845,2.0315 42.502933,2.0395782 C 42.502442,2.0404393 42.500845,2.0422011 42.50039,2.0430847 C 42.500174,2.0435318 42.499771,2.0452407 42.499565,2.0456972 C 42.49802,2.0493363 42.496273,2.0548663 42.495459,2.0587314 C 42.495359,2.0592224 42.4947,2.0608635 42.494623,2.0613482 C 42.494485,2.0623326 42.494787,2.06468 42.49469,2.0656762 C 42.494074,2.0751095 42.495573,2.0866757 42.499507,2.0958802 C 42.499945,2.0968466 42.500798,2.098365 42.501291,2.0993135 L 42.786983,2.6485709 C 42.787481,2.6495232 42.788233,2.6510913 42.788768,2.6520042 C 42.794039,2.6605221 42.80266,2.6683845 42.810743,2.6732864 C 42.811602,2.6737892 42.813362,2.6753742 42.814237,2.6758324 C 42.814689,2.6760448 42.816401,2.6764479 42.81685,2.6766564 C 42.820506,2.6781965 42.826023,2.6799522 42.829893,2.6807762 C 42.830387,2.6808602 42.832023,2.6815126 42.832505,2.6816002 C 42.83349,2.6817331 42.835844,2.6814358 42.836833,2.681527 C 42.846269,2.6821463 42.857834,2.6806592 42.867044,2.6767178 C 42.868006,2.6762784 42.869527,2.6754259 42.870471,2.674935 L 43.114206,2.5481594 C 43.219464,2.5902296 43.335149,2.6001771 43.446055,2.5740083 L 43.621931,2.9121471 C 43.622428,2.9130987 43.62318,2.9146667 43.623715,2.9155804 C 43.628995,2.9240901 43.637616,2.9319524 43.645691,2.9368626 C 43.646548,2.9373645 43.648317,2.9389429 43.649193,2.9394013 C 43.649646,2.9396144 43.651356,2.9400159 43.651804,2.9402244 C 43.655444,2.9417785 43.660978,2.9435195 43.664849,2.9443451 C 43.665335,2.9444357 43.666971,2.9450888 43.667461,2.9451689 C 43.668438,2.9453092 43.670793,2.9450128 43.67178,2.9451023 C 43.681215,2.9457217 43.69279,2.9442279 43.701999,2.9402866 C 43.702961,2.9398473 43.704474,2.9390013 43.705427,2.9385046 L 43.808415,2.8849365 C 43.809368,2.8844397 43.810928,2.8836928 43.811851,2.8831478 C 43.81543,2.8809298 43.819999,2.8779852 43.822964,2.8751932 C 43.825129,2.8730459 43.827965,2.869693 43.82976,2.867293 C 43.832087,2.8640286 43.834851,2.8586827 43.836492,2.8550671 C 43.836676,2.8546184 43.837132,2.8529186 43.837318,2.8524545 C 43.838341,2.8496765 43.839993,2.8449248 43.840606,2.8420247 C 43.840696,2.8415397 43.841356,2.8398985 43.841431,2.8394129 C 43.841561,2.8384359 43.841269,2.8360836 43.841364,2.835085 C 43.841434,2.8340901 43.84128,2.8317586 43.841291,2.8307651 C 43.841274,2.8277617 43.84073,2.8233981 43.840266,2.820392 C 43.839905,2.8183913 43.83898,2.8146124 43.838415,2.8126308 C 43.83779,2.8106625 43.837381,2.8068189 43.836555,2.8048737 C 43.836118,2.8039079 43.835268,2.8023926 43.834772,2.8014412 L 43.66068,2.4667372 C 43.754355,2.3896467 43.817859,2.2848085 43.845405,2.1678393 L 44.133775,2.0178471 C 44.134728,2.017351 44.136296,2.0165951 44.137204,2.0160658 C 44.145715,2.0107866 44.153581,2.0021683 44.158491,1.9940877 C 44.158985,1.993229 44.160581,1.9914671 44.161029,1.990591 C 44.161244,1.990144 44.161643,1.988431 44.161853,1.9879769 C 44.163399,1.9843395 44.165144,1.9788077 44.165973,1.9749279 C 44.166064,1.9744428 44.166716,1.9728091 44.166799,1.9723154 C 44.166938,1.9713318 44.166637,1.9689868 44.166724,1.9679948 C 44.167344,1.9585654 44.165854,1.9469926 44.161916,1.937785 C 44.161478,1.936817 44.16062,1.9353098 44.160124,1.9343591 L 43.874438,1.3850918 C 43.873944,1.3841435 43.873189,1.3825722 43.872654,1.3816585 C 43.867385,1.3731446 43.858764,1.3652815 43.850687,1.3603697 C 43.849815,1.359885 43.848067,1.3582803 43.847177,1.3578385 C 43.846733,1.3576187 43.845028,1.3572082 43.844576,1.3570103 C 43.840927,1.3554628 43.835393,1.3537218 43.831522,1.3528971 C 43.831034,1.3528032 43.829401,1.3521533 43.828919,1.3520665 C 43.827926,1.3519394 43.82558,1.3522301 43.82459,1.3521373 C 43.815149,1.3515277 43.803581,1.3530133 43.794378,1.3569458 C 43.793418,1.3573882 43.791896,1.3582384 43.79095,1.358727 L 43.536913,1.4908618 C 43.379318,1.4075241 43.189529,1.3989548 43.025385,1.4843304 C 43.018996,1.4876523 43.012713,1.4905976 43.0065,1.4941534 z "
       id="path3147" />
    <path
       style="fill:url(#linearGradient3223);fill-opacity:1;fill-rule:evenodd;stroke:url(#linearGradient3225);stroke-width:0.99999815px;stroke-linecap:butt;stroke-linejoin:miter;stroke-opacity:1"
       d="M 13.684385,30.491706 L 15.572878,32.496091 L 38.646341,10.401309 C 38.646341,10.401309 40.238827,8.878814 41.213622,10.252677 C 41.58517,10.776329 42.638238,7.6576158 43.847993,6.6125678 C 45.057749,5.5675208 44.695897,6.5704274 45.592291,5.725862 C 45.99316,5.3481707 46.794914,4.5927734 45.661819,3.3901423 C 44.528724,2.1875121 44.054272,3.0440748 43.326101,3.3206007 C 41.980594,3.831573 38.184233,5.8949567 37.382478,6.6503541 C 36.580724,7.4057515 36.935243,8.5852036 36.935243,8.5852036 L 13.684385,30.491706 z "
       id="path3149"
       sodipodi:nodetypes="cccszsssscc" />
    <path
       style="fill:none;fill-opacity:0.75;fill-rule:evenodd;stroke:#000000;stroke-width:0.29999992;stroke-linecap:butt;stroke-linejoin:miter;stroke-miterlimit:4;stroke-dasharray:none;stroke-opacity:1"
       d="M 36.841969,8.732711 C 36.922083,8.817741 38.040494,10.004786 38.494579,10.486738"
       id="path3151"
       sodipodi:nodetypes="cs" />
    <path
       style="fill:none;fill-opacity:0.75;fill-rule:evenodd;stroke:#000000;stroke-width:0.29999992;stroke-linecap:butt;stroke-linejoin:miter;stroke-miterlimit:4;stroke-dasharray:none;stroke-opacity:1"
       d="M 34.956775,10.508904 C 35.036888,10.593934 36.155299,11.78098 36.609384,12.26293"
       id="path3153"
       sodipodi:nodetypes="cs" />
    <path
       style="fill:none;fill-opacity:0.75;fill-rule:evenodd;stroke:#000000;stroke-width:0.29999992;stroke-linecap:butt;stroke-linejoin:miter;stroke-miterlimit:4;stroke-dasharray:none;stroke-opacity:1"
       d="M 33.340883,12.031365 C 33.420998,12.116395 34.539408,13.30344 34.993494,13.785391"
       id="path3155"
       sodipodi:nodetypes="cs" />
    <path
       style="fill:none;fill-opacity:0.75;fill-rule:evenodd;stroke:#000000;stroke-width:0.29999992;stroke-linecap:butt;stroke-linejoin:miter;stroke-miterlimit:4;stroke-dasharray:none;stroke-opacity:1"
       d="M 31.725,13.553818 C 31.805115,13.638849 32.923525,14.825893 33.37761,15.307845"
       id="path3157"
       sodipodi:nodetypes="cs" />
    <path
       style="fill:none;fill-opacity:0.75;fill-rule:evenodd;stroke:#000000;stroke-width:0.29999992;stroke-linecap:butt;stroke-linejoin:miter;stroke-miterlimit:4;stroke-dasharray:none;stroke-opacity:1"
       d="M 30.378429,14.822532 C 30.458543,14.907562 31.576954,16.094607 32.031039,16.576558"
       id="path3159"
       sodipodi:nodetypes="cs" />
    <path
       style="fill:none;fill-opacity:0.75;fill-rule:evenodd;stroke:#000000;stroke-width:0.29999992;stroke-linecap:butt;stroke-linejoin:miter;stroke-miterlimit:4;stroke-dasharray:none;stroke-opacity:1"
       d="M 29.031857,16.091245 C 29.111971,16.176276 30.230381,17.363321 30.684467,17.845272"
       id="path3161"
       sodipodi:nodetypes="cs" />
    <path
       style="fill:none;fill-opacity:0.75;fill-rule:evenodd;stroke:#000000;stroke-width:0.29999992;stroke-linecap:butt;stroke-linejoin:miter;stroke-miterlimit:4;stroke-dasharray:none;stroke-opacity:1"
       d="M 27.954597,17.10622 C 28.03471,17.191249 29.153121,18.378294 29.607206,18.860246"
       id="path3163"
       sodipodi:nodetypes="cs" />
    <path
       style="fill:none;fill-opacity:0.75;fill-rule:evenodd;stroke:#000000;stroke-width:0.29999992;stroke-linecap:butt;stroke-linejoin:miter;stroke-miterlimit:4;stroke-dasharray:none;stroke-opacity:1"
       d="M 26.877343,18.121185 C 26.957458,18.206216 28.075868,19.393261 28.529953,19.875212"
       id="path3165"
       sodipodi:nodetypes="cs" />
    <path
       style="fill:none;fill-opacity:0.75;fill-rule:evenodd;stroke:#000000;stroke-width:0.29999992;stroke-linecap:butt;stroke-linejoin:miter;stroke-miterlimit:4;stroke-dasharray:none;stroke-opacity:1"
       d="M 25.800083,19.13616 C 25.880196,19.221189 27.058762,20.47208 27.512847,20.954031"
       id="path3167"
       sodipodi:nodetypes="cs" />
    <path
       style="fill:none;fill-opacity:0.75;fill-rule:evenodd;stroke:#000000;stroke-width:0.29999992;stroke-linecap:butt;stroke-linejoin:miter;stroke-miterlimit:4;stroke-dasharray:none;stroke-opacity:1"
       d="M 24.722822,20.151133 C 24.802936,20.236163 25.981501,21.487054 26.435586,21.969005"
       id="path3169"
       sodipodi:nodetypes="cs" />
    <path
       style="fill:none;fill-opacity:0.75;fill-rule:evenodd;stroke:#000000;stroke-width:0.29999992;stroke-linecap:butt;stroke-linejoin:miter;stroke-miterlimit:4;stroke-dasharray:none;stroke-opacity:1"
       d="M 23.914881,20.91236 C 23.994995,20.99739 25.17356,22.24828 25.627645,22.730232"
       id="path3171"
       sodipodi:nodetypes="cs" />
    <path
       style="fill:none;fill-opacity:0.75;fill-rule:evenodd;stroke:#000000;stroke-width:0.29999992;stroke-linecap:butt;stroke-linejoin:miter;stroke-miterlimit:4;stroke-dasharray:none;stroke-opacity:1"
       d="M 23.10694,21.673587 C 23.187053,21.758617 24.365617,23.009507 24.819703,23.491459"
       id="path3173"
       sodipodi:nodetypes="cs" />
    <path
       style="fill:none;fill-opacity:0.75;fill-rule:evenodd;stroke:#000000;stroke-width:0.29999992;stroke-linecap:butt;stroke-linejoin:miter;stroke-miterlimit:4;stroke-dasharray:none;stroke-opacity:1"
       d="M 22.298998,22.434813 C 22.379112,22.519844 23.557676,23.770734 24.011761,24.252685"
       id="path3175"
       sodipodi:nodetypes="cs" />
    <path
       style="fill:none;fill-opacity:0.75;fill-rule:evenodd;stroke:#000000;stroke-width:0.29999992;stroke-linecap:butt;stroke-linejoin:miter;stroke-miterlimit:4;stroke-dasharray:none;stroke-opacity:1"
       d="M 21.491057,23.19604 C 21.57117,23.28107 22.749734,24.531961 23.203819,25.013912"
       id="path3177"
       sodipodi:nodetypes="cs" />
    <path
       style="fill:none;fill-opacity:0.75;fill-rule:evenodd;stroke:#000000;stroke-width:0.29999992;stroke-linecap:butt;stroke-linejoin:miter;stroke-miterlimit:4;stroke-dasharray:none;stroke-opacity:1"
       d="M 20.683107,23.957274 C 20.76322,24.042304 21.941785,25.293195 22.395871,25.775145"
       id="path3179"
       sodipodi:nodetypes="cs" />
    <path
       style="fill:none;fill-opacity:0.75;fill-rule:evenodd;stroke:#000000;stroke-width:0.29999992;stroke-linecap:butt;stroke-linejoin:miter;stroke-miterlimit:4;stroke-dasharray:none;stroke-opacity:1"
       d="M 19.875165,24.718501 C 19.955279,24.80353 21.133844,26.054422 21.587929,26.536372"
       id="path3181"
       sodipodi:nodetypes="cs" />
    <path
       style="fill:none;fill-opacity:0.75;fill-rule:evenodd;stroke:#000000;stroke-width:0.29999992;stroke-linecap:butt;stroke-linejoin:miter;stroke-miterlimit:4;stroke-dasharray:none;stroke-opacity:1"
       d="M 19.067224,25.479727 C 19.147338,25.564757 18.841325,25.239965 20.779988,27.297599"
       id="path3183"
       sodipodi:nodetypes="cs" />
    <path
       style="fill:none;fill-opacity:0.75;fill-rule:evenodd;stroke:#000000;stroke-width:0.29999992;stroke-linecap:butt;stroke-linejoin:miter;stroke-miterlimit:4;stroke-dasharray:none;stroke-opacity:1"
       d="M 18.528593,25.987214 C 18.608708,26.072244 19.787272,27.323135 20.241357,27.805086"
       id="path3185"
       sodipodi:nodetypes="cs" />
    <path
       style="fill:none;fill-opacity:0.75;fill-rule:evenodd;stroke:#000000;stroke-width:0.29999992;stroke-linecap:butt;stroke-linejoin:miter;stroke-miterlimit:4;stroke-dasharray:none;stroke-opacity:1"
       d="M 17.989964,26.494701 C 18.070077,26.579732 19.248641,27.830622 19.702726,28.312573"
       id="path3187"
       sodipodi:nodetypes="cs" />
    <path
       style="fill:none;fill-opacity:0.75;fill-rule:evenodd;stroke:#000000;stroke-width:0.29999992;stroke-linecap:butt;stroke-linejoin:miter;stroke-miterlimit:4;stroke-dasharray:none;stroke-opacity:1"
       d="M 17.451341,27.00218 C 17.531455,27.087211 18.710019,28.338101 19.164105,28.820052"
       id="path3189"
       sodipodi:nodetypes="cs" />
    <path
       style="fill:none;fill-opacity:0.75;fill-rule:evenodd;stroke:#000000;stroke-width:0.29999992;stroke-linecap:butt;stroke-linejoin:miter;stroke-miterlimit:4;stroke-dasharray:none;stroke-opacity:1"
       d="M 16.91271,27.509668 C 16.992825,27.594697 18.171389,28.845589 18.625474,29.327539"
       id="path3191"
       sodipodi:nodetypes="cs" />
    <path
       style="fill:none;fill-opacity:0.75;fill-rule:evenodd;stroke:#000000;stroke-width:0.29999992;stroke-linecap:butt;stroke-linejoin:miter;stroke-miterlimit:4;stroke-dasharray:none;stroke-opacity:1"
       d="M 16.374081,28.017155 C 16.454194,28.102185 17.632758,29.353075 18.086843,29.835027"
       id="path3193"
       sodipodi:nodetypes="cs" />
    <path
       style="fill:none;fill-opacity:0.75;fill-rule:evenodd;stroke:#000000;stroke-width:0.29999992;stroke-linecap:butt;stroke-linejoin:miter;stroke-miterlimit:4;stroke-dasharray:none;stroke-opacity:1"
       d="M 15.83545,28.524641 C 15.915563,28.609672 17.094128,29.860562 17.548214,30.342513"
       id="path3195"
       sodipodi:nodetypes="cs" />
    <path
       style="fill:none;fill-opacity:0.75;fill-rule:evenodd;stroke:#000000;stroke-width:0.29999992;stroke-linecap:butt;stroke-linejoin:miter;stroke-miterlimit:4;stroke-dasharray:none;stroke-opacity:1"
       d="M 15.29682,29.032128 C 15.376934,29.117158 16.555498,30.368049 17.009583,30.85"
       id="path3197"
       sodipodi:nodetypes="cs" />
    <path
       style="fill:none;fill-opacity:0.75;fill-rule:evenodd;stroke:#000000;stroke-width:0.29999992;stroke-linecap:butt;stroke-linejoin:miter;stroke-miterlimit:4;stroke-dasharray:none;stroke-opacity:1"
       d="M 14.758198,29.539608 C 14.838311,29.624637 16.016875,30.875529 16.47096,31.357479"
       id="path3199"
       sodipodi:nodetypes="cs" />
    <path
       style="fill:none;fill-opacity:0.75;fill-rule:evenodd;stroke:#000000;stroke-width:0.29999992;stroke-linecap:butt;stroke-linejoin:miter;stroke-miterlimit:4;stroke-dasharray:none;stroke-opacity:1"
       d="M 14.219567,30.047095 C 14.29968,30.132125 15.478246,31.383015 15.932331,31.864967"
       id="path3201"
       sodipodi:nodetypes="cs" />
    <path
       sodipodi:type="arc"
       style="opacity:1;fill:#ffffff;fill-opacity:1;stroke:none;stroke-width:0.2;stroke-linecap:round;stroke-linejoin:round;stroke-miterlimit:4;stroke-dasharray:none;stroke-dashoffset:0;stroke-opacity:1"
       id="path3227"
       sodipodi:cx="16.25"
       sodipodi:cy="5.21875"
       sodipodi:rx="0.25000003"
       sodipodi:ry="0.21874996"
       d="M 16.5 5.21875 A 0.25000003 0.21874996 0 1 1  16,5.21875 A 0.25000003 0.21874996 0 1 1  16.5 5.21875 z"
       transform="matrix(0.738818,0.784158,-0.784158,0.738818,25.48676,-2.903247)" />
    <path
       sodipodi:type="arc"
       style="opacity:1;fill:#ffffff;fill-opacity:1;stroke:none;stroke-width:0.2;stroke-linecap:round;stroke-linejoin:round;stroke-miterlimit:4;stroke-dasharray:none;stroke-dashoffset:0;stroke-opacity:1"
       id="path3229"
       sodipodi:cx="16.25"
       sodipodi:cy="5.21875"
       sodipodi:rx="0.25000003"
       sodipodi:ry="0.21874996"
       d="M 16.5 5.21875 A 0.25000003 0.21874996 0 1 1  16,5.21875 A 0.25000003 0.21874996 0 1 1  16.5 5.21875 z"
       transform="matrix(0.738818,0.784158,-0.784158,0.738818,22.61003,-0.192858)" />
    <path
       sodipodi:type="arc"
       style="opacity:1;fill:#ffffff;fill-opacity:1;stroke:none;stroke-width:0.2;stroke-linecap:round;stroke-linejoin:round;stroke-miterlimit:4;stroke-dasharray:none;stroke-dashoffset:0;stroke-opacity:1"
       id="path3231"
       sodipodi:cx="16.25"
       sodipodi:cy="5.21875"
       sodipodi:rx="0.25000003"
       sodipodi:ry="0.21874996"
       d="M 16.5 5.21875 A 0.25000003 0.21874996 0 1 1  16,5.21875 A 0.25000003 0.21874996 0 1 1  16.5 5.21875 z"
       transform="matrix(0.738818,0.784158,-0.784158,0.738818,20.33978,1.946132)" />
    <path
       sodipodi:type="arc"
       style="opacity:1;fill:#ffffff;fill-opacity:1;stroke:none;stroke-width:0.2;stroke-linecap:round;stroke-linejoin:round;stroke-miterlimit:4;stroke-dasharray:none;stroke-dashoffset:0;stroke-opacity:1"
       id="path3233"
       sodipodi:cx="16.25"
       sodipodi:cy="5.21875"
       sodipodi:rx="0.25000003"
       sodipodi:ry="0.21874996"
       d="M 16.5 5.21875 A 0.25000003 0.21874996 0 1 1  16,5.21875 A 0.25000003 0.21874996 0 1 1  16.5 5.21875 z"
       transform="matrix(0.738818,0.784158,-0.784158,0.738818,16.99217,4.633903)" />
    <path
       sodipodi:type="arc"
       style="opacity:1;fill:#ffffff;fill-opacity:1;stroke:none;stroke-width:0.2;stroke-linecap:round;stroke-linejoin:round;stroke-miterlimit:4;stroke-dasharray:none;stroke-dashoffset:0;stroke-opacity:1"
       id="path3235"
       sodipodi:cx="16.25"
       sodipodi:cy="5.21875"
       sodipodi:rx="0.25000003"
       sodipodi:ry="0.21874996"
       d="M 16.5 5.21875 A 0.25000003 0.21874996 0 1 1  16,5.21875 A 0.25000003 0.21874996 0 1 1  16.5 5.21875 z"
       transform="matrix(0.738818,0.784158,-0.784158,0.738818,17.49828,5.171058)" />
    <rect
       style="opacity:0.83625734;fill:url(#linearGradient4118);fill-opacity:1;stroke:none;stroke-width:0.30000001;stroke-linecap:round;stroke-linejoin:round;stroke-miterlimit:4;stroke-dasharray:none;stroke-dashoffset:0;stroke-opacity:1"
       id="rect3237"
       width="5.3869185"
       height="2.1547673"
       x="30.336306"
       y="12.602026"
       rx="0.99999112"
       ry="0.99999249"
       transform="matrix(0.685752,0.727835,-0.727835,0.685752,0,0)" />
    <rect
       style="opacity:0.83625734;fill:url(#linearGradient4122);fill-opacity:1;stroke:none;stroke-width:0.30000001;stroke-linecap:round;stroke-linejoin:round;stroke-miterlimit:4;stroke-dasharray:none;stroke-dashoffset:0;stroke-opacity:1"
       id="rect4120"
       width="5.3869185"
       height="2.1547673"
       x="30.336306"
       y="15.268415"
       rx="0.99999112"
       ry="0.99999249"
       transform="matrix(0.685752,0.727835,-0.727835,0.685752,0,0)" />
    <rect
       style="opacity:0.83625734;fill:url(#linearGradient4132);fill-opacity:1;stroke:none;stroke-width:0.30000001;stroke-linecap:round;stroke-linejoin:round;stroke-miterlimit:4;stroke-dasharray:none;stroke-dashoffset:0;stroke-opacity:1"
       id="rect4124"
       width="6.4643016"
       height="2.5356803"
       x="29.830292"
       y="18.941227"
       rx="0.99999112"
       ry="0.99999249"
       transform="matrix(0.685752,0.727835,-0.727835,0.685752,0,0)" />
    <path
       style="fill:none;fill-opacity:0.75;fill-rule:evenodd;stroke:#000000;stroke-width:0.19999996;stroke-linecap:butt;stroke-linejoin:miter;stroke-miterlimit:4;stroke-dasharray:none;stroke-opacity:1"
       d="M 37.799101,8.593587 L 6.8133163,37.787784"
       id="path4134" />
    <path
       style="fill:none;fill-opacity:0.75;fill-rule:evenodd;stroke:#000000;stroke-width:0.19999996;stroke-linecap:butt;stroke-linejoin:miter;stroke-miterlimit:4;stroke-dasharray:none;stroke-opacity:1"
       d="M 38.190919,9.00945 L 7.2051346,38.203648"
       id="path4136" />
    <path
       style="fill:none;fill-opacity:0.75;fill-rule:evenodd;stroke:#000000;stroke-width:0.19999996;stroke-linecap:butt;stroke-linejoin:miter;stroke-miterlimit:4;stroke-dasharray:none;stroke-opacity:1"
       d="M 38.582737,9.425313 L 7.5969529,38.619511"
       id="path4138" />
    <path
       style="fill:none;fill-opacity:0.75;fill-rule:evenodd;stroke:#000000;stroke-width:0.19999996;stroke-linecap:butt;stroke-linejoin:miter;stroke-miterlimit:4;stroke-dasharray:none;stroke-opacity:1"
       d="M 38.974556,9.841177 L 7.988771,39.035374"
       id="path4140" />
  </g>
</svg>
