<?xml version="1.0" encoding="UTF-8" standalone="no"?>
<!-- Created with Inkscape (http://www.inkscape.org/) -->
<svg
   xmlns:dc="http://purl.org/dc/elements/1.1/"
   xmlns:cc="http://web.resource.org/cc/"
   xmlns:rdf="http://www.w3.org/1999/02/22-rdf-syntax-ns#"
   xmlns:svg="http://www.w3.org/2000/svg"
   xmlns="http://www.w3.org/2000/svg"
   xmlns:xlink="http://www.w3.org/1999/xlink"
   xmlns:sodipodi="http://sodipodi.sourceforge.net/DTD/sodipodi-0.dtd"
   xmlns:inkscape="http://www.inkscape.org/namespaces/inkscape"
   width="48"
   height="48"
   id="svg1921"
   sodipodi:version="0.32"
   inkscape:version="0.44"
   version="1.0"
   sodipodi:docbase="C:\Program Files\Inkscape"
   sodipodi:docname="cymbal48x48.svg">
  <defs
     id="defs3">
    <linearGradient
       inkscape:collect="always"
       xlink:href="#linearGradient2791"
       id="linearGradient9930"
       x1="497.64297"
       y1="511.40506"
       x2="684.63611"
       y2="511.40506"
       gradientUnits="userSpaceOnUse"
       gradientTransform="matrix(4.596746e-2,0,0,5.398973e-2,0.918277,-1.440408)" />
    <linearGradient
       id="linearGradient2791">
      <stop
         style="stop-color:#c4a000;stop-opacity:1;"
         offset="0"
         id="stop2793" />
      <stop
         style="stop-color:#c4a000;stop-opacity:1;"
         offset="1"
         id="stop2795" />
    </linearGradient>
    <linearGradient
       inkscape:collect="always"
       xlink:href="#linearGradient2791"
       id="linearGradient7265"
       x1="506.69104"
       y1="492.55496"
       x2="910.83746"
       y2="492.55496"
       gradientUnits="userSpaceOnUse"
       gradientTransform="matrix(4.596746e-2,0,0,5.398973e-2,0.918277,-1.440408)" />
    <linearGradient
       id="linearGradient6385">
      <stop
         style="stop-color:#edd400;stop-opacity:1;"
         offset="0"
         id="stop6387" />
      <stop
         style="stop-color:#fce972;stop-opacity:1;"
         offset="1"
         id="stop6389" />
    </linearGradient>
    <radialGradient
       inkscape:collect="always"
       xlink:href="#linearGradient6385"
       id="radialGradient5483"
       cx="501.48889"
       cy="118.3574"
       fx="501.48889"
       fy="118.3574"
       r="416.96741"
       gradientTransform="matrix(4.324962e-3,1.17522,-1.086883,1.013185e-2,627.9607,-261.7788)"
       gradientUnits="userSpaceOnUse" />
  </defs>
  <sodipodi:namedview
     inkscape:document-units="mm"
     id="base"
     pagecolor="#ffffff"
     bordercolor="#666666"
     borderopacity="1.0"
     inkscape:pageopacity="0.0"
     inkscape:pageshadow="2"
     inkscape:zoom="3.1678384"
     inkscape:cx="22.383962"
     inkscape:cy="31.71093"
     inkscape:current-layer="layer1"
     height="48px"
     width="48px"
     inkscape:window-width="853"
     inkscape:window-height="573"
     inkscape:window-x="220"
     inkscape:window-y="220" />
  <metadata
     id="metadata4">
    <rdf:RDF>
      <cc:Work
         rdf:about="">
        <dc:format>image/svg+xml</dc:format>
        <dc:type
           rdf:resource="http://purl.org/dc/dcmitype/StillImage" />
      </cc:Work>
    </rdf:RDF>
  </metadata>
  <g
     inkscape:label="Layer 1"
     inkscape:groupmode="layer"
     id="layer1">
    <path
       style="fill:none;fill-rule:evenodd;stroke:black;stroke-width:1.34599018;stroke-linecap:butt;stroke-linejoin:miter;stroke-miterlimit:4;stroke-dasharray:none;stroke-opacity:1"
       d="M 7.0613091,15.85346 C 7.0613091,15.85346 2.330356,18.889375 2.1932292,24.758805 C 2.0561025,30.628236 8.706854,34.220734 8.706854,34.220734 C 8.706854,34.220734 14.05488,38.116821 23.996727,38.319215 C 33.938578,38.52161 40.416311,33.587065 40.416311,33.587065 C 40.416311,33.587065 47.102958,29.211477 45.868796,22.785462 C 44.634637,16.359445 37.161108,13.374131 37.161108,13.374131 C 37.161108,13.374131 32.087339,10.034627 21.665537,10.692409 C 11.276029,11.348152 6.9927428,15.904058 7.0613091,15.85346 z "
       id="path20646"
       sodipodi:nodetypes="cscscscsc" />
    <path
       sodipodi:type="arc"
       style="opacity:1;fill:url(#radialGradient5483);fill-opacity:1;fill-rule:nonzero;stroke:#c4a000;stroke-width:20;stroke-linecap:butt;stroke-linejoin:miter;stroke-miterlimit:4;stroke-dasharray:none;stroke-opacity:1"
       id="path1894"
       sodipodi:cx="501.48889"
       sodipodi:cy="489.32153"
       sodipodi:rx="406.96741"
       sodipodi:ry="347.89151"
       d="M 908.4563 489.32153 A 406.96741 347.89151 0 1 1  94.521484,489.32153 A 406.96741 347.89151 0 1 1  908.4563 489.32153 z"
       transform="matrix(5.222777e-2,0,0,3.854256e-2,-2.057765,5.595532)" />
    <path
       style="fill:url(#linearGradient7265);fill-opacity:1;fill-rule:evenodd;stroke:none;stroke-width:1px;stroke-linecap:butt;stroke-linejoin:miter;stroke-opacity:1"
       d="M 35.716614,35.370329 C 33.567714,26.740127 26.982377,20.796687 26.982377,20.796687 C 26.705096,16.970088 22.918092,14.256764 22.918092,14.256764 C 22.918092,14.256764 27.190335,15.423165 29.963108,19.494015 C 29.963108,19.494015 39.737136,23.076363 43.272423,30.078224 C 43.272423,30.078224 41.678079,32.764985 35.716614,35.370329 z "
       id="path6370"
       sodipodi:nodetypes="cccccc" />
    <path
       style="fill:none;fill-rule:evenodd;stroke:#c4a000;stroke-width:0.92009681;stroke-linecap:round;stroke-linejoin:miter;stroke-miterlimit:4;stroke-dasharray:none;stroke-opacity:1"
       d="M 3.1365682,24.69614 C 6.8159165,21.408406 11.079193,18.781967 15.589355,18.234169 C 17.760292,17.970491 19.172273,14.567426 24.105199,14.55693 C 28.870069,14.546939 29.579374,17.630488 31.993581,17.812576 C 39.270588,18.361435 45.246554,24.34349 45.122234,24.721084"
       id="path1931"
       sodipodi:nodetypes="csssc" />
    <path
       style="fill:none;fill-opacity:1;fill-rule:evenodd;stroke:#c4a000;stroke-width:0.92009681;stroke-linecap:round;stroke-linejoin:miter;stroke-miterlimit:4;stroke-dasharray:none;stroke-opacity:1"
       d="M 31.634174,18.0168 C 31.634174,18.0168 29.430774,23.63109 18.898684,20.956867"
       id="path3705"
       sodipodi:nodetypes="cc" />
    <path
       style="fill:url(#linearGradient9930);fill-opacity:1;fill-rule:evenodd;stroke:none;stroke-width:1px;stroke-linecap:butt;stroke-linejoin:miter;stroke-opacity:1"
       d="M 23.287307,14.283327 C 23.287307,14.283327 26.289178,17.458589 26.150541,21.366605 C 26.150541,21.366605 25.912579,20.881304 26.211924,21.326273 C 27.655183,23.471663 31.85089,30.778507 32.597243,36.510167 C 32.597243,36.510167 32.319965,36.510166 28.230123,37.324336 C 28.230123,37.324336 26.843733,24.379035 24.625515,21.610857 C 24.625515,21.610857 24.743012,16.237336 23.287307,14.283327 z "
       id="path9037"
       sodipodi:nodetypes="ccscccc" />
  </g>
</svg>
