<?xml version="1.0" encoding="UTF-8" standalone="no"?>
<!-- Created with Inkscape (http://www.inkscape.org/) -->
<svg
   xmlns:dc="http://purl.org/dc/elements/1.1/"
   xmlns:cc="http://web.resource.org/cc/"
   xmlns:rdf="http://www.w3.org/1999/02/22-rdf-syntax-ns#"
   xmlns:svg="http://www.w3.org/2000/svg"
   xmlns="http://www.w3.org/2000/svg"
   xmlns:xlink="http://www.w3.org/1999/xlink"
   xmlns:sodipodi="http://inkscape.sourceforge.net/DTD/sodipodi-0.dtd"
   xmlns:inkscape="http://www.inkscape.org/namespaces/inkscape"
   width="48px"
   height="48px"
   id="svg4289"
   sodipodi:version="0.32"
   inkscape:version="0.43"
   sodipodi:docbase="/home/laszlo/Software/SVN/jokosher/JonoEdit/trunk/Instruments/images"
   sodipodi:docname="keyboard.svg">
  <defs
     id="defs4291">
    <linearGradient
       inkscape:collect="always"
       id="linearGradient5269">
      <stop
         style="stop-color:#eeeeec;stop-opacity:1"
         offset="0"
         id="stop5271" />
      <stop
         style="stop-color:#d3d7cf;stop-opacity:1"
         offset="1"
         id="stop5273" />
    </linearGradient>
    <linearGradient
       inkscape:collect="always"
       id="linearGradient5259">
      <stop
         style="stop-color:#555753;stop-opacity:1"
         offset="0"
         id="stop5261" />
      <stop
         style="stop-color:#2e3436;stop-opacity:1"
         offset="1"
         id="stop5263" />
    </linearGradient>
    <linearGradient
       inkscape:collect="always"
       xlink:href="#linearGradient5259"
       id="linearGradient5265"
       x1="10.562407"
       y1="17.329243"
       x2="38.095375"
       y2="37.393398"
       gradientUnits="userSpaceOnUse"
       gradientTransform="translate(1.562525e-2,3.984374)" />
    <linearGradient
       inkscape:collect="always"
       xlink:href="#linearGradient5269"
       id="linearGradient5275"
       x1="40.923805"
       y1="24.135147"
       x2="42.072853"
       y2="35.006912"
       gradientUnits="userSpaceOnUse"
       gradientTransform="translate(1.562525e-2,3.984374)" />
    <linearGradient
       inkscape:collect="always"
       xlink:href="#linearGradient5269"
       id="linearGradient5279"
       gradientUnits="userSpaceOnUse"
       x1="40.923805"
       y1="24.135147"
       x2="42.072853"
       y2="35.006912"
       gradientTransform="translate(-3.984373,3.984374)" />
    <linearGradient
       inkscape:collect="always"
       xlink:href="#linearGradient5269"
       id="linearGradient5283"
       gradientUnits="userSpaceOnUse"
       gradientTransform="translate(-7.984371,3.984374)"
       x1="40.923805"
       y1="24.135147"
       x2="42.072853"
       y2="35.006912" />
    <linearGradient
       inkscape:collect="always"
       xlink:href="#linearGradient5269"
       id="linearGradient5287"
       gradientUnits="userSpaceOnUse"
       gradientTransform="translate(-11.98437,3.98437)"
       x1="40.923805"
       y1="24.135147"
       x2="42.072853"
       y2="35.006912" />
    <linearGradient
       inkscape:collect="always"
       xlink:href="#linearGradient5269"
       id="linearGradient5291"
       gradientUnits="userSpaceOnUse"
       gradientTransform="translate(-15.98436,3.984373)"
       x1="40.923805"
       y1="24.135147"
       x2="42.072853"
       y2="35.006912" />
    <linearGradient
       inkscape:collect="always"
       xlink:href="#linearGradient5269"
       id="linearGradient5295"
       gradientUnits="userSpaceOnUse"
       gradientTransform="translate(-19.98437,3.984373)"
       x1="40.923805"
       y1="24.135147"
       x2="42.072853"
       y2="35.006912" />
    <linearGradient
       inkscape:collect="always"
       xlink:href="#linearGradient5269"
       id="linearGradient5299"
       gradientUnits="userSpaceOnUse"
       gradientTransform="translate(-23.98436,3.984374)"
       x1="40.923805"
       y1="24.135147"
       x2="42.072853"
       y2="35.006912" />
    <linearGradient
       inkscape:collect="always"
       xlink:href="#linearGradient5269"
       id="linearGradient5303"
       gradientUnits="userSpaceOnUse"
       gradientTransform="translate(-27.98437,3.98437)"
       x1="40.923805"
       y1="24.135147"
       x2="42.072853"
       y2="35.006912" />
    <linearGradient
       inkscape:collect="always"
       xlink:href="#linearGradient5269"
       id="linearGradient5307"
       gradientUnits="userSpaceOnUse"
       gradientTransform="translate(-31.98437,3.98437)"
       x1="40.923805"
       y1="24.135147"
       x2="42.072853"
       y2="35.006912" />
    <linearGradient
       inkscape:collect="always"
       xlink:href="#linearGradient5269"
       id="linearGradient5311"
       gradientUnits="userSpaceOnUse"
       gradientTransform="translate(-35.98437,3.984373)"
       x1="40.923805"
       y1="24.135147"
       x2="42.072853"
       y2="35.006912" />
  </defs>
  <sodipodi:namedview
     id="base"
     pagecolor="#ffffff"
     bordercolor="#666666"
     borderopacity="1.0"
     inkscape:pageopacity="0.0"
     inkscape:pageshadow="2"
     inkscape:zoom="8"
     inkscape:cx="44.366614"
     inkscape:cy="20.658743"
     inkscape:current-layer="layer1"
     showgrid="false"
     inkscape:grid-bbox="true"
     inkscape:document-units="px"
     showguides="true"
     inkscape:guide-bbox="true"
     inkscape:window-width="1680"
     inkscape:window-height="975"
     inkscape:window-x="0"
     inkscape:window-y="25" />
  <metadata
     id="metadata4294">
    <rdf:RDF>
      <cc:Work
         rdf:about="">
        <dc:format>image/svg+xml</dc:format>
        <dc:type
           rdf:resource="http://purl.org/dc/dcmitype/StillImage" />
      </cc:Work>
    </rdf:RDF>
  </metadata>
  <g
     id="layer1"
     inkscape:label="Layer 1"
     inkscape:groupmode="layer">
    <rect
       style="opacity:1;fill:url(#linearGradient5265);fill-opacity:1;stroke:#2e3436;stroke-width:1.00000024;stroke-linecap:butt;stroke-linejoin:miter;stroke-miterlimit:4.69999981;stroke-dasharray:none;stroke-opacity:1"
       id="rect4297"
       width="44.999989"
       height="25.000006"
       x="1.5156249"
       y="15.484371"
       rx="0.125"
       ry="0.12500001" />
    <rect
       style="opacity:1;fill:url(#linearGradient5307);fill-opacity:1;stroke:#888a85;stroke-width:0.99999988;stroke-linecap:butt;stroke-linejoin:miter;stroke-miterlimit:4.69999981;stroke-dasharray:none;stroke-opacity:1"
       id="rect5305"
       width="3.9999986"
       height="16.000004"
       x="7.5156255"
       y="24.484369"
       rx="0.12499993"
       ry="0.12500007" />
    <rect
       style="opacity:1;fill:url(#linearGradient5279);fill-opacity:1;stroke:#888a85;stroke-width:0.99999988;stroke-linecap:butt;stroke-linejoin:miter;stroke-miterlimit:4.69999981;stroke-dasharray:none;stroke-opacity:1"
       id="rect5277"
       width="3.9999986"
       height="16.000004"
       x="35.515625"
       y="24.484373"
       rx="0.12499993"
       ry="0.12500007" />
    <rect
       style="opacity:0.1;fill:none;fill-opacity:1;stroke:white;stroke-width:1.00000024;stroke-linecap:butt;stroke-linejoin:miter;stroke-miterlimit:4.69999981;stroke-dasharray:none;stroke-opacity:1"
       id="rect5187"
       width="43.000004"
       height="23.00001"
       x="2.5156257"
       y="16.484373"
       rx="0.12499997"
       ry="0.12500006" />
    <rect
       style="opacity:1;fill:url(#linearGradient5283);fill-opacity:1;stroke:#888a85;stroke-width:0.99999988;stroke-linecap:butt;stroke-linejoin:miter;stroke-miterlimit:4.69999981;stroke-dasharray:none;stroke-opacity:1"
       id="rect5281"
       width="3.9999986"
       height="16.000004"
       x="31.515627"
       y="24.484373"
       rx="0.12499993"
       ry="0.12500007" />
    <rect
       style="opacity:1;fill:url(#linearGradient5275);fill-opacity:1;stroke:#888a85;stroke-width:0.99999988;stroke-linecap:butt;stroke-linejoin:miter;stroke-miterlimit:4.69999981;stroke-dasharray:none;stroke-opacity:1"
       id="rect5231"
       width="3.9999986"
       height="16.000004"
       x="39.515625"
       y="24.484373"
       rx="0.12499993"
       ry="0.12500007" />
    <rect
       style="opacity:1;fill:url(#linearGradient5287);fill-opacity:1;stroke:#888a85;stroke-width:0.99999988;stroke-linecap:butt;stroke-linejoin:miter;stroke-miterlimit:4.69999981;stroke-dasharray:none;stroke-opacity:1"
       id="rect5285"
       width="3.9999986"
       height="16.000004"
       x="27.515625"
       y="24.484369"
       rx="0.12499993"
       ry="0.12500007" />
    <rect
       style="opacity:1;fill:url(#linearGradient5311);fill-opacity:1;stroke:#888a85;stroke-width:0.99999988;stroke-linecap:butt;stroke-linejoin:miter;stroke-miterlimit:4.69999981;stroke-dasharray:none;stroke-opacity:1"
       id="rect5309"
       width="3.9999986"
       height="16.000004"
       x="3.5156267"
       y="24.484373"
       rx="0.12499993"
       ry="0.12500007" />
    <rect
       style="opacity:1;fill:#2e3436;fill-opacity:1;stroke:black;stroke-width:0.99999988;stroke-linecap:butt;stroke-linejoin:miter;stroke-miterlimit:4.69999981;stroke-dasharray:none;stroke-opacity:1"
       id="rect5233"
       width="2.0000012"
       height="12.000004"
       x="6.5156255"
       y="24.484369"
       rx="0.12499983"
       ry="0.12500013" />
    <rect
       style="opacity:1;fill:url(#linearGradient5291);fill-opacity:1;stroke:#888a85;stroke-width:0.99999988;stroke-linecap:butt;stroke-linejoin:miter;stroke-miterlimit:4.69999981;stroke-dasharray:none;stroke-opacity:1"
       id="rect5289"
       width="3.9999986"
       height="16.000004"
       x="23.515627"
       y="24.484373"
       rx="0.12499993"
       ry="0.12500007" />
    <rect
       style="opacity:1;fill:url(#linearGradient5303);fill-opacity:1;stroke:#888a85;stroke-width:0.99999988;stroke-linecap:butt;stroke-linejoin:miter;stroke-miterlimit:4.69999981;stroke-dasharray:none;stroke-opacity:1"
       id="rect5301"
       width="3.9999986"
       height="16.000004"
       x="11.515625"
       y="24.484369"
       rx="0.12499993"
       ry="0.12500007" />
    <rect
       style="opacity:1;fill:url(#linearGradient5299);fill-opacity:1;stroke:#888a85;stroke-width:0.99999988;stroke-linecap:butt;stroke-linejoin:miter;stroke-miterlimit:4.69999981;stroke-dasharray:none;stroke-opacity:1"
       id="rect5297"
       width="3.9999986"
       height="16.000004"
       x="15.515627"
       y="24.484373"
       rx="0.12499993"
       ry="0.12500007" />
    <rect
       style="opacity:1;fill:#2e3436;fill-opacity:1;stroke:black;stroke-width:0.99999988;stroke-linecap:butt;stroke-linejoin:miter;stroke-miterlimit:4.69999981;stroke-dasharray:none;stroke-opacity:1"
       id="rect5235"
       width="2.0000012"
       height="12.000004"
       x="14.515625"
       y="24.484364"
       rx="0.12499983"
       ry="0.12500013" />
    <rect
       style="opacity:1;fill:url(#linearGradient5295);fill-opacity:1;stroke:#888a85;stroke-width:0.99999988;stroke-linecap:butt;stroke-linejoin:miter;stroke-miterlimit:4.69999981;stroke-dasharray:none;stroke-opacity:1"
       id="rect5293"
       width="3.9999986"
       height="16.000004"
       x="19.515627"
       y="24.484373"
       rx="0.12499993"
       ry="0.12500007" />
    <rect
       style="opacity:1;fill:#2e3436;fill-opacity:1;stroke:black;stroke-width:0.99999988;stroke-linecap:butt;stroke-linejoin:miter;stroke-miterlimit:4.69999981;stroke-dasharray:none;stroke-opacity:1"
       id="rect5237"
       width="2.0000012"
       height="12.000004"
       x="18.515625"
       y="24.48436"
       rx="0.12499983"
       ry="0.12500013" />
    <rect
       style="opacity:1;fill:#2e3436;fill-opacity:1;stroke:black;stroke-width:0.99999988;stroke-linecap:butt;stroke-linejoin:miter;stroke-miterlimit:4.69999981;stroke-dasharray:none;stroke-opacity:1"
       id="rect5239"
       width="2.0000012"
       height="12.000004"
       x="26.515623"
       y="24.484364"
       rx="0.12499983"
       ry="0.12500013" />
    <rect
       style="opacity:1;fill:#2e3436;fill-opacity:1;stroke:black;stroke-width:0.99999988;stroke-linecap:butt;stroke-linejoin:miter;stroke-miterlimit:4.69999981;stroke-dasharray:none;stroke-opacity:1"
       id="rect5241"
       width="2.0000012"
       height="12.000004"
       x="30.515623"
       y="24.484364"
       rx="0.12499983"
       ry="0.12500013" />
    <rect
       style="opacity:1;fill:#2e3436;fill-opacity:1;stroke:black;stroke-width:0.99999988;stroke-linecap:butt;stroke-linejoin:miter;stroke-miterlimit:4.69999981;stroke-dasharray:none;stroke-opacity:1"
       id="rect5243"
       width="2.0000012"
       height="12.000004"
       x="34.515625"
       y="24.484364"
       rx="0.12499983"
       ry="0.12500013" />
    <path
       sodipodi:type="arc"
       style="opacity:1;fill:#73d216;fill-opacity:1;stroke:#2e3436;stroke-width:0.91334867;stroke-linecap:butt;stroke-linejoin:miter;stroke-miterlimit:4.69999981;stroke-dasharray:none;stroke-opacity:1"
       id="path5245"
       sodipodi:cx="6.0104074"
       sodipodi:cy="14.633399"
       sodipodi:rx="1.3700194"
       sodipodi:ry="1.3700194"
       d="M 7.3804269 14.633399 A 1.3700194 1.3700194 0 1 1  4.640388,14.633399 A 1.3700194 1.3700194 0 1 1  7.3804269 14.633399 z"
       transform="matrix(1.094875,0,0,1.094871,-0.565019,2.962691)" />
    <path
       sodipodi:type="arc"
       style="opacity:1;fill:#73d216;fill-opacity:1;stroke:#2e3436;stroke-width:0.91334867;stroke-linecap:butt;stroke-linejoin:miter;stroke-miterlimit:4.69999981;stroke-dasharray:none;stroke-opacity:1"
       id="path5249"
       sodipodi:cx="6.0104074"
       sodipodi:cy="14.633399"
       sodipodi:rx="1.3700194"
       sodipodi:ry="1.3700194"
       d="M 7.3804269 14.633399 A 1.3700194 1.3700194 0 1 1  4.640388,14.633399 A 1.3700194 1.3700194 0 1 1  7.3804269 14.633399 z"
       transform="matrix(1.094875,0,0,1.094871,4.43498,2.962685)" />
    <path
       sodipodi:type="arc"
       style="opacity:0.5;fill:white;fill-opacity:1;stroke:none;stroke-width:1;stroke-linecap:butt;stroke-linejoin:miter;stroke-miterlimit:4.69999981;stroke-dasharray:none;stroke-opacity:1"
       id="path5251"
       sodipodi:cx="5.484375"
       sodipodi:cy="14.515625"
       sodipodi:rx="0.28125"
       sodipodi:ry="0.28125"
       d="M 5.765625 14.515625 A 0.28125 0.28125 0 1 1  5.203125,14.515625 A 0.28125 0.28125 0 1 1  5.765625 14.515625 z"
       transform="matrix(1.75,0,0,1.75,-4.074219,-6.925786)" />
    <path
       sodipodi:type="arc"
       style="opacity:0.5;fill:white;fill-opacity:1;stroke:none;stroke-width:1;stroke-linecap:butt;stroke-linejoin:miter;stroke-miterlimit:4.69999981;stroke-dasharray:none;stroke-opacity:1"
       id="path5253"
       sodipodi:cx="5.484375"
       sodipodi:cy="14.515625"
       sodipodi:rx="0.28125"
       sodipodi:ry="0.28125"
       d="M 5.765625 14.515625 A 0.28125 0.28125 0 1 1  5.203125,14.515625 A 0.28125 0.28125 0 1 1  5.765625 14.515625 z"
       transform="matrix(1.75,0,0,1.75,0.910156,-6.910156)" />
    <path
       sodipodi:type="arc"
       style="opacity:1;fill:#73d216;fill-opacity:1;stroke:#2e3436;stroke-width:0.91334867;stroke-linecap:butt;stroke-linejoin:miter;stroke-miterlimit:4.69999981;stroke-dasharray:none;stroke-opacity:1"
       id="path5255"
       sodipodi:cx="6.0104074"
       sodipodi:cy="14.633399"
       sodipodi:rx="1.3700194"
       sodipodi:ry="1.3700194"
       d="M 7.3804269 14.633399 A 1.3700194 1.3700194 0 1 1  4.640388,14.633399 A 1.3700194 1.3700194 0 1 1  7.3804269 14.633399 z"
       transform="matrix(1.094875,0,0,1.094871,9.450605,2.947059)" />
    <path
       sodipodi:type="arc"
       style="opacity:0.5;fill:white;fill-opacity:1;stroke:none;stroke-width:1;stroke-linecap:butt;stroke-linejoin:miter;stroke-miterlimit:4.69999981;stroke-dasharray:none;stroke-opacity:1"
       id="path5257"
       sodipodi:cx="5.484375"
       sodipodi:cy="14.515625"
       sodipodi:rx="0.28125"
       sodipodi:ry="0.28125"
       d="M 5.765625 14.515625 A 0.28125 0.28125 0 1 1  5.203125,14.515625 A 0.28125 0.28125 0 1 1  5.765625 14.515625 z"
       transform="matrix(1.75,0,0,1.75,5.925781,-6.925786)" />
    <rect
       style="opacity:1;fill:#2e3436;fill-opacity:1;stroke:none;stroke-width:0.99999988;stroke-linecap:butt;stroke-linejoin:miter;stroke-miterlimit:4;stroke-dasharray:none;stroke-opacity:1"
       id="rect5346"
       width="11"
       height="5"
       x="33"
       y="18"
       rx="0.59662133"
       ry="0.59662133" />
    <path
       sodipodi:type="arc"
       style="opacity:1;fill:#888a85;fill-opacity:1;stroke:none;stroke-width:1;stroke-linecap:butt;stroke-linejoin:miter;stroke-miterlimit:4;stroke-dasharray:none;stroke-opacity:1"
       id="path5348"
       sodipodi:cx="33.565475"
       sodipodi:cy="18.699263"
       sodipodi:rx="0.4861359"
       sodipodi:ry="0.4861359"
       d="M 34.051611 18.699263 A 0.4861359 0.4861359 0 1 1  33.07934,18.699263 A 0.4861359 0.4861359 0 1 1  34.051611 18.699263 z"
       transform="matrix(1.028504,0,0,1.028527,-1.022205,-0.732699)" />
    <path
       sodipodi:type="arc"
       style="opacity:1;fill:#888a85;fill-opacity:1;stroke:none;stroke-width:1;stroke-linecap:butt;stroke-linejoin:miter;stroke-miterlimit:4;stroke-dasharray:none;stroke-opacity:1"
       id="path5350"
       sodipodi:cx="33.565475"
       sodipodi:cy="18.699263"
       sodipodi:rx="0.4861359"
       sodipodi:ry="0.4861359"
       d="M 34.051611 18.699263 A 0.4861359 0.4861359 0 1 1  33.07934,18.699263 A 0.4861359 0.4861359 0 1 1  34.051611 18.699263 z"
       transform="matrix(1.028504,0,0,1.028527,0.977767,-0.7327)" />
    <path
       sodipodi:type="arc"
       style="opacity:1;fill:#888a85;fill-opacity:1;stroke:none;stroke-width:1;stroke-linecap:butt;stroke-linejoin:miter;stroke-miterlimit:4;stroke-dasharray:none;stroke-opacity:1"
       id="path5352"
       sodipodi:cx="33.565475"
       sodipodi:cy="18.699263"
       sodipodi:rx="0.4861359"
       sodipodi:ry="0.4861359"
       d="M 34.051611 18.699263 A 0.4861359 0.4861359 0 1 1  33.07934,18.699263 A 0.4861359 0.4861359 0 1 1  34.051611 18.699263 z"
       transform="matrix(1.028504,0,0,1.028527,2.977767,-0.7327)" />
    <path
       sodipodi:type="arc"
       style="opacity:1;fill:#888a85;fill-opacity:1;stroke:none;stroke-width:1;stroke-linecap:butt;stroke-linejoin:miter;stroke-miterlimit:4;stroke-dasharray:none;stroke-opacity:1"
       id="path5354"
       sodipodi:cx="33.565475"
       sodipodi:cy="18.699263"
       sodipodi:rx="0.4861359"
       sodipodi:ry="0.4861359"
       d="M 34.051611 18.699263 A 0.4861359 0.4861359 0 1 1  33.07934,18.699263 A 0.4861359 0.4861359 0 1 1  34.051611 18.699263 z"
       transform="matrix(1.028504,0,0,1.028527,4.977767,-0.7327)" />
    <path
       sodipodi:type="arc"
       style="opacity:1;fill:#888a85;fill-opacity:1;stroke:none;stroke-width:1;stroke-linecap:butt;stroke-linejoin:miter;stroke-miterlimit:4;stroke-dasharray:none;stroke-opacity:1"
       id="path5356"
       sodipodi:cx="33.565475"
       sodipodi:cy="18.699263"
       sodipodi:rx="0.4861359"
       sodipodi:ry="0.4861359"
       d="M 34.051611 18.699263 A 0.4861359 0.4861359 0 1 1  33.07934,18.699263 A 0.4861359 0.4861359 0 1 1  34.051611 18.699263 z"
       transform="matrix(1.028504,0,0,1.028527,6.977767,-0.7327)" />
    <path
       sodipodi:type="arc"
       style="opacity:1;fill:#888a85;fill-opacity:1;stroke:none;stroke-width:1;stroke-linecap:butt;stroke-linejoin:miter;stroke-miterlimit:4;stroke-dasharray:none;stroke-opacity:1"
       id="path5358"
       sodipodi:cx="33.565475"
       sodipodi:cy="18.699263"
       sodipodi:rx="0.4861359"
       sodipodi:ry="0.4861359"
       d="M 34.051611 18.699263 A 0.4861359 0.4861359 0 1 1  33.07934,18.699263 A 0.4861359 0.4861359 0 1 1  34.051611 18.699263 z"
       transform="matrix(1.028504,0,0,1.028527,8.977767,-0.7327)" />
    <path
       sodipodi:type="arc"
       style="opacity:1;fill:#888a85;fill-opacity:1;stroke:none;stroke-width:1;stroke-linecap:butt;stroke-linejoin:miter;stroke-miterlimit:4;stroke-dasharray:none;stroke-opacity:1"
       id="path5360"
       sodipodi:cx="33.565475"
       sodipodi:cy="18.699263"
       sodipodi:rx="0.4861359"
       sodipodi:ry="0.4861359"
       d="M 34.051611 18.699263 A 0.4861359 0.4861359 0 1 1  33.07934,18.699263 A 0.4861359 0.4861359 0 1 1  34.051611 18.699263 z"
       transform="matrix(1.028504,0,0,1.028527,-1.022233,1.2673)" />
    <path
       sodipodi:type="arc"
       style="opacity:1;fill:#888a85;fill-opacity:1;stroke:none;stroke-width:1;stroke-linecap:butt;stroke-linejoin:miter;stroke-miterlimit:4;stroke-dasharray:none;stroke-opacity:1"
       id="path5362"
       sodipodi:cx="33.565475"
       sodipodi:cy="18.699263"
       sodipodi:rx="0.4861359"
       sodipodi:ry="0.4861359"
       d="M 34.051611 18.699263 A 0.4861359 0.4861359 0 1 1  33.07934,18.699263 A 0.4861359 0.4861359 0 1 1  34.051611 18.699263 z"
       transform="matrix(1.028504,0,0,1.028527,0.977739,1.267299)" />
    <path
       sodipodi:type="arc"
       style="opacity:1;fill:#888a85;fill-opacity:1;stroke:none;stroke-width:1;stroke-linecap:butt;stroke-linejoin:miter;stroke-miterlimit:4;stroke-dasharray:none;stroke-opacity:1"
       id="path5364"
       sodipodi:cx="33.565475"
       sodipodi:cy="18.699263"
       sodipodi:rx="0.4861359"
       sodipodi:ry="0.4861359"
       d="M 34.051611 18.699263 A 0.4861359 0.4861359 0 1 1  33.07934,18.699263 A 0.4861359 0.4861359 0 1 1  34.051611 18.699263 z"
       transform="matrix(1.028504,0,0,1.028527,2.977739,1.267299)" />
    <path
       sodipodi:type="arc"
       style="opacity:1;fill:#888a85;fill-opacity:1;stroke:none;stroke-width:1;stroke-linecap:butt;stroke-linejoin:miter;stroke-miterlimit:4;stroke-dasharray:none;stroke-opacity:1"
       id="path5366"
       sodipodi:cx="33.565475"
       sodipodi:cy="18.699263"
       sodipodi:rx="0.4861359"
       sodipodi:ry="0.4861359"
       d="M 34.051611 18.699263 A 0.4861359 0.4861359 0 1 1  33.07934,18.699263 A 0.4861359 0.4861359 0 1 1  34.051611 18.699263 z"
       transform="matrix(1.028504,0,0,1.028527,4.977739,1.267299)" />
    <path
       sodipodi:type="arc"
       style="opacity:1;fill:#888a85;fill-opacity:1;stroke:none;stroke-width:1;stroke-linecap:butt;stroke-linejoin:miter;stroke-miterlimit:4;stroke-dasharray:none;stroke-opacity:1"
       id="path5368"
       sodipodi:cx="33.565475"
       sodipodi:cy="18.699263"
       sodipodi:rx="0.4861359"
       sodipodi:ry="0.4861359"
       d="M 34.051611 18.699263 A 0.4861359 0.4861359 0 1 1  33.07934,18.699263 A 0.4861359 0.4861359 0 1 1  34.051611 18.699263 z"
       transform="matrix(1.028504,0,0,1.028527,6.977739,1.267299)" />
    <path
       sodipodi:type="arc"
       style="opacity:1;fill:#888a85;fill-opacity:1;stroke:none;stroke-width:1;stroke-linecap:butt;stroke-linejoin:miter;stroke-miterlimit:4;stroke-dasharray:none;stroke-opacity:1"
       id="path5370"
       sodipodi:cx="33.565475"
       sodipodi:cy="18.699263"
       sodipodi:rx="0.4861359"
       sodipodi:ry="0.4861359"
       d="M 34.051611 18.699263 A 0.4861359 0.4861359 0 1 1  33.07934,18.699263 A 0.4861359 0.4861359 0 1 1  34.051611 18.699263 z"
       transform="matrix(1.028504,0,0,1.028527,8.977739,1.267299)" />
    <path
       sodipodi:type="arc"
       style="opacity:1;fill:#888a85;fill-opacity:1;stroke:none;stroke-width:1;stroke-linecap:butt;stroke-linejoin:miter;stroke-miterlimit:4;stroke-dasharray:none;stroke-opacity:1"
       id="path5372"
       sodipodi:cx="33.565475"
       sodipodi:cy="18.699263"
       sodipodi:rx="0.4861359"
       sodipodi:ry="0.4861359"
       d="M 34.051611 18.699263 A 0.4861359 0.4861359 0 1 1  33.07934,18.699263 A 0.4861359 0.4861359 0 1 1  34.051611 18.699263 z"
       transform="matrix(1.028504,0,0,1.028527,-1.022185,3.267308)" />
    <path
       sodipodi:type="arc"
       style="opacity:1;fill:#888a85;fill-opacity:1;stroke:none;stroke-width:1;stroke-linecap:butt;stroke-linejoin:miter;stroke-miterlimit:4;stroke-dasharray:none;stroke-opacity:1"
       id="path5374"
       sodipodi:cx="33.565475"
       sodipodi:cy="18.699263"
       sodipodi:rx="0.4861359"
       sodipodi:ry="0.4861359"
       d="M 34.051611 18.699263 A 0.4861359 0.4861359 0 1 1  33.07934,18.699263 A 0.4861359 0.4861359 0 1 1  34.051611 18.699263 z"
       transform="matrix(1.028504,0,0,1.028527,0.977787,3.267307)" />
    <path
       sodipodi:type="arc"
       style="opacity:1;fill:#888a85;fill-opacity:1;stroke:none;stroke-width:1;stroke-linecap:butt;stroke-linejoin:miter;stroke-miterlimit:4;stroke-dasharray:none;stroke-opacity:1"
       id="path5376"
       sodipodi:cx="33.565475"
       sodipodi:cy="18.699263"
       sodipodi:rx="0.4861359"
       sodipodi:ry="0.4861359"
       d="M 34.051611 18.699263 A 0.4861359 0.4861359 0 1 1  33.07934,18.699263 A 0.4861359 0.4861359 0 1 1  34.051611 18.699263 z"
       transform="matrix(1.028504,0,0,1.028527,2.977787,3.267307)" />
    <path
       sodipodi:type="arc"
       style="opacity:1;fill:#888a85;fill-opacity:1;stroke:none;stroke-width:1;stroke-linecap:butt;stroke-linejoin:miter;stroke-miterlimit:4;stroke-dasharray:none;stroke-opacity:1"
       id="path5378"
       sodipodi:cx="33.565475"
       sodipodi:cy="18.699263"
       sodipodi:rx="0.4861359"
       sodipodi:ry="0.4861359"
       d="M 34.051611 18.699263 A 0.4861359 0.4861359 0 1 1  33.07934,18.699263 A 0.4861359 0.4861359 0 1 1  34.051611 18.699263 z"
       transform="matrix(1.028504,0,0,1.028527,4.977787,3.267307)" />
    <path
       sodipodi:type="arc"
       style="opacity:1;fill:#888a85;fill-opacity:1;stroke:none;stroke-width:1;stroke-linecap:butt;stroke-linejoin:miter;stroke-miterlimit:4;stroke-dasharray:none;stroke-opacity:1"
       id="path5380"
       sodipodi:cx="33.565475"
       sodipodi:cy="18.699263"
       sodipodi:rx="0.4861359"
       sodipodi:ry="0.4861359"
       d="M 34.051611 18.699263 A 0.4861359 0.4861359 0 1 1  33.07934,18.699263 A 0.4861359 0.4861359 0 1 1  34.051611 18.699263 z"
       transform="matrix(1.028504,0,0,1.028527,6.977787,3.267307)" />
    <path
       sodipodi:type="arc"
       style="opacity:1;fill:#888a85;fill-opacity:1;stroke:none;stroke-width:1;stroke-linecap:butt;stroke-linejoin:miter;stroke-miterlimit:4;stroke-dasharray:none;stroke-opacity:1"
       id="path5382"
       sodipodi:cx="33.565475"
       sodipodi:cy="18.699263"
       sodipodi:rx="0.4861359"
       sodipodi:ry="0.4861359"
       d="M 34.051611 18.699263 A 0.4861359 0.4861359 0 1 1  33.07934,18.699263 A 0.4861359 0.4861359 0 1 1  34.051611 18.699263 z"
       transform="matrix(1.028504,0,0,1.028527,8.977782,3.267307)" />
    <path
       sodipodi:type="arc"
       style="opacity:1;fill:#888a85;fill-opacity:1;stroke:none;stroke-width:1;stroke-linecap:butt;stroke-linejoin:miter;stroke-miterlimit:4;stroke-dasharray:none;stroke-opacity:1"
       id="path5384"
       sodipodi:cx="33.565475"
       sodipodi:cy="18.699263"
       sodipodi:rx="0.4861359"
       sodipodi:ry="0.4861359"
       d="M 34.051611 18.699263 A 0.4861359 0.4861359 0 1 1  33.07934,18.699263 A 0.4861359 0.4861359 0 1 1  34.051611 18.699263 z"
       transform="matrix(1.028504,0,0,1.028527,-2.219049e-2,0.267308)" />
    <path
       sodipodi:type="arc"
       style="opacity:1;fill:#888a85;fill-opacity:1;stroke:none;stroke-width:1;stroke-linecap:butt;stroke-linejoin:miter;stroke-miterlimit:4;stroke-dasharray:none;stroke-opacity:1"
       id="path5386"
       sodipodi:cx="33.565475"
       sodipodi:cy="18.699263"
       sodipodi:rx="0.4861359"
       sodipodi:ry="0.4861359"
       d="M 34.051611 18.699263 A 0.4861359 0.4861359 0 1 1  33.07934,18.699263 A 0.4861359 0.4861359 0 1 1  34.051611 18.699263 z"
       transform="matrix(1.028504,0,0,1.028527,1.977782,0.267307)" />
    <path
       sodipodi:type="arc"
       style="opacity:1;fill:#888a85;fill-opacity:1;stroke:none;stroke-width:1;stroke-linecap:butt;stroke-linejoin:miter;stroke-miterlimit:4;stroke-dasharray:none;stroke-opacity:1"
       id="path5388"
       sodipodi:cx="33.565475"
       sodipodi:cy="18.699263"
       sodipodi:rx="0.4861359"
       sodipodi:ry="0.4861359"
       d="M 34.051611 18.699263 A 0.4861359 0.4861359 0 1 1  33.07934,18.699263 A 0.4861359 0.4861359 0 1 1  34.051611 18.699263 z"
       transform="matrix(1.028504,0,0,1.028527,3.977782,0.267307)" />
    <path
       sodipodi:type="arc"
       style="opacity:1;fill:#888a85;fill-opacity:1;stroke:none;stroke-width:1;stroke-linecap:butt;stroke-linejoin:miter;stroke-miterlimit:4;stroke-dasharray:none;stroke-opacity:1"
       id="path5390"
       sodipodi:cx="33.565475"
       sodipodi:cy="18.699263"
       sodipodi:rx="0.4861359"
       sodipodi:ry="0.4861359"
       d="M 34.051611 18.699263 A 0.4861359 0.4861359 0 1 1  33.07934,18.699263 A 0.4861359 0.4861359 0 1 1  34.051611 18.699263 z"
       transform="matrix(1.028504,0,0,1.028527,5.977782,0.267307)" />
    <path
       sodipodi:type="arc"
       style="opacity:1;fill:#888a85;fill-opacity:1;stroke:none;stroke-width:1;stroke-linecap:butt;stroke-linejoin:miter;stroke-miterlimit:4;stroke-dasharray:none;stroke-opacity:1"
       id="path5392"
       sodipodi:cx="33.565475"
       sodipodi:cy="18.699263"
       sodipodi:rx="0.4861359"
       sodipodi:ry="0.4861359"
       d="M 34.051611 18.699263 A 0.4861359 0.4861359 0 1 1  33.07934,18.699263 A 0.4861359 0.4861359 0 1 1  34.051611 18.699263 z"
       transform="matrix(1.028504,0,0,1.028527,7.977787,0.267307)" />
    <path
       sodipodi:type="arc"
       style="opacity:1;fill:#888a85;fill-opacity:1;stroke:none;stroke-width:1;stroke-linecap:butt;stroke-linejoin:miter;stroke-miterlimit:4;stroke-dasharray:none;stroke-opacity:1"
       id="path5394"
       sodipodi:cx="33.565475"
       sodipodi:cy="18.699263"
       sodipodi:rx="0.4861359"
       sodipodi:ry="0.4861359"
       d="M 34.051611 18.699263 A 0.4861359 0.4861359 0 1 1  33.07934,18.699263 A 0.4861359 0.4861359 0 1 1  34.051611 18.699263 z"
       transform="matrix(1.028504,0,0,1.028527,-2.223306e-2,2.2673)" />
    <path
       sodipodi:type="arc"
       style="opacity:1;fill:#888a85;fill-opacity:1;stroke:none;stroke-width:1;stroke-linecap:butt;stroke-linejoin:miter;stroke-miterlimit:4;stroke-dasharray:none;stroke-opacity:1"
       id="path5396"
       sodipodi:cx="33.565475"
       sodipodi:cy="18.699263"
       sodipodi:rx="0.4861359"
       sodipodi:ry="0.4861359"
       d="M 34.051611 18.699263 A 0.4861359 0.4861359 0 1 1  33.07934,18.699263 A 0.4861359 0.4861359 0 1 1  34.051611 18.699263 z"
       transform="matrix(1.028504,0,0,1.028527,1.977739,2.267299)" />
    <path
       sodipodi:type="arc"
       style="opacity:1;fill:#888a85;fill-opacity:1;stroke:none;stroke-width:1;stroke-linecap:butt;stroke-linejoin:miter;stroke-miterlimit:4;stroke-dasharray:none;stroke-opacity:1"
       id="path5398"
       sodipodi:cx="33.565475"
       sodipodi:cy="18.699263"
       sodipodi:rx="0.4861359"
       sodipodi:ry="0.4861359"
       d="M 34.051611 18.699263 A 0.4861359 0.4861359 0 1 1  33.07934,18.699263 A 0.4861359 0.4861359 0 1 1  34.051611 18.699263 z"
       transform="matrix(1.028504,0,0,1.028527,3.977739,2.267299)" />
    <path
       sodipodi:type="arc"
       style="opacity:1;fill:#888a85;fill-opacity:1;stroke:none;stroke-width:1;stroke-linecap:butt;stroke-linejoin:miter;stroke-miterlimit:4;stroke-dasharray:none;stroke-opacity:1"
       id="path5400"
       sodipodi:cx="33.565475"
       sodipodi:cy="18.699263"
       sodipodi:rx="0.4861359"
       sodipodi:ry="0.4861359"
       d="M 34.051611 18.699263 A 0.4861359 0.4861359 0 1 1  33.07934,18.699263 A 0.4861359 0.4861359 0 1 1  34.051611 18.699263 z"
       transform="matrix(1.028504,0,0,1.028527,5.977739,2.267299)" />
    <path
       sodipodi:type="arc"
       style="opacity:1;fill:#888a85;fill-opacity:1;stroke:none;stroke-width:1;stroke-linecap:butt;stroke-linejoin:miter;stroke-miterlimit:4;stroke-dasharray:none;stroke-opacity:1"
       id="path5402"
       sodipodi:cx="33.565475"
       sodipodi:cy="18.699263"
       sodipodi:rx="0.4861359"
       sodipodi:ry="0.4861359"
       d="M 34.051611 18.699263 A 0.4861359 0.4861359 0 1 1  33.07934,18.699263 A 0.4861359 0.4861359 0 1 1  34.051611 18.699263 z"
       transform="matrix(1.028504,0,0,1.028527,7.977739,2.267299)" />
    <path
       style="opacity:1;fill:none;fill-opacity:0.75;fill-rule:evenodd;stroke:#2e3436;stroke-width:1px;stroke-linecap:butt;stroke-linejoin:miter;stroke-opacity:1"
       d="M 2.5,23.4375 L 44.5,23.4375"
       id="path5450" />
  </g>
</svg>
