<?xml version="1.0" encoding="UTF-8" standalone="no"?>
<!-- Created with Inkscape (http://www.inkscape.org/) -->
<svg
   xmlns:dc="http://purl.org/dc/elements/1.1/"
   xmlns:cc="http://web.resource.org/cc/"
   xmlns:rdf="http://www.w3.org/1999/02/22-rdf-syntax-ns#"
   xmlns:svg="http://www.w3.org/2000/svg"
   xmlns="http://www.w3.org/2000/svg"
   xmlns:xlink="http://www.w3.org/1999/xlink"
   xmlns:sodipodi="http://inkscape.sourceforge.net/DTD/sodipodi-0.dtd"
   xmlns:inkscape="http://www.inkscape.org/namespaces/inkscape"
   id="svg2"
   sodipodi:version="0.32"
   inkscape:version="0.43"
   width="48"
   height="48"
   version="1.0"
   sodipodi:docbase="/home/laszlo/Software/SVN/jokosher/JonoEdit/trunk/Instruments/images"
   sodipodi:docname="violin.svg"
   inkscape:export-filename="/home/adriaan/Documents/Projects/Icons/Jokosher/Violin/Violin.png"
   inkscape:export-xdpi="90"
   inkscape:export-ydpi="90">
  <metadata
     id="metadata7">
    <rdf:RDF>
      <cc:Work
         rdf:about="">
        <dc:format>image/svg+xml</dc:format>
        <dc:type
           rdf:resource="http://purl.org/dc/dcmitype/StillImage" />
        <dc:title>Violin</dc:title>
        <dc:date>11/08/2006</dc:date>
        <dc:creator>
          <cc:Agent>
            <dc:title>Adriaan Leijnse</dc:title>
          </cc:Agent>
        </dc:creator>
        <dc:rights>
          <cc:Agent>
            <dc:title>Released under the GPL</dc:title>
          </cc:Agent>
        </dc:rights>
        <dc:relation>Jokosher</dc:relation>
        <dc:subject>
          <rdf:Bag>
            <rdf:li>violin icon</rdf:li>
          </rdf:Bag>
        </dc:subject>
        <dc:contributor>
          <cc:Agent>
            <dc:title>Lapo Calamandrei</dc:title>
          </cc:Agent>
        </dc:contributor>
        <cc:license
           rdf:resource="http://creativecommons.org/licenses/GPL/2.0/" />
      </cc:Work>
      <cc:License
         rdf:about="http://creativecommons.org/licenses/GPL/2.0/">
        <cc:permits
           rdf:resource="http://web.resource.org/cc/Reproduction" />
        <cc:permits
           rdf:resource="http://web.resource.org/cc/Distribution" />
        <cc:requires
           rdf:resource="http://web.resource.org/cc/Notice" />
        <cc:permits
           rdf:resource="http://web.resource.org/cc/DerivativeWorks" />
        <cc:requires
           rdf:resource="http://web.resource.org/cc/ShareAlike" />
        <cc:requires
           rdf:resource="http://web.resource.org/cc/SourceCode" />
      </cc:License>
    </rdf:RDF>
  </metadata>
  <defs
     id="defs5">
    <linearGradient
       id="linearGradient2860">
      <stop
         id="stop2862"
         offset="0"
         style="stop-color:#767772;stop-opacity:1;" />
      <stop
         id="stop2864"
         offset="1"
         style="stop-color:#454643;stop-opacity:1;" />
    </linearGradient>
    <linearGradient
       id="linearGradient2852">
      <stop
         style="stop-color:#e6ad54;stop-opacity:1;"
         offset="0"
         id="stop2854" />
      <stop
         style="stop-color:#e9b96e;stop-opacity:1;"
         offset="1"
         id="stop2856" />
    </linearGradient>
    <linearGradient
       id="linearGradient2815">
      <stop
         id="stop2817"
         offset="0"
         style="stop-color:#898e87;stop-opacity:1;" />
      <stop
         id="stop2819"
         offset="1"
         style="stop-color:#60625d;stop-opacity:0;" />
    </linearGradient>
    <linearGradient
       id="linearGradient2840">
      <stop
         style="stop-color:black;stop-opacity:1;"
         offset="0"
         id="stop2842" />
      <stop
         style="stop-color:black;stop-opacity:0;"
         offset="1"
         id="stop2844" />
    </linearGradient>
    <linearGradient
       id="linearGradient3100">
      <stop
         id="stop3102"
         offset="0"
         style="stop-color:#575855;stop-opacity:1;" />
      <stop
         id="stop3104"
         offset="1"
         style="stop-color:#393a37;stop-opacity:1;" />
    </linearGradient>
    <linearGradient
       id="linearGradient3083">
      <stop
         style="stop-color:#7f817c;stop-opacity:1;"
         offset="0"
         id="stop3085" />
      <stop
         style="stop-color:#525450;stop-opacity:1;"
         offset="1"
         id="stop3088" />
    </linearGradient>
    <linearGradient
       id="linearGradient3075">
      <stop
         style="stop-color:#454743;stop-opacity:1;"
         offset="0"
         id="stop3077" />
      <stop
         style="stop-color:#5f625d;stop-opacity:1;"
         offset="1"
         id="stop3079" />
    </linearGradient>
    <linearGradient
       inkscape:collect="always"
       xlink:href="#linearGradient3083"
       id="linearGradient3090"
       x1="21.639355"
       y1="18.680756"
       x2="26.222336"
       y2="19.829803"
       gradientUnits="userSpaceOnUse"
       gradientTransform="matrix(0.963125,0.451457,-0.470926,0.921914,15.5892,-10.49318)" />
    <linearGradient
       inkscape:collect="always"
       xlink:href="#linearGradient3100"
       id="linearGradient3098"
       x1="21.81613"
       y1="18.238813"
       x2="26.222336"
       y2="19.432056"
       gradientUnits="userSpaceOnUse"
       gradientTransform="matrix(0.963125,0.451457,-0.470926,0.921914,15.5892,-10.49318)" />
    <linearGradient
       inkscape:collect="always"
       xlink:href="#linearGradient3075"
       id="linearGradient3112"
       x1="26.426966"
       y1="45.695972"
       x2="18.915726"
       y2="40.674992"
       gradientUnits="userSpaceOnUse"
       gradientTransform="matrix(0.963125,0.451457,-0.470926,0.921914,15.5892,-10.49318)" />
    <linearGradient
       inkscape:collect="always"
       xlink:href="#linearGradient2860"
       id="linearGradient3114"
       x1="24.983517"
       y1="45.398212"
       x2="18.366142"
       y2="41.343334"
       gradientUnits="userSpaceOnUse"
       gradientTransform="matrix(0.963125,0.451457,-0.470926,0.921914,15.5892,-10.49318)" />
    <linearGradient
       inkscape:collect="always"
       xlink:href="#linearGradient3100"
       id="linearGradient3130"
       x1="23.610224"
       y1="38.416416"
       x2="26.478088"
       y2="42.353916"
       gradientUnits="userSpaceOnUse"
       gradientTransform="matrix(0.963125,0.451457,-0.470926,0.921914,15.5892,-10.49318)" />
    <radialGradient
       inkscape:collect="always"
       xlink:href="#linearGradient2840"
       id="radialGradient2849"
       gradientUnits="userSpaceOnUse"
       gradientTransform="matrix(0.874172,0,0,0.450331,7.756798,21.96117)"
       cx="13.700194"
       cy="45.259962"
       fx="13.700194"
       fy="45.259962"
       r="13.346641" />
    <linearGradient
       inkscape:collect="always"
       xlink:href="#linearGradient2815"
       id="linearGradient2821"
       gradientUnits="userSpaceOnUse"
       gradientTransform="matrix(0.963125,0.451457,-0.470926,0.921914,15.5892,-10.49318)"
       x1="26.084969"
       y1="47.502792"
       x2="21.127077"
       y2="44.223026" />
    <radialGradient
       inkscape:collect="always"
       xlink:href="#linearGradient2852"
       id="radialGradient2858"
       cx="33.941925"
       cy="2.5869186"
       fx="33.941925"
       fy="2.5869186"
       r="2.0935208"
       gradientTransform="matrix(1,0,0,1.027237,4,-5.874099e-2)"
       gradientUnits="userSpaceOnUse" />
    <linearGradient
       gradientUnits="userSpaceOnUse"
       y2="39.597477"
       x2="15.490058"
       y1="35.929359"
       x1="18.804621"
       id="linearGradient3826"
       xlink:href="#linearGradient3820"
       inkscape:collect="always" />
    <linearGradient
       gradientUnits="userSpaceOnUse"
       y2="40.349804"
       x2="11.143215"
       y1="44.331882"
       x1="11.225321"
       id="linearGradient3723"
       xlink:href="#linearGradient3717"
       inkscape:collect="always" />
    <linearGradient
       gradientTransform="matrix(0.963125,0.451457,-0.470926,0.921914,11.5892,-10.49318)"
       gradientUnits="userSpaceOnUse"
       y2="40.494473"
       x2="28.458399"
       y1="22.1472"
       x1="16.978636"
       id="linearGradient3148"
       xlink:href="#linearGradient3882"
       inkscape:collect="always" />
    <linearGradient
       id="linearGradient1925">
      <stop
         id="stop1927"
         offset="0"
         style="stop-color:white;stop-opacity:1;" />
      <stop
         id="stop1929"
         offset="1"
         style="stop-color:white;stop-opacity:0.38095239;" />
    </linearGradient>
    <linearGradient
       id="linearGradient3717"
       inkscape:collect="always">
      <stop
         id="stop3719"
         offset="0"
         style="stop-color:white;stop-opacity:1;" />
      <stop
         id="stop3721"
         offset="1"
         style="stop-color:white;stop-opacity:0;" />
    </linearGradient>
    <linearGradient
       id="linearGradient3798"
       inkscape:collect="always">
      <stop
         id="stop3800"
         offset="0"
         style="stop-color:black;stop-opacity:1;" />
      <stop
         id="stop3802"
         offset="1"
         style="stop-color:black;stop-opacity:0;" />
    </linearGradient>
    <linearGradient
       id="linearGradient3820"
       inkscape:collect="always">
      <stop
         id="stop3822"
         offset="0"
         style="stop-color:black;stop-opacity:1;" />
      <stop
         id="stop3824"
         offset="1"
         style="stop-color:black;stop-opacity:0;" />
    </linearGradient>
    <linearGradient
       id="linearGradient3882">
      <stop
         style="stop-color:#e9b96e;stop-opacity:1"
         offset="0"
         id="stop3884" />
      <stop
         style="stop-color:#c17d11;stop-opacity:1"
         offset="1"
         id="stop3886" />
    </linearGradient>
    <radialGradient
       inkscape:collect="always"
       xlink:href="#linearGradient2840"
       id="radialGradient2275"
       gradientUnits="userSpaceOnUse"
       gradientTransform="matrix(0.874172,0,0,0.450331,3.756798,21.96117)"
       cx="13.700194"
       cy="45.259962"
       fx="13.700194"
       fy="45.259962"
       r="13.346641" />
    <linearGradient
       inkscape:collect="always"
       xlink:href="#linearGradient1925"
       id="linearGradient2314"
       gradientUnits="userSpaceOnUse"
       x1="15.382044"
       y1="19.262564"
       x2="24.351398"
       y2="44.410263"
       gradientTransform="translate(60.7082,-4.858733)" />
    <linearGradient
       inkscape:collect="always"
       xlink:href="#linearGradient1925"
       id="linearGradient2316"
       gradientUnits="userSpaceOnUse"
       gradientTransform="translate(64.7082,-4.858733)"
       x1="-45.252365"
       y1="17.494797"
       x2="-42.116638"
       y2="51.127777" />
    <linearGradient
       inkscape:collect="always"
       xlink:href="#linearGradient2860"
       id="linearGradient2324"
       gradientUnits="userSpaceOnUse"
       gradientTransform="matrix(0.963125,0.451457,-0.470926,0.921914,72.2974,-15.35191)"
       x1="24.983517"
       y1="45.398212"
       x2="18.366142"
       y2="41.343334" />
    <linearGradient
       inkscape:collect="always"
       xlink:href="#linearGradient3083"
       id="linearGradient2328"
       gradientUnits="userSpaceOnUse"
       gradientTransform="matrix(0.963125,0.451457,-0.470926,0.921914,72.2974,-15.35191)"
       x1="21.639355"
       y1="18.680756"
       x2="26.222336"
       y2="19.829803" />
    <linearGradient
       inkscape:collect="always"
       xlink:href="#linearGradient3100"
       id="linearGradient2330"
       gradientUnits="userSpaceOnUse"
       gradientTransform="matrix(0.963125,0.451457,-0.470926,0.921914,72.2974,-15.35191)"
       x1="21.81613"
       y1="18.238813"
       x2="26.222336"
       y2="19.432056" />
    <linearGradient
       inkscape:collect="always"
       xlink:href="#linearGradient3100"
       id="linearGradient2333"
       gradientUnits="userSpaceOnUse"
       gradientTransform="matrix(0.963125,0.451457,-0.470926,0.921914,72.2974,-15.35191)"
       x1="24.333736"
       y1="39.716705"
       x2="25.844803"
       y2="40.351906" />
    <linearGradient
       inkscape:collect="always"
       xlink:href="#linearGradient3100"
       id="linearGradient2335"
       gradientUnits="userSpaceOnUse"
       gradientTransform="matrix(0.963125,0.451457,-0.470926,0.921914,72.2974,-15.35191)"
       x1="23.610224"
       y1="38.416416"
       x2="26.478088"
       y2="42.353916" />
    <linearGradient
       inkscape:collect="always"
       xlink:href="#linearGradient3798"
       id="linearGradient2341"
       gradientUnits="userSpaceOnUse"
       x1="22.4375"
       y1="28.96875"
       x2="27.59375"
       y2="17.75"
       gradientTransform="translate(60.7082,-4.858733)" />
    <linearGradient
       inkscape:collect="always"
       xlink:href="#linearGradient3882"
       id="linearGradient3232"
       gradientUnits="userSpaceOnUse"
       gradientTransform="matrix(0.963125,0.451457,-0.470926,0.921914,15.5892,-10.49318)"
       x1="16.978636"
       y1="22.1472"
       x2="28.458399"
       y2="40.494473" />
  </defs>
  <sodipodi:namedview
     inkscape:window-height="947"
     inkscape:window-width="1270"
     inkscape:pageshadow="2"
     inkscape:pageopacity="0"
     guidetolerance="10.0"
     gridtolerance="10000"
     objecttolerance="10000"
     borderopacity="1.0"
     bordercolor="#666666"
     pagecolor="#ffffff"
     id="base"
     width="48px"
     height="48px"
     showguides="true"
     inkscape:guide-bbox="true"
     inkscape:zoom="7.9999999"
     inkscape:cx="47.766117"
     inkscape:cy="8.660402"
     inkscape:window-x="0"
     inkscape:window-y="24"
     inkscape:current-layer="layer2"
     showgrid="false"
     showborder="true"
     inkscape:showpageshadow="false"
     gridempspacing="2"
     inkscape:object-nodes="true"
     inkscape:grid-points="true"
     inkscape:guide-points="false"
     gridoriginx="0px"
     gridoriginy="0px"
     gridspacingx="0.5px"
     gridspacingy="0.5px"
     inkscape:grid-bbox="true" />
  <g
     inkscape:groupmode="layer"
     id="layer1"
     inkscape:label="Body"
     style="opacity:1;display:inline">
    <rect
       style="opacity:0.79017861;color:black;fill:url(#radialGradient2849);fill-opacity:1;fill-rule:evenodd;stroke:none;stroke-width:1px;stroke-linecap:butt;stroke-linejoin:round;marker:none;marker-start:none;marker-mid:none;marker-end:none;stroke-miterlimit:4;stroke-dasharray:none;stroke-dashoffset:0;stroke-opacity:1;visibility:visible;display:inline;overflow:visible"
       id="rect2838"
       width="23.334524"
       height="12.020816"
       x="8.0658646"
       y="36.332737" />
    <path
       id="path2036"
       style="opacity:1;color:black;fill:url(#linearGradient3232);fill-opacity:1;fill-rule:evenodd;stroke:#8f5902;stroke-width:1.04905736;stroke-linecap:butt;stroke-linejoin:round;marker:none;marker-start:none;marker-mid:none;marker-end:none;stroke-miterlimit:4;stroke-dasharray:none;stroke-dashoffset:0;stroke-opacity:1;visibility:visible;display:inline;overflow:visible"
       d="M 16.97418,44.05759 C 22.130846,46.418752 25.676414,45.052205 27.495435,42.408648 C 29.314454,39.76509 27.544075,37.489291 29.220594,36.281539 C 27.0551,35.463184 27.466311,33.142056 28.107446,31.453226 C 29.321916,28.254176 30.780596,28.506175 31.620854,28.907011 C 31.437666,27.943823 33.015629,27.632005 34.493446,24.21672 C 35.954192,20.835645 31.460016,18.085171 30.217422,17.516204 C 28.974826,16.947239 24.090599,15.468905 22.200058,18.452828 C 20.311449,21.433707 21.432795,22.848461 19.993333,23.699074 C 20.907472,24.101549 22.049635,24.957487 20.207538,27.869155 C 19.235246,29.405985 17.706618,31.049928 15.681817,29.949606 C 15.753639,31.957899 12.792519,32.293789 11.86729,35.346601 C 10.942063,38.399414 11.817512,41.696427 16.97418,44.05759 z "
       sodipodi:nodetypes="czcsczzzcsczz" />
    <path
       sodipodi:nodetypes="czcsczzzcsczz"
       d="M 17.252358,43.110183 C 21.625433,45.132072 24.965287,44.333059 26.543468,41.928674 C 28.114291,39.538693 26.830226,38.280428 27.679072,36.556413 C 26.065191,35.128381 26.450956,32.664536 27.075316,31.066578 C 28.25801,28.039661 29.766886,27.560012 30.884056,27.632226 C 31.476179,26.728635 32.401874,26.307052 33.50872,23.760904 C 34.608209,21.229159 30.7901,18.941615 29.713305,18.449697 C 28.636508,17.957777 24.581246,16.577109 23.063173,19.083622 C 21.544307,21.59144 22.375697,22.124768 21.526148,23.529683 C 22.333169,24.194897 22.791776,25.748098 21.065201,28.526549 C 20.153882,29.993065 18.41612,31.787937 16.438561,31.272752 C 15.679336,33.07124 14.05543,32.862655 13.00301,35.430311 C 11.940182,38.018337 12.900563,41.098271 17.252358,43.110183 z "
       style="opacity:0.8;color:black;fill:none;fill-opacity:1;fill-rule:evenodd;stroke:url(#linearGradient2316);stroke-width:1.04905736;stroke-linecap:butt;stroke-linejoin:miter;marker:none;marker-start:none;marker-mid:none;marker-end:none;stroke-miterlimit:4;stroke-dasharray:none;stroke-dashoffset:0;stroke-opacity:1;visibility:visible;display:inline;overflow:visible"
       id="path3032" />
    <path
       style="opacity:1;fill:#555753;fill-opacity:1;fill-rule:evenodd;stroke:#555753;stroke-width:0.31999999;stroke-linecap:round;stroke-linejoin:miter;stroke-miterlimit:4;stroke-dasharray:none;stroke-opacity:0.95045048;display:inline"
       d="M 20.158518,29.98965 L 20.022215,30.022218 L 20.050436,30.149308 C 19.816568,30.602117 19.291778,31.469715 18.938974,31.764437 C 18.507839,32.124596 18.025118,32.214993 17.863249,32.21285 L 17.783939,31.604619 C 18.050579,31.567385 18.368508,31.439007 18.209867,31.059323 C 18.083347,30.756507 17.69158,30.818523 17.50719,31.092678 C 17.243133,31.485831 17.457768,32.124043 17.786537,32.284172 C 17.9054,32.34201 18.188861,32.453631 18.497014,32.408397 C 18.835758,32.358666 19.151798,32.167733 19.402381,31.959907 C 19.725189,31.692191 20.116068,31.169469 20.404979,30.645018 L 20.559566,30.58185 L 20.525611,30.450163 C 20.61012,30.317556 20.960877,29.694641 21.151176,29.364665 C 21.500258,28.759208 21.778218,28.415187 22.447051,28.217627 L 22.62174,28.695365 C 22.395263,28.779168 22.281148,28.868695 22.352942,29.073017 C 22.394572,29.191501 22.533945,29.253233 22.649952,29.197409 C 22.844032,29.104001 22.872519,28.83077 22.859801,28.728616 C 22.851264,28.660045 22.859279,28.562624 22.765123,28.394442 C 22.614675,28.12572 22.264999,28.048903 22.023319,28.082023 C 21.749069,28.119607 21.440042,28.315034 21.303479,28.424623 C 20.768098,28.854297 20.158518,29.98965 20.158518,29.98965 z "
       id="path2935"
       sodipodi:nodetypes="cccsccssssscccsccssssssc" />
    <path
       sodipodi:nodetypes="cccsccssssscccsccssssssc"
       id="path2990"
       d="M 26.300643,32.802038 L 26.359791,32.924101 L 26.238826,32.98288 C 26.01787,33.441604 25.642679,34.377701 25.624839,34.825796 C 25.603041,35.373385 25.832777,35.790006 25.936178,35.909327 L 26.48008,35.586457 C 26.342863,35.364299 26.247478,35.046669 26.65554,34.926472 C 26.980991,34.830606 27.176661,35.161602 27.069758,35.471236 C 26.916224,35.914995 26.262979,36.15582 25.926418,36.011304 C 25.804786,35.959022 25.536085,35.817816 25.379299,35.559693 C 25.206951,35.275941 25.163568,34.920431 25.175015,34.603112 C 25.189754,34.194335 25.36889,33.57466 25.613474,33.029911 L 25.567701,32.875001 L 25.696002,32.817607 C 25.750645,32.671328 26.036372,32.018637 26.184907,31.669538 C 26.457503,31.02906 26.562398,30.60579 26.302825,29.983129 L 25.805029,30.152946 C 25.879188,30.374405 25.878132,30.515703 25.667065,30.590504 C 25.54467,30.633882 25.406992,30.568758 25.379481,30.447219 C 25.33347,30.243877 25.537536,30.051044 25.628504,29.996364 C 25.68957,29.959662 25.763677,29.892505 25.959429,29.857068 C 26.27221,29.800451 26.554222,30.012875 26.679104,30.213838 C 26.820814,30.441885 26.856145,30.794987 26.852889,30.965617 C 26.840089,31.634576 26.300643,32.802038 26.300643,32.802038 z "
       style="opacity:1;fill:#555753;fill-opacity:1;fill-rule:evenodd;stroke:#555753;stroke-width:0.31999999;stroke-linecap:round;stroke-linejoin:miter;stroke-miterlimit:4;stroke-dasharray:none;stroke-opacity:0.95045048;display:inline" />
  </g>
  <g
     inkscape:groupmode="layer"
     id="layer2"
     inkscape:label="Blacks"
     style="opacity:1;display:inline">
    <path
       style="opacity:1;color:black;fill:#2e3436;fill-opacity:1;fill-rule:nonzero;stroke:none;stroke-width:1;stroke-linecap:round;stroke-linejoin:round;marker:none;marker-start:none;marker-mid:none;marker-end:none;stroke-miterlimit:4;stroke-dasharray:none;stroke-dashoffset:0;stroke-opacity:1;visibility:visible;display:inline;overflow:visible"
       d="M 32.5,5.4164252 C 32.297411,5.822444 32.394769,6.2290738 32.80112,6.3528249 C 33.349276,6.5197629 33.686715,6.2310572 34.644299,6.5117631 L 34.813312,6.1730378 C 33.933468,5.7805237 34.02435,5.2108132 33.563945,5 C 33.179237,4.8238475 32.70259,5.0104064 32.5,5.4164252 z "
       id="path3010"
       sodipodi:nodetypes="csccsc" />
    <path
       sodipodi:nodetypes="csccsc"
       id="path3008"
       d="M 33.5,3.4164257 C 33.297411,3.8224448 33.394769,4.2290741 33.801121,4.3528262 C 34.349275,4.5197638 34.686715,4.2310579 35.6443,4.5117637 L 35.81331,4.1730377 C 34.933468,3.7805244 35.024351,3.2108135 34.563944,3 C 34.179237,2.8238476 33.70259,3.010406 33.5,3.4164257 z "
       style="opacity:1;color:black;fill:#2e3436;fill-opacity:1;fill-rule:nonzero;stroke:none;stroke-width:1;stroke-linecap:round;stroke-linejoin:round;marker:none;marker-start:none;marker-mid:none;marker-end:none;stroke-miterlimit:4;stroke-dasharray:none;stroke-dashoffset:0;stroke-opacity:1;visibility:visible;display:inline;overflow:visible" />
    <path
       sodipodi:nodetypes="csccsc"
       id="path3006"
       d="M 39.736494,5.5388493 C 39.533906,5.944868 39.142438,6.127671 38.786706,5.9024761 C 38.30683,5.598693 38.329429,5.1658272 37.5,4.6282855 L 37.669013,4.2895609 C 38.540443,4.698929 38.946165,4.2733777 39.40657,4.4841907 C 39.791278,4.6603433 39.939086,5.1328301 39.736494,5.5388493 z "
       style="opacity:1;color:black;fill:#2e3436;fill-opacity:1;fill-rule:nonzero;stroke:none;stroke-width:1;stroke-linecap:round;stroke-linejoin:round;marker:none;marker-start:none;marker-mid:none;marker-end:none;stroke-miterlimit:4;stroke-dasharray:none;stroke-dashoffset:0;stroke-opacity:1;visibility:visible;display:inline;overflow:visible" />
    <path
       style="opacity:1;color:black;fill:#2e3436;fill-opacity:1;fill-rule:nonzero;stroke:none;stroke-width:1;stroke-linecap:round;stroke-linejoin:round;marker:none;marker-start:none;marker-mid:none;marker-end:none;stroke-miterlimit:4;stroke-dasharray:none;stroke-dashoffset:0;stroke-opacity:1;visibility:visible;display:inline;overflow:visible"
       d="M 39,7.2492888 C 38.797409,7.655308 38.405943,7.8381109 38.05021,7.6129154 C 37.570336,7.3091323 37.592935,6.8762672 36.763503,6.3387256 L 36.932516,6 C 37.803949,6.4093686 38.209667,5.9838169 38.670075,6.1946304 C 39.054783,6.370783 39.20259,6.8432691 39,7.2492888 z "
       id="path3003"
       sodipodi:nodetypes="csccsc" />
    <path
       style="opacity:1;color:black;fill:#e9b96e;fill-opacity:1;fill-rule:evenodd;stroke:#8f5902;stroke-width:1.04905736;stroke-linecap:butt;stroke-linejoin:round;marker:none;marker-start:none;marker-mid:none;marker-end:none;stroke-miterlimit:4;stroke-dasharray:none;stroke-dashoffset:0;stroke-opacity:1;visibility:visible;display:inline;overflow:visible"
       d="M 35.40123,8.9189712 C 35.411965,8.919872 37.268044,5.2830929 37.944887,3.7827075 C 38.455462,3.2780966 38.822133,3.5083069 39.199034,3.0089172 C 39.558108,2.5331432 38.94859,1.5979345 38.927196,0.99324153 L 37.981891,0.53068255 C 37.439518,1.0879995 36.420482,0.84010216 36.188795,1.6289136 C 36.071165,2.0294094 36.703733,2.4852773 36.459761,3.1026911 C 35.484625,4.3459741 33.644645,8.1146574 33.644645,8.1146574 L 35.40123,8.9189712 z "
       id="rect2932" />
    <path
       style="opacity:1;color:black;fill:#555753;fill-opacity:1;fill-rule:nonzero;stroke:url(#linearGradient3130);stroke-width:1.04905736;stroke-linecap:round;stroke-linejoin:round;marker:none;marker-start:none;marker-mid:none;marker-end:none;stroke-miterlimit:4;stroke-dasharray:none;stroke-dashoffset:0;stroke-opacity:1;visibility:visible;display:inline;overflow:visible"
       d="M 19.832467,34.255481 L 22.590989,35.794624 C 21.783508,37.694371 20.17396,38.629703 19.035072,40.593076 L 18.053013,39.618038 C 18.696146,37.896351 19.044135,35.491558 19.832467,34.255481 z "
       id="rect3015"
       sodipodi:nodetypes="ccccc" />
    <path
       sodipodi:nodetypes="ccccc"
       d="M 29.020036,18.063794 L 23.999732,27.145887 C 23.999732,27.145887 23.675724,28.158669 25.096582,28.778572 C 26.680012,29.385935 27.127826,28.070828 27.127826,28.070828 L 30.869695,18.411797"
       style="opacity:0.3169643;color:black;fill:#060706;fill-opacity:1;fill-rule:nonzero;stroke:black;stroke-width:1.04905736;stroke-linecap:butt;stroke-linejoin:round;marker:none;marker-start:none;marker-mid:none;marker-end:none;stroke-miterlimit:4;stroke-dasharray:none;stroke-dashoffset:0;stroke-opacity:1;visibility:visible;display:inline;overflow:visible"
       id="path2823" />
    <path
       id="rect2927"
       style="opacity:1;color:black;fill:url(#linearGradient3090);fill-opacity:1;fill-rule:nonzero;stroke:url(#linearGradient3098);stroke-width:1.04905736;stroke-linecap:butt;stroke-linejoin:round;marker:none;marker-start:none;marker-mid:none;marker-end:none;stroke-miterlimit:4;stroke-dasharray:none;stroke-dashoffset:0;stroke-opacity:1;visibility:visible;display:inline;overflow:visible"
       d="M 24.784082,27.416136 C 26.180012,28.085999 26.799241,27.208392 26.799241,27.208392 L 35.880418,7.7823567 L 34.25173,7.0366052 L 23.687232,25.783451 C 23.687232,25.783451 23.363224,26.796233 24.784082,27.416136 z "
       sodipodi:nodetypes="cccccc" />
    <path
       style="opacity:1;color:black;fill:url(#linearGradient3114);fill-opacity:1;fill-rule:nonzero;stroke:url(#linearGradient3112);stroke-width:1.04905736;stroke-linecap:round;stroke-linejoin:round;marker:none;marker-start:none;marker-mid:none;marker-end:none;stroke-miterlimit:4;stroke-dasharray:none;stroke-dashoffset:0;stroke-opacity:1;visibility:visible;display:inline;overflow:visible"
       d="M 19.723192,42.694298 C 18.523925,45.361784 15.882906,44.337395 14.326391,43.039024 C 11.936478,41.045469 10.980067,39.890247 11.620816,38.606092 C 12.261565,37.32194 14.449571,37.421719 16.738096,38.4696 C 19.026614,39.51748 20.36394,41.410145 19.723192,42.694298 z "
       id="path3012"
       sodipodi:nodetypes="csssc" />
    <path
       id="path3174"
       d="M 37.944887,3.7827075 C 38.455462,3.2780966 38.822133,3.5083069 39.199034,3.0089172 C 39.558108,2.5331432 38.94859,1.5979345 38.927196,0.99324153 L 37.981891,0.53068255 C 37.439518,1.0879995 36.420482,0.84010216 36.188795,1.6289136 C 36.071165,2.0294094 36.703733,2.4852773 36.459761,3.1026911 L 37.944887,3.7827075 z "
       style="opacity:1;color:black;fill:url(#radialGradient2858);fill-opacity:1;fill-rule:evenodd;stroke:#6c4300;stroke-width:1.04905736;stroke-linecap:butt;stroke-linejoin:round;marker:none;marker-start:none;marker-mid:none;marker-end:none;stroke-miterlimit:4;stroke-dasharray:none;stroke-dashoffset:0;stroke-opacity:1;visibility:visible;display:inline;overflow:visible"
       sodipodi:nodetypes="csccscc" />
    <path
       style="opacity:0.28125;color:black;fill:#dadada;fill-opacity:1;fill-rule:evenodd;stroke:none;stroke-width:1.09712696;stroke-linecap:butt;stroke-linejoin:round;marker:none;marker-start:none;marker-mid:none;marker-end:none;stroke-miterlimit:4;stroke-dashoffset:0;stroke-opacity:1;visibility:visible;display:inline;overflow:visible"
       d="M 23.442289,26.533027 L 26.736136,27.755338 L 22.695967,35.759754 L 19.748908,34.084894 L 23.442289,26.533027 z "
       id="rect3176"
       sodipodi:nodetypes="ccccc" />
    <path
       sodipodi:nodetypes="cssss"
       id="path2813"
       d="M 14.746236,42.088849 C 12.936546,40.713339 12.183317,39.585227 12.455628,39.036939 C 12.727938,38.48865 14.076036,38.406335 16.318251,39.463968 C 18.509079,40.497362 19.255659,41.851046 18.515886,42.731459 C 17.719927,43.678739 16.658599,43.542398 14.746236,42.088849 z "
       style="opacity:1;color:black;fill:none;fill-opacity:1;fill-rule:nonzero;stroke:url(#linearGradient2821);stroke-width:1.04905736;stroke-linecap:round;stroke-linejoin:round;marker:none;marker-start:none;marker-mid:none;marker-end:none;stroke-miterlimit:4;stroke-dasharray:none;stroke-dashoffset:0;stroke-opacity:1;visibility:visible;display:inline;overflow:visible" />
    <path
       style="opacity:0.73660715;fill:none;fill-opacity:0.75;fill-rule:evenodd;stroke:#f7e3c2;stroke-width:1px;stroke-linecap:round;stroke-linejoin:miter;stroke-opacity:1"
       d="M 37.09375,1.867187 L 38.179688,1.476562"
       id="path2825"
       sodipodi:nodetypes="cc" />
    <path
       sodipodi:nodetypes="csccscc"
       style="opacity:1;color:black;fill:none;fill-opacity:1;fill-rule:evenodd;stroke:#8f5902;stroke-width:1.04905736;stroke-linecap:butt;stroke-linejoin:round;marker:none;marker-start:none;marker-mid:none;marker-end:none;stroke-miterlimit:4;stroke-dasharray:none;stroke-dashoffset:0;stroke-opacity:1;visibility:visible;display:inline;overflow:visible"
       d="M 37.944887,3.7827075 C 38.455462,3.2780966 38.822133,3.5083069 39.199034,3.0089172 C 39.558108,2.5331432 38.94859,1.5979345 38.927196,0.99324153 L 37.981891,0.53068255 C 37.439518,1.0879995 36.420482,0.84010216 36.188795,1.6289136 C 36.071165,2.0294094 36.703733,2.4852773 36.459761,3.1026911 L 37.944887,3.7827075 z "
       id="path2827" />
  </g>
</svg>
