<?xml version="1.0" encoding="UTF-8" standalone="no"?>
<!-- Created with Inkscape (http://www.inkscape.org/) -->
<svg
   xmlns:dc="http://purl.org/dc/elements/1.1/"
   xmlns:cc="http://web.resource.org/cc/"
   xmlns:rdf="http://www.w3.org/1999/02/22-rdf-syntax-ns#"
   xmlns:svg="http://www.w3.org/2000/svg"
   xmlns="http://www.w3.org/2000/svg"
   xmlns:xlink="http://www.w3.org/1999/xlink"
   xmlns:sodipodi="http://inkscape.sourceforge.net/DTD/sodipodi-0.dtd"
   xmlns:inkscape="http://www.inkscape.org/namespaces/inkscape"
   width="48px"
   height="48px"
   id="svg1800"
   sodipodi:version="0.32"
   inkscape:version="0.43"
   sodipodi:docbase="/home/laszlo/Software/SVN/svn2/JonoEdit/Instruments/images"
   sodipodi:docname="vocal.svg">
  <defs
     id="defs3">
    <linearGradient
       id="linearGradient3641">
      <stop
         id="stop3643"
         offset="0"
         style="stop-color:#000000;stop-opacity:1;" />
      <stop
         style="stop-color:#ffffff;stop-opacity:1;"
         offset="0.35714287"
         id="stop3645" />
      <stop
         id="stop3647"
         offset="1.0000000"
         style="stop-color:#000000;stop-opacity:1.0000000;" />
    </linearGradient>
    <linearGradient
       id="linearGradient2508">
      <stop
         style="stop-color:#393939;stop-opacity:1.0000000;"
         offset="0.0000000"
         id="stop2510" />
      <stop
         id="stop2512"
         offset="0.35714287"
         style="stop-color:#ffffff;stop-opacity:1;" />
      <stop
         style="stop-color:#000000;stop-opacity:1.0000000;"
         offset="1.0000000"
         id="stop2514" />
    </linearGradient>
    <linearGradient
       id="linearGradient2688"
       inkscape:collect="always">
      <stop
         id="stop2690"
         offset="0"
         style="stop-color:#ffffff;stop-opacity:1;" />
      <stop
         id="stop2692"
         offset="1"
         style="stop-color:#ffffff;stop-opacity:0;" />
    </linearGradient>
    <linearGradient
       id="linearGradient2641">
      <stop
         id="stop2643"
         offset="0.0000000"
         style="stop-color:#393939;stop-opacity:1.0000000;" />
      <stop
         style="stop-color:#747474;stop-opacity:1.0000000;"
         offset="0.15887851"
         id="stop2649" />
      <stop
         id="stop2645"
         offset="1.0000000"
         style="stop-color:#000000;stop-opacity:1.0000000;" />
    </linearGradient>
    <linearGradient
       id="linearGradient2384">
      <stop
         id="stop2386"
         offset="0"
         style="stop-color:#b6b6b6;stop-opacity:1;" />
      <stop
         id="stop2388"
         offset="1.0000000"
         style="stop-color:#6a6a6a;stop-opacity:1.0000000;" />
    </linearGradient>
    <linearGradient
       id="linearGradient2831">
      <stop
         style="stop-color:#000000;stop-opacity:0.0000000;"
         offset="0.0000000"
         id="stop2833" />
      <stop
         id="stop2839"
         offset="0.77570093"
         style="stop-color:#4d4d4d;stop-opacity:0.88165683;" />
      <stop
         style="stop-color:#595959;stop-opacity:0.0000000;"
         offset="1.0000000"
         id="stop2835" />
    </linearGradient>
    <linearGradient
       inkscape:collect="always"
       xlink:href="#linearGradient2641"
       id="linearGradient4977"
       gradientUnits="userSpaceOnUse"
       gradientTransform="matrix(1.110316,-1.826777e-17,1.826777e-17,1.110316,-4.880762,-4.200812)"
       x1="21.5"
       y1="34.272079"
       x2="29.5"
       y2="34.272079" />
    <linearGradient
       inkscape:collect="always"
       xlink:href="#linearGradient2641"
       id="linearGradient4979"
       gradientUnits="userSpaceOnUse"
       gradientTransform="matrix(1.110316,-1.826777e-17,1.826777e-17,1.110316,-4.880762,-4.200812)"
       x1="21.062729"
       y1="19.938795"
       x2="29.968515"
       y2="19.938795" />
    <linearGradient
       inkscape:collect="always"
       xlink:href="#linearGradient3641"
       id="linearGradient4981"
       gradientUnits="userSpaceOnUse"
       gradientTransform="matrix(-4.172496e-2,-0.98619,1.139976,-3.609617e-2,10.62768,34.81121)"
       x1="30.4375"
       y1="17.125"
       x2="16.625"
       y2="-1.75" />
    <linearGradient
       inkscape:collect="always"
       xlink:href="#linearGradient2831"
       id="linearGradient4983"
       gradientUnits="userSpaceOnUse"
       gradientTransform="matrix(-4.172496e-2,-0.98619,1.139976,-3.609617e-2,10.62768,34.81121)"
       x1="-1.0079365"
       y1="14.119439"
       x2="48.295628"
       y2="6.6948175" />
    <radialGradient
       inkscape:collect="always"
       xlink:href="#linearGradient2384"
       id="radialGradient4985"
       gradientUnits="userSpaceOnUse"
       gradientTransform="matrix(1.709921,-1.148563,0.508836,0.778916,-24.81842,32.62618)"
       cx="26"
       cy="12.5"
       fx="26"
       fy="12.5"
       r="7.6113734" />
    <linearGradient
       inkscape:collect="always"
       xlink:href="#linearGradient3641"
       id="linearGradient4987"
       gradientUnits="userSpaceOnUse"
       gradientTransform="matrix(1.110316,-1.826777e-17,1.826777e-17,1.110316,-4.880757,-4.200812)"
       x1="30.4375"
       y1="17.125"
       x2="16.625"
       y2="-1.75" />
    <linearGradient
       inkscape:collect="always"
       xlink:href="#linearGradient2831"
       id="linearGradient4989"
       gradientUnits="userSpaceOnUse"
       gradientTransform="matrix(1.110316,-1.826777e-17,1.826777e-17,1.110316,-4.880757,-4.200812)"
       x1="-1.0079365"
       y1="14.119439"
       x2="48.295628"
       y2="6.6948175" />
    <linearGradient
       inkscape:collect="always"
       xlink:href="#linearGradient2641"
       id="linearGradient4991"
       gradientUnits="userSpaceOnUse"
       gradientTransform="matrix(0.983105,-1.61748e-17,1.621642e-17,0.985635,-1.652217,-1.333164)"
       x1="21.062729"
       y1="19.938795"
       x2="29.968515"
       y2="19.938795" />
    <radialGradient
       inkscape:collect="always"
       xlink:href="#linearGradient2688"
       id="radialGradient4993"
       gradientUnits="userSpaceOnUse"
       cx="25"
       cy="12"
       fx="25"
       fy="12"
       r="3.0625" />
    <linearGradient
       inkscape:collect="always"
       xlink:href="#linearGradient2508"
       id="linearGradient4995"
       gradientUnits="userSpaceOnUse"
       gradientTransform="matrix(1.110316,-1.826777e-17,1.826777e-17,1.110316,-5.261656,-2.579536)"
       x1="17.949301"
       y1="10.92049"
       x2="32.5"
       y2="10.92049" />
    <linearGradient
       inkscape:collect="always"
       xlink:href="#linearGradient2688"
       id="linearGradient4997"
       gradientUnits="userSpaceOnUse"
       gradientTransform="matrix(1.110316,-1.826777e-17,1.826777e-17,1.110316,-2.584968,-2.671241)"
       x1="15.675801"
       y1="32.673508"
       x2="27.432306"
       y2="32.894478" />
  </defs>
  <sodipodi:namedview
     fill="#edd400"
     id="base"
     pagecolor="#ffffff"
     bordercolor="#666666"
     borderopacity="0.20392157"
     inkscape:pageopacity="0.0"
     inkscape:pageshadow="2"
     inkscape:zoom="5.6568542"
     inkscape:cx="25.046921"
     inkscape:cy="35.996546"
     inkscape:current-layer="layer1"
     showgrid="false"
     inkscape:grid-bbox="true"
     inkscape:document-units="px"
     inkscape:showpageshadow="false"
     inkscape:window-width="1280"
     inkscape:window-height="952"
     inkscape:window-x="0"
     inkscape:window-y="0"
     inkscape:grid-points="true"
     guidecolor="#0000ff"
     guideopacity="0.20392157"
     gridempcolor="#3f3fff"
     gridempopacity="0.16470588"
     gridcolor="#3f3f37"
     gridopacity="0.08235294" />
  <metadata
     id="metadata4">
    <rdf:RDF>
      <cc:Work
         rdf:about="">
        <dc:format>image/svg+xml</dc:format>
        <dc:type
           rdf:resource="http://purl.org/dc/dcmitype/StillImage" />
        <cc:license
           rdf:resource="http://creativecommons.org/licenses/by-sa/2.0/" />
        <dc:title>Emblem Photos</dc:title>
        <dc:creator>
          <cc:Agent>
            <dc:title>Jakub Steiner</dc:title>
          </cc:Agent>
        </dc:creator>
        <dc:subject>
          <rdf:Bag>
            <rdf:li>emblem</rdf:li>
            <rdf:li>photos</rdf:li>
            <rdf:li>pictures</rdf:li>
            <rdf:li>raw</rdf:li>
            <rdf:li>jpeg</rdf:li>
          </rdf:Bag>
        </dc:subject>
      </cc:Work>
      <cc:License
         rdf:about="http://creativecommons.org/licenses/by-sa/2.0/">
        <cc:permits
           rdf:resource="http://web.resource.org/cc/Reproduction" />
        <cc:permits
           rdf:resource="http://web.resource.org/cc/Distribution" />
        <cc:requires
           rdf:resource="http://web.resource.org/cc/Notice" />
        <cc:requires
           rdf:resource="http://web.resource.org/cc/Attribution" />
        <cc:permits
           rdf:resource="http://web.resource.org/cc/DerivativeWorks" />
        <cc:requires
           rdf:resource="http://web.resource.org/cc/ShareAlike" />
      </cc:License>
    </rdf:RDF>
  </metadata>
  <g
     id="layer1"
     inkscape:label="Layer 1"
     inkscape:groupmode="layer">
    <g
       id="g4966"
       transform="matrix(0.866559,0.831335,-0.831335,0.866559,23.64464,-15.44439)">
      <path
         sodipodi:nodetypes="csccscc"
         id="path1891"
         d="M 20.656506,45.763408 C 20.656506,45.763408 22.010725,46.873724 23.39862,46.873724 C 24.786515,46.873724 26.208086,45.763408 26.208086,45.763408 L 27.318402,20.830325 C 27.318402,20.830325 25.09777,21.336456 22.877138,21.336456 C 20.656506,21.336456 19.54619,20.830325 19.54619,20.830325 L 20.656506,45.763408 z "
         style="fill:url(#linearGradient4977);fill-opacity:1;fill-rule:evenodd;stroke:#000000;stroke-width:0.83274281px;stroke-linecap:butt;stroke-linejoin:miter;stroke-opacity:1" />
      <path
         sodipodi:nodetypes="csccscc"
         id="path3652"
         d="M 19.54619,20.776752 C 19.54619,20.776752 21.844121,21.336446 23.411608,21.336446 C 24.979093,21.336446 27.318402,20.776752 27.318402,20.776752 L 27.838602,14.538657 C 27.838602,14.538657 25.330625,14.670766 22.822647,14.670766 C 20.314669,14.670766 19.06068,14.538657 19.06068,14.538657 L 19.54619,20.776752 z "
         style="fill:url(#linearGradient4979);fill-opacity:1;fill-rule:evenodd;stroke:#000000;stroke-width:0.83274245px;stroke-linecap:butt;stroke-linejoin:miter;stroke-opacity:1" />
      <path
         id="path4940"
         d="M 15.781438,9.9144995 C 16.181806,13.506024 19.563437,16.259291 23.535583,16.133518 C 27.669204,16.002633 30.885512,12.798631 30.724512,8.9933025 C 30.563512,5.1879749 27.085055,2.1959574 22.951436,2.326843 C 18.817817,2.4577297 15.601508,5.6617301 15.762509,9.4670588 C 15.768796,9.6157046 15.765166,9.7685007 15.781438,9.9144995 z M 16.745007,11.548129 C 16.747377,11.540375 16.741256,11.523909 16.743656,11.516168 C 16.734365,11.493531 16.749975,11.475003 16.74095,11.452249 C 16.774297,11.349541 16.838983,11.260531 16.877657,11.159895 C 16.957915,11.271568 17.065109,11.364097 17.151712,11.471246 C 17.067052,11.592953 16.9828,11.70448 16.906053,11.831055 C 16.862862,11.740304 16.7838,11.640928 16.745007,11.548129 z M 16.658467,9.5026955 C 16.660837,9.4949433 16.654715,9.4784762 16.657116,9.470734 C 16.647825,9.4480957 16.663434,9.4295701 16.654411,9.4068153 C 16.687757,9.3041066 16.752443,9.2150982 16.791117,9.1144636 C 16.871375,9.2261336 16.97857,9.318664 17.065171,9.4258117 C 16.980512,9.547519 16.896259,9.6590469 16.819513,9.7856196 C 16.77632,9.6948724 16.697258,9.5954946 16.658467,9.5026955 z M 16.571926,7.457262 C 16.574295,7.4495092 16.568174,7.4330428 16.570573,7.4253009 C 16.561284,7.4026634 16.576893,7.3841363 16.56787,7.3613824 C 16.601217,7.258674 16.665902,7.1696652 16.704576,7.0690289 C 16.784834,7.1806992 16.892029,7.27323 16.978629,7.3803784 C 16.893971,7.5020858 16.80972,7.6136128 16.732973,7.7401866 C 16.689781,7.6494375 16.610718,7.5500605 16.571926,7.457262 z M 17.233554,12.524744 C 17.328807,12.343408 17.471538,12.173494 17.584106,12.0016 C 17.751489,12.174507 17.905429,12.34035 18.089589,12.497637 C 17.919212,12.666151 17.7797,12.841286 17.627377,13.024317 C 17.499746,12.860581 17.344769,12.69904 17.233554,12.524744 z M 17.147013,10.479311 C 17.242267,10.297974 17.384997,10.128062 17.497566,9.9561664 C 17.664947,10.129075 17.818886,10.294916 18.003048,10.452204 C 17.832672,10.620718 17.693158,10.795852 17.540836,10.978884 C 17.413204,10.815148 17.258229,10.653607 17.147013,10.479311 z M 17.060471,8.4338754 C 17.155727,8.2525409 17.298457,8.0826279 17.411026,7.9107336 C 17.578407,8.08364 17.732346,8.2494838 17.916507,8.4067709 C 17.746132,8.5752841 17.606619,8.7504198 17.454295,8.9334487 C 17.326664,8.7697138 17.171688,8.6081717 17.060471,8.4338754 z M 16.973931,6.3884427 C 17.069185,6.2071073 17.211915,6.0371944 17.324486,5.8652997 C 17.491867,6.0382072 17.645806,6.2040502 17.829966,6.3613371 C 17.65959,6.5298511 17.520078,6.7049858 17.367756,6.8880164 C 17.240124,6.7242803 17.085147,6.5627394 16.973931,6.3884427 z M 18.05842,13.522711 C 18.233812,13.306045 18.388138,13.093165 18.591012,12.897795 C 18.882049,13.106584 19.226431,13.305715 19.547177,13.475573 C 19.241645,13.665259 18.913658,13.853679 18.641044,14.080313 C 18.42754,13.902735 18.247579,13.722186 18.05842,13.522711 z M 17.97188,11.477278 C 18.14727,11.260611 18.301597,11.047731 18.504472,10.852363 C 18.795508,11.06115 19.139892,11.260281 19.460637,11.430139 C 19.155103,11.619826 18.827117,11.808246 18.554503,12.034879 C 18.340999,11.857303 18.161038,11.676752 17.97188,11.477278 z M 17.885339,9.4318441 C 18.060731,9.2151781 18.215058,9.0022972 18.417932,8.8069293 C 18.708969,9.0157165 19.053351,9.2148483 19.374097,9.3847045 C 19.068561,9.5743931 18.740576,9.7628104 18.467962,9.9894459 C 18.254459,9.8118697 18.074499,9.6313179 17.885339,9.4318441 z M 17.798799,7.3864109 C 17.974189,7.1697449 18.128515,6.9568645 18.331389,6.761496 C 18.622427,6.9702828 18.966809,7.1694143 19.287553,7.3392711 C 18.982022,7.5289586 18.654036,7.7173771 18.381421,7.9440121 C 18.167918,7.7664354 17.987957,7.5858852 17.798799,7.3864109 z M 17.712257,5.3409774 C 17.887649,5.1243114 18.041974,4.9114311 18.24485,4.7160626 C 18.535886,4.9248495 18.880269,5.123981 19.201014,5.2938374 C 18.895481,5.4835255 18.567496,5.6719436 18.294882,5.8985788 C 18.081377,5.7210021 17.901417,5.5404516 17.712257,5.3409774 z M 19.18104,14.511253 C 19.506868,14.252187 19.857688,14.008704 20.23199,13.805917 C 21.000009,14.122455 21.850095,14.32547 22.716838,14.399296 C 21.87801,14.524841 21.087549,14.762588 20.361869,15.113918 C 20.351403,15.109244 20.33509,15.119811 20.324651,15.115095 C 20.316295,15.119177 20.295769,15.112165 20.287432,15.116273 C 19.896995,14.937701 19.527889,14.749016 19.18104,14.511253 z M 19.094499,12.465819 C 19.420329,12.206755 19.771147,11.96327 20.145451,11.760484 C 20.913468,12.077021 21.763555,12.280036 22.630295,12.353863 C 21.791469,12.479408 21.001007,12.717154 20.27533,13.068483 C 19.861861,12.883929 19.459848,12.716263 19.094499,12.465819 z M 19.007959,10.420385 C 19.333788,10.161322 19.684606,9.9178371 20.05891,9.7150512 C 20.826928,10.031588 21.677014,10.234603 22.543755,10.308427 C 21.70493,10.433974 20.914466,10.671719 20.188789,11.02305 C 19.775321,10.838496 19.373306,10.67083 19.007959,10.420385 z M 18.921417,8.3749502 C 19.247247,8.1158874 19.598066,7.8724036 19.97237,7.6696177 C 20.740387,7.9861542 21.590473,8.1891695 22.457215,8.2629931 C 21.618389,8.3885404 20.827926,8.6262854 20.102247,8.977616 C 19.688779,8.7930604 19.286766,8.625396 18.921417,8.3749502 z M 18.834877,6.3295177 C 19.160706,6.0704542 19.511525,5.8269703 19.885829,5.6241839 C 20.653846,5.9407211 21.503934,6.1437354 22.370673,6.2175602 C 21.531849,6.3431072 20.741384,6.5808523 20.015707,6.932182 C 19.60224,6.7476275 19.200225,6.579963 18.834877,6.3295177 z M 18.748335,4.2840843 C 19.074165,4.0250207 19.424986,3.7815369 19.799288,3.5787505 C 20.567307,3.8952876 21.417392,4.098302 22.284134,4.1721269 C 21.445308,4.2976738 20.654844,4.535419 19.929165,4.8867486 C 19.515698,4.702194 19.113684,4.5345295 18.748335,4.2840843 z M 21.196913,15.471509 C 21.980014,15.168779 22.806667,14.9725 23.708867,14.943932 C 24.611068,14.915364 25.492049,15.057574 26.295903,15.310056 C 25.515534,15.612697 24.647577,15.778283 23.745375,15.806849 C 22.843176,15.835417 22.003501,15.723903 21.196913,15.471509 z M 21.110371,13.426075 C 21.893472,13.123346 22.720126,12.927066 23.622326,12.898499 C 24.524529,12.869932 25.405507,13.01214 26.209363,13.26462 C 25.428995,13.567263 24.561038,13.732848 23.658835,13.761415 C 22.756635,13.789983 21.91696,13.678469 21.110371,13.426075 z M 21.023831,11.38064 C 21.806932,11.077913 22.633585,10.881633 23.535785,10.853065 C 24.437987,10.824498 25.318967,10.966708 26.122822,11.219187 C 25.342454,11.521828 24.474497,11.687414 23.572294,11.715983 C 22.670094,11.74455 21.830418,11.633034 21.023831,11.38064 z M 20.93729,9.3352077 C 21.720391,9.0324789 22.547044,8.8361995 23.449245,8.8076322 C 24.351446,8.7790637 25.232426,8.921273 26.036282,9.1737533 C 25.255914,9.4763977 24.387956,9.6419813 23.485755,9.6705476 C 22.583554,9.6991171 21.743878,9.5876014 20.93729,9.3352077 z M 20.850749,7.2897737 C 21.633851,6.9870456 22.460504,6.7907655 23.362704,6.7621982 C 24.264907,6.7336308 25.145885,6.8758405 25.94974,7.1283197 C 25.169372,7.4309624 24.301416,7.5965481 23.399213,7.6251154 C 22.497014,7.6536829 21.657337,7.5421677 20.850749,7.2897737 z M 20.764208,5.2443404 C 21.547309,4.9416121 22.373963,4.745332 23.276164,4.7167649 C 24.178365,4.6881976 25.059344,4.8304072 25.8632,5.0828864 C 25.082831,5.3855293 24.214874,5.5511148 23.312674,5.5796821 C 22.410474,5.6082493 21.570797,5.4967343 20.764208,5.2443404 z M 20.677669,3.1989072 C 21.460769,2.8961778 22.287423,2.6998978 23.189623,2.6713306 C 24.091824,2.6427632 24.972803,2.7849728 25.776659,3.0374529 C 24.99629,3.3400959 24.128332,3.5056805 23.226133,3.5342476 C 22.323932,3.5628149 21.484255,3.4513007 20.677669,3.1989072 z M 24.689438,14.336835 C 25.540147,14.209389 26.348441,13.948913 27.080272,13.589074 C 27.468976,13.767701 27.843145,13.988228 28.188015,14.226055 C 27.855527,14.491964 27.482228,14.69412 27.098493,14.900609 C 26.347893,14.596023 25.535621,14.409028 24.689438,14.336835 z M 24.602898,12.291401 C 25.453605,12.163956 26.2619,11.90348 26.99373,11.543641 C 27.382435,11.722267 27.756604,11.942795 28.101476,12.180623 C 27.777623,12.439622 27.421742,12.651265 27.049171,12.853998 C 26.288891,12.541404 25.462099,12.364704 24.602898,12.291401 z M 24.516358,10.245967 C 25.367063,10.118521 26.175359,9.8580455 26.907191,9.4982065 C 27.295894,9.6768342 27.670065,9.8973618 28.014935,10.135188 C 27.691083,10.394189 27.335199,10.605831 26.96263,10.808563 C 26.20235,10.495971 25.375558,10.319271 24.516358,10.245967 z M 24.429816,8.2005338 C 25.280524,8.073088 26.088819,7.8126127 26.82065,7.4527737 C 27.209355,7.6313998 27.583524,7.8519281 27.928393,8.0897543 C 27.604543,8.3487567 27.24866,8.560397 26.876089,8.7631296 C 26.115809,8.4505379 25.289017,8.2738372 24.429816,8.2005338 z M 24.343277,6.1550999 C 25.193982,6.0276542 26.002277,5.7671786 26.734108,5.4073403 C 27.122813,5.5859668 27.496982,5.8064947 27.841854,6.0443212 C 27.518002,6.3033219 27.162118,6.5149638 26.789548,6.7176954 C 26.029269,6.4051042 25.202476,6.2284032 24.343277,6.1550999 z M 24.256735,4.1096666 C 25.107442,3.9822208 25.915737,3.7217442 26.647568,3.3619069 C 27.036273,3.5405334 27.410441,3.7610613 27.755313,3.9988878 C 27.431462,4.2578885 27.075577,4.4695305 26.703009,4.6722621 C 25.942729,4.3596709 25.115936,4.1829698 24.256735,4.1096666 z M 27.772557,13.215124 C 28.076649,13.025482 28.369064,12.806187 28.640119,12.579602 C 28.852277,12.757222 29.072122,12.936508 29.259961,13.136025 C 29.083797,13.356114 28.894596,13.563934 28.69015,13.762118 C 28.400672,13.553282 28.091861,13.385025 27.772557,13.215124 z M 27.686016,11.169688 C 27.990109,10.980049 28.282523,10.760752 28.553578,10.534169 C 28.765738,10.711786 28.985581,10.891075 29.173421,11.090591 C 28.997257,11.310681 28.808054,11.518501 28.603611,11.716685 C 28.314131,11.50785 28.005321,11.339592 27.686016,11.169688 z M 27.599475,9.1242565 C 27.903569,8.9346146 28.19598,8.7153205 28.467036,8.488735 C 28.679196,8.6663533 28.899039,8.8456405 29.086879,9.0451565 C 28.910716,9.2652467 28.721514,9.4730668 28.517068,9.6712515 C 28.227591,9.4624144 27.91878,9.2941593 27.599475,9.1242565 z M 27.512935,7.0788229 C 27.817027,6.8891814 28.10944,6.6698865 28.380497,6.4433015 C 28.592655,6.6209197 28.812498,6.8002074 29.000339,6.9997234 C 28.824175,7.2198138 28.634973,7.4276337 28.430528,7.6258181 C 28.141051,7.4169807 27.832241,7.248726 27.512935,7.0788229 z M 27.426394,5.0333894 C 27.730488,4.843748 28.0229,4.624453 28.293956,4.3978683 C 28.506115,4.5754864 28.725958,4.754774 28.913798,4.9542899 C 28.737634,5.1743804 28.548431,5.3822002 28.343988,5.5803844 C 28.054508,5.3715471 27.7457,5.2032925 27.426394,5.0333894 z M 29.106386,12.148803 C 29.275687,11.980321 29.454551,11.803942 29.605814,11.620945 C 29.723189,11.774613 29.857981,11.926882 29.961068,12.089737 C 29.861714,12.280588 29.730292,12.464482 29.611868,12.644841 C 29.450215,12.477761 29.283749,12.301207 29.106386,12.148803 z M 29.019845,10.103369 C 29.189147,9.9348894 29.368011,9.758509 29.519274,9.5755112 C 29.636648,9.7291811 29.771442,9.8814476 29.874527,10.044304 C 29.775172,10.235155 29.643752,10.41905 29.525327,10.599407 C 29.363674,10.432326 29.197209,10.255773 29.019845,10.103369 z M 28.933305,8.0579348 C 29.102606,7.8894564 29.28147,7.7130754 29.432734,7.5300778 C 29.550106,7.683746 29.684901,7.8360146 29.787987,7.9988693 C 29.688632,8.1897207 29.557209,8.3736155 29.438786,8.5539727 C 29.277134,8.3868934 29.110667,8.2103403 28.933305,8.0579348 z M 28.846764,6.0125017 C 29.016065,5.8440228 29.19493,5.667642 29.346192,5.4846449 C 29.463567,5.6383132 29.598362,5.7905816 29.701447,5.9534368 C 29.602091,6.1442871 29.470669,6.3281825 29.352247,6.50854 C 29.190593,6.3414601 29.024127,6.1649064 28.846764,6.0125017 z M 29.956371,11.097801 C 30.043753,10.971248 30.160396,10.868628 30.239246,10.736815 C 30.292939,10.849439 30.35471,10.935915 30.401643,11.051701 C 30.362075,11.180689 30.316854,11.314153 30.268995,11.439933 C 30.180394,11.314461 30.052899,11.217613 29.956371,11.097801 z M 29.869828,9.052368 C 29.957214,8.9258142 30.073856,8.8231944 30.152706,8.6913821 C 30.206397,8.8040059 30.268171,8.8904806 30.315104,9.0062666 C 30.275535,9.1352564 30.230314,9.2687198 30.182454,9.3944997 C 30.093854,9.2690295 29.966357,9.17218 29.869828,9.052368 z M 29.783287,7.0069344 C 29.870672,6.8803799 29.987314,6.7777615 30.066166,6.6459482 C 30.119857,6.7585713 30.18163,6.845048 30.228563,6.9608329 C 30.188993,7.0898225 30.143773,7.2232859 30.095913,7.3490656 C 30.007311,7.2235944 29.879817,7.1267462 29.783287,7.0069344 z "
         style="fill:url(#linearGradient4981);fill-opacity:1;stroke:url(#linearGradient4983);stroke-width:0.1040929;stroke-linecap:round;stroke-linejoin:round;stroke-miterlimit:4;stroke-dasharray:none;stroke-dashoffset:0;stroke-opacity:1" />
      <path
         transform="matrix(1.142992,0,0,1.147247,-6.285388,-5.189536)"
         d="M 33 12.5 A 7 6.5 0 1 1  19,12.5 A 7 6.5 0 1 1  33 12.5 z"
         sodipodi:ry="6.5"
         sodipodi:rx="7"
         sodipodi:cy="12.5"
         sodipodi:cx="26"
         id="path4898"
         style="opacity:0.82748539;fill:url(#radialGradient4985);fill-opacity:1;stroke:#000000;stroke-width:0.90901488;stroke-linecap:round;stroke-linejoin:round;stroke-miterlimit:4;stroke-dasharray:none;stroke-dashoffset:0;stroke-opacity:1"
         sodipodi:type="arc" />
      <path
         id="path1893"
         d="M 22.928541,1.8367177 C 18.876131,2.0783434 15.660085,5.2542744 15.660084,9.1230729 C 15.660084,13.14914 19.148019,16.40943 23.432296,16.409428 C 27.716574,16.409428 31.204507,13.149141 31.204508,9.1230729 C 31.204508,5.0970063 27.716575,1.8367177 23.432296,1.8367177 C 23.264942,1.8367177 23.093275,1.8268958 22.928541,1.8367177 z M 21.057454,2.7067303 C 21.066085,2.7093531 21.084818,2.7040773 21.093437,2.7067303 C 21.11922,2.6986265 21.139496,2.7145708 21.165401,2.7067303 C 21.279694,2.7433926 21.377469,2.8099742 21.489243,2.8517324 C 21.360827,2.9252021 21.252975,3.0256607 21.129419,3.1054861 C 20.99559,3.018131 20.873193,2.9315914 20.733611,2.8517324 C 20.837184,2.8134553 20.951734,2.7406434 21.057454,2.7067303 z M 23.360331,2.7067303 C 23.368963,2.7093531 23.387696,2.7040773 23.396314,2.7067303 C 23.422098,2.6986265 23.442373,2.7145708 23.468278,2.7067303 C 23.582572,2.7433926 23.680346,2.8099742 23.792121,2.8517324 C 23.663705,2.9252021 23.555852,3.0256607 23.432296,3.1054861 C 23.298468,3.018131 23.176071,2.9315914 23.03649,2.8517324 C 23.140061,2.8134553 23.254611,2.7406434 23.360331,2.7067303 z M 25.663209,2.7067303 C 25.67184,2.7093531 25.690574,2.7040773 25.699192,2.7067303 C 25.724976,2.6986265 25.745251,2.7145708 25.771156,2.7067303 C 25.88545,2.7433926 25.983224,2.8099742 26.094998,2.8517324 C 25.966584,2.9252021 25.85873,3.0256607 25.735174,3.1054861 C 25.601345,3.018131 25.478948,2.9315914 25.339367,2.8517324 C 25.442939,2.8134553 25.557489,2.7406434 25.663209,2.7067303 z M 19.941997,3.1417366 C 20.142492,3.2418507 20.328453,3.387674 20.517717,3.5042418 C 20.317348,3.6599346 20.125401,3.8028429 19.941997,3.9754986 C 19.758594,3.8028429 19.566647,3.6599346 19.366278,3.5042418 C 19.55492,3.3868354 19.742067,3.2427416 19.941997,3.1417366 z M 22.244875,3.1417366 C 22.44537,3.2418507 22.631331,3.387674 22.820594,3.5042418 C 22.620226,3.6599346 22.428279,3.8028429 22.244875,3.9754986 C 22.061471,3.8028429 21.869524,3.6599346 21.669156,3.5042418 C 21.857797,3.3868354 22.044944,3.2427416 22.244875,3.1417366 z M 24.547753,3.1417366 C 24.748247,3.2418507 24.934209,3.387674 25.123472,3.5042418 C 24.923103,3.6599346 24.731156,3.8028429 24.547753,3.9754986 C 24.364349,3.8028429 24.172402,3.6599346 23.972033,3.5042418 C 24.160675,3.3868354 24.347822,3.2427416 24.547753,3.1417366 z M 26.850631,3.1417366 C 27.051125,3.2418507 27.237086,3.387674 27.426349,3.5042418 C 27.225981,3.6599346 27.034034,3.8028429 26.850631,3.9754986 C 26.667226,3.8028429 26.475279,3.6599346 26.274911,3.5042418 C 26.463552,3.3868354 26.650699,3.2427416 26.850631,3.1417366 z M 18.790558,3.9029976 C 19.027925,4.0825137 19.261784,4.2413838 19.474225,4.4467554 C 19.229113,4.7212479 18.992958,5.0480269 18.790558,5.3530185 C 18.58816,5.0480269 18.387986,4.7212479 18.142874,4.4467554 C 18.350135,4.2463928 18.559545,4.0787796 18.790558,3.9029976 z M 21.093437,3.9029976 C 21.330802,4.0825137 21.564661,4.2413838 21.777103,4.4467554 C 21.53199,4.7212479 21.295835,5.0480269 21.093437,5.3530185 C 20.891037,5.0480269 20.690864,4.7212479 20.445752,4.4467554 C 20.653012,4.2463928 20.862422,4.0787796 21.093437,3.9029976 z M 23.396314,3.9029976 C 23.63368,4.0825137 23.867539,4.2413838 24.07998,4.4467554 C 23.834868,4.7212479 23.598713,5.0480269 23.396314,5.3530185 C 23.193915,5.0480269 22.993743,4.7212479 22.748629,4.4467554 C 22.95589,4.2463928 23.1653,4.0787796 23.396314,3.9029976 z M 25.699192,3.9029976 C 25.936557,4.0825137 26.170417,4.2413838 26.382858,4.4467554 C 26.137746,4.7212479 25.90159,5.0480269 25.699192,5.3530185 C 25.496792,5.0480269 25.29662,4.7212479 25.051507,4.4467554 C 25.258767,4.2463928 25.468177,4.0787796 25.699192,3.9029976 z M 28.002069,3.9029976 C 28.239435,4.0825137 28.473294,4.2413838 28.685735,4.4467554 C 28.440623,4.7212479 28.204468,5.0480269 28.002069,5.3530185 C 27.79967,5.0480269 27.599498,4.7212479 27.354384,4.4467554 C 27.561645,4.2463928 27.771055,4.0787796 28.002069,3.9029976 z M 17.639119,4.9542627 C 17.9188,5.2818515 18.180073,5.6331057 18.394751,6.0055279 C 18.011508,6.7395355 17.752983,7.5580412 17.639119,8.398063 C 17.527823,7.5769888 17.288655,6.798339 16.91947,6.078029 C 16.925096,6.0680401 16.913795,6.0517384 16.91947,6.0417785 C 16.915179,6.0334832 16.923793,6.0138059 16.91947,6.0055279 C 17.13415,5.6331057 17.35944,5.2818515 17.639119,4.9542627 z M 19.941997,4.9542627 C 20.221678,5.2818515 20.482951,5.6331057 20.697629,6.0055279 C 20.314386,6.7395355 20.055861,7.5580412 19.941997,8.398063 C 19.830702,7.5769888 19.591532,6.798339 19.222348,6.078029 C 19.444573,5.6834528 19.647401,5.2993225 19.941997,4.9542627 z M 22.244875,4.9542627 C 22.524555,5.2818515 22.785828,5.6331057 23.000507,6.0055279 C 22.617263,6.7395355 22.358738,7.5580412 22.244875,8.398063 C 22.13358,7.5769888 21.894411,6.798339 21.525225,6.078029 C 21.747451,5.6834528 21.950279,5.2993225 22.244875,4.9542627 z M 24.547753,4.9542627 C 24.827433,5.2818515 25.088706,5.6331057 25.303384,6.0055279 C 24.920141,6.7395355 24.661616,7.5580412 24.547753,8.398063 C 24.436457,7.5769888 24.197288,6.798339 23.828103,6.078029 C 24.050329,5.6834528 24.253156,5.2993225 24.547753,4.9542627 z M 26.850631,4.9542627 C 27.13031,5.2818515 27.391583,5.6331057 27.606262,6.0055279 C 27.223018,6.7395355 26.964493,7.5580412 26.850631,8.398063 C 26.739335,7.5769888 26.500166,6.798339 26.130981,6.078029 C 26.353207,5.6834528 26.556034,5.2993225 26.850631,4.9542627 z M 29.153508,4.9542627 C 29.433188,5.2818515 29.694461,5.6331057 29.909139,6.0055279 C 29.525896,6.7395355 29.267371,7.5580412 29.153508,8.398063 C 29.042212,7.5769888 28.803044,6.798339 28.433859,6.078029 C 28.656084,5.6834528 28.858911,5.2993225 29.153508,4.9542627 z M 16.487681,6.8755405 C 16.800177,7.6497045 16.991435,8.4618498 16.991435,9.3405761 C 16.991435,10.219303 16.800177,11.070361 16.487681,11.841863 C 16.175185,11.070361 16.019909,10.219303 16.019909,9.3405761 C 16.019909,8.4618498 16.175185,7.6497045 16.487681,6.8755405 z M 18.790558,6.8755405 C 19.103054,7.6497045 19.294313,8.4618498 19.294313,9.3405761 C 19.294313,10.219303 19.103054,11.070361 18.790558,11.841863 C 18.478063,11.070361 18.322786,10.219303 18.322786,9.3405761 C 18.322786,8.4618498 18.478063,7.6497045 18.790558,6.8755405 z M 21.093437,6.8755405 C 21.405932,7.6497045 21.59719,8.4618498 21.59719,9.3405761 C 21.59719,10.219303 21.405932,11.070361 21.093437,11.841863 C 20.78094,11.070361 20.625664,10.219303 20.625664,9.3405761 C 20.625664,8.4618498 20.78094,7.6497045 21.093437,6.8755405 z M 23.396314,6.8755405 C 23.708809,7.6497045 23.900068,8.4618498 23.900068,9.3405761 C 23.900068,10.219303 23.708809,11.070361 23.396314,11.841863 C 23.083818,11.070361 22.928541,10.219303 22.928541,9.3405761 C 22.928541,8.4618498 23.083818,7.6497045 23.396314,6.8755405 z M 25.699192,6.8755405 C 26.011687,7.6497045 26.202946,8.4618498 26.202946,9.3405761 C 26.202946,10.219303 26.011687,11.070361 25.699192,11.841863 C 25.386696,11.070361 25.231419,10.219303 25.231419,9.3405761 C 25.231419,8.4618498 25.386696,7.6497045 25.699192,6.8755405 z M 28.002069,6.8755405 C 28.314564,7.6497045 28.505823,8.4618498 28.505823,9.3405761 C 28.505823,10.219303 28.314564,11.070361 28.002069,11.841863 C 27.689573,11.070361 27.534297,10.219303 27.534297,9.3405761 C 27.534297,8.4618498 27.689573,7.6497045 28.002069,6.8755405 z M 30.304947,6.8755405 C 30.617443,7.6497045 30.808702,8.4618498 30.808702,9.3405761 C 30.808702,10.219303 30.617443,11.070361 30.304947,11.841863 C 29.992451,11.070361 29.837175,10.219303 29.837175,9.3405761 C 29.837175,8.4618498 29.992451,7.6497045 30.304947,6.8755405 z M 17.639119,10.319341 C 17.752127,11.15205 18.016219,11.94898 18.394751,12.675624 C 18.180073,13.046358 17.9188,13.401228 17.639119,13.726889 C 17.35198,13.392542 17.137976,13.021123 16.91947,12.639374 C 17.288655,11.921817 17.527823,11.139432 17.639119,10.319341 z M 19.941997,10.319341 C 20.055005,11.15205 20.319097,11.94898 20.697629,12.675624 C 20.482951,13.046358 20.221678,13.401228 19.941997,13.726889 C 19.662317,13.401228 19.437027,13.046358 19.222348,12.675624 C 19.60088,11.94898 19.828989,11.15205 19.941997,10.319341 z M 22.244875,10.319341 C 22.357883,11.15205 22.621974,11.94898 23.000507,12.675624 C 22.785828,13.046358 22.524555,13.401228 22.244875,13.726889 C 21.965195,13.401228 21.739905,13.046358 21.525225,12.675624 C 21.903758,11.94898 22.131868,11.15205 22.244875,10.319341 z M 24.547753,10.319341 C 24.660761,11.15205 24.924852,11.94898 25.303384,12.675624 C 25.088706,13.046358 24.827433,13.401228 24.547753,13.726889 C 24.268072,13.401228 24.042782,13.046358 23.828103,12.675624 C 24.206635,11.94898 24.434745,11.15205 24.547753,10.319341 z M 26.850631,10.319341 C 26.963639,11.15205 27.227729,11.94898 27.606262,12.675624 C 27.391583,13.046358 27.13031,13.401228 26.850631,13.726889 C 26.570951,13.401228 26.34566,13.046358 26.130981,12.675624 C 26.509513,11.94898 26.737623,11.15205 26.850631,10.319341 z M 29.153508,10.319341 C 29.266516,11.15205 29.530608,11.94898 29.909139,12.675624 C 29.694461,13.046358 29.433188,13.401228 29.153508,13.726889 C 28.873828,13.401228 28.648538,13.046358 28.433859,12.675624 C 28.81239,11.94898 29.0405,11.15205 29.153508,10.319341 z M 18.790558,13.364385 C 18.992958,13.667974 19.229113,13.961423 19.474225,14.234397 C 19.266965,14.43345 19.057556,14.639908 18.826541,14.814405 C 18.585353,14.633998 18.358424,14.441412 18.142874,14.234397 C 18.387986,13.961423 18.58816,13.667974 18.790558,13.364385 z M 21.093437,13.364385 C 21.295835,13.667974 21.53199,13.961423 21.777103,14.234397 C 21.569843,14.43345 21.360433,14.639908 21.129419,14.814405 C 20.88823,14.633998 20.661303,14.441412 20.445752,14.234397 C 20.690864,13.961423 20.891037,13.667974 21.093437,13.364385 z M 23.396314,13.364385 C 23.598713,13.667974 23.834868,13.961423 24.07998,14.234397 C 23.872721,14.43345 23.663311,14.639908 23.432296,14.814405 C 23.191108,14.633998 22.96418,14.441412 22.748629,14.234397 C 22.993743,13.961423 23.193915,13.667974 23.396314,13.364385 z M 25.699192,13.364385 C 25.90159,13.667974 26.137746,13.961423 26.382858,14.234397 C 26.175598,14.43345 25.966188,14.639908 25.735174,14.814405 C 25.493985,14.633998 25.267058,14.441412 25.051507,14.234397 C 25.29662,13.961423 25.496792,13.667974 25.699192,13.364385 z M 28.002069,13.364385 C 28.204468,13.667974 28.440623,13.961423 28.685735,14.234397 C 28.478476,14.43345 28.269066,14.639908 28.038051,14.814405 C 27.796863,14.633998 27.569935,14.441412 27.354384,14.234397 C 27.599498,13.961423 27.79967,13.667974 28.002069,13.364385 z M 19.941997,14.705654 C 20.125401,14.877262 20.317348,15.058499 20.517717,15.213161 C 20.34076,15.321003 20.164757,15.445848 19.97798,15.539416 C 19.766932,15.434921 19.564848,15.299522 19.366278,15.176911 C 19.55989,15.026551 19.764326,14.871899 19.941997,14.705654 z M 22.244875,14.705654 C 22.428279,14.877262 22.620226,15.058499 22.820594,15.213161 C 22.643638,15.321003 22.467635,15.445848 22.280857,15.539416 C 22.06981,15.434921 21.867726,15.299522 21.669156,15.176911 C 21.862768,15.026551 22.067204,14.871899 22.244875,14.705654 z M 24.547753,14.705654 C 24.731156,14.877262 24.923103,15.058499 25.123472,15.213161 C 24.946515,15.321003 24.770512,15.445848 24.583735,15.539416 C 24.372688,15.434921 24.170603,15.299522 23.972033,15.176911 C 24.165646,15.026551 24.370081,14.871899 24.547753,14.705654 z M 26.850631,14.705654 C 27.034034,14.877262 27.225981,15.058499 27.426349,15.213161 C 27.249393,15.321003 27.07339,15.445848 26.886613,15.539416 C 26.675566,15.434921 26.473481,15.299522 26.274911,15.176911 C 26.468523,15.026551 26.672959,14.871899 26.850631,14.705654 z M 21.093437,15.575667 C 21.232617,15.665872 21.343845,15.78355 21.489243,15.86567 C 21.360702,15.91326 21.261273,15.969787 21.129419,16.010673 C 20.985797,15.966876 20.837347,15.917399 20.697629,15.86567 C 20.841858,15.784654 20.955289,15.664627 21.093437,15.575667 z M 23.396314,15.575667 C 23.535495,15.665872 23.646723,15.78355 23.792121,15.86567 C 23.66358,15.91326 23.564151,15.969787 23.432296,16.010673 C 23.288675,15.966876 23.140224,15.917399 23.000507,15.86567 C 23.144736,15.784654 23.258167,15.664627 23.396314,15.575667 z M 25.699192,15.575667 C 25.838373,15.665872 25.9496,15.78355 26.094998,15.86567 C 25.966458,15.91326 25.867028,15.969787 25.735174,16.010673 C 25.591552,15.966876 25.443102,15.917399 25.303384,15.86567 C 25.447613,15.784654 25.561044,15.664627 25.699192,15.575667 z "
         style="fill:url(#linearGradient4987);fill-opacity:1;stroke:url(#linearGradient4989);stroke-width:0.10409285;stroke-linecap:round;stroke-linejoin:round;stroke-miterlimit:4;stroke-dasharray:none;stroke-dashoffset:0;stroke-opacity:1" />
      <path
         sodipodi:nodetypes="csccscc"
         id="path4910"
         d="M 19.976074,20.839602 C 19.976074,20.839602 22.010726,21.336446 23.398621,21.336446 C 24.786515,21.336446 26.857804,20.839602 26.857804,20.839602 L 27.318403,15.302 C 27.318403,15.302 25.097771,15.419274 22.87714,15.419274 C 20.656507,15.419274 19.546191,15.302 19.546191,15.302 L 19.976074,20.839602 z "
         style="fill:url(#linearGradient4991);fill-opacity:1;fill-rule:evenodd;stroke:none;stroke-width:0.99999952px;stroke-linecap:butt;stroke-linejoin:miter;stroke-opacity:1" />
      <path
         transform="matrix(1.295369,0,0,1.295369,-11.00996,-9.623472)"
         d="M 28 12 A 3 3 0 1 1  22,12 A 3 3 0 1 1  28 12 z"
         sodipodi:ry="3"
         sodipodi:rx="3"
         sodipodi:cy="12"
         sodipodi:cx="25"
         id="path4946"
         style="opacity:0.6959064;fill:url(#radialGradient4993);fill-opacity:1;stroke:none;stroke-width:0.125;stroke-linecap:round;stroke-linejoin:round;stroke-miterlimit:4;stroke-dasharray:none;stroke-dashoffset:0;stroke-opacity:1"
         sodipodi:type="arc" />
      <path
         sodipodi:nodetypes="csscc"
         id="path2768"
         d="M 15.596369,8.5236244 C 15.596369,8.5236244 15.527416,9.7214644 15.620903,10.233296 C 15.769195,11.045177 31.247516,11.268844 31.205285,10.233296 C 31.184862,9.7324954 31.135891,8.5930192 31.135891,8.5930192 C 28.103853,9.3728585 18.714475,9.3021536 15.596369,8.5236244 z "
         style="fill:url(#linearGradient4995);fill-opacity:1;fill-rule:evenodd;stroke:#000000;stroke-width:0.17695785;stroke-linecap:butt;stroke-linejoin:miter;stroke-miterlimit:4;stroke-dasharray:none;stroke-opacity:1" />
      <path
         sodipodi:nodetypes="csccscc"
         id="path4956"
         d="M 21.841984,45.228264 C 21.841984,45.228264 22.207004,45.597916 23.594899,45.597916 C 24.982794,45.597916 25.172932,45.072347 25.172932,45.072347 L 26.827707,15.628958 C 26.827707,15.628958 25.735673,16.204131 23.515041,16.204131 C 21.294409,16.204131 20.093764,15.63358 20.093764,15.63358 L 21.841984,45.228264 z "
         style="opacity:0.16959061;fill:none;fill-opacity:1;fill-rule:evenodd;stroke:url(#linearGradient4997);stroke-width:0.83274281px;stroke-linecap:butt;stroke-linejoin:miter;stroke-opacity:1" />
    </g>
  </g>
</svg>
