<?xml version="1.0" encoding="UTF-8" standalone="no"?>
<!-- Created with Inkscape (http://www.inkscape.org/) -->
<svg
   xmlns:dc="http://purl.org/dc/elements/1.1/"
   xmlns:cc="http://web.resource.org/cc/"
   xmlns:rdf="http://www.w3.org/1999/02/22-rdf-syntax-ns#"
   xmlns:svg="http://www.w3.org/2000/svg"
   xmlns="http://www.w3.org/2000/svg"
   xmlns:xlink="http://www.w3.org/1999/xlink"
   xmlns:sodipodi="http://sodipodi.sourceforge.net/DTD/sodipodi-0.dtd"
   xmlns:inkscape="http://www.inkscape.org/namespaces/inkscape"
   width="48px"
   height="48px"
   id="svg1800"
   sodipodi:version="0.32"
   inkscape:version="0.43+devel"
   sodipodi:docbase="/home/andreas/projekt/tango"
   sodipodi:docname="vocal.svg"
   inkscape:export-filename="/home/andreas/projekt/tango/vocal.png"
   inkscape:export-xdpi="90"
   inkscape:export-ydpi="90">
  <defs
     id="defs3">
    <linearGradient
       inkscape:collect="always"
       id="linearGradient7793">
      <stop
         style="stop-color:black;stop-opacity:1;"
         offset="0"
         id="stop7795" />
      <stop
         style="stop-color:black;stop-opacity:0;"
         offset="1"
         id="stop7797" />
    </linearGradient>
    <linearGradient
       inkscape:collect="always"
       id="linearGradient7717">
      <stop
         style="stop-color:#888a85;stop-opacity:1"
         offset="0"
         id="stop7719" />
      <stop
         style="stop-color:#1b1e1f;stop-opacity:1"
         offset="1"
         id="stop7721" />
    </linearGradient>
    <linearGradient
       inkscape:collect="always"
       id="linearGradient7672">
      <stop
         style="stop-color:white;stop-opacity:1;"
         offset="0"
         id="stop7674" />
      <stop
         style="stop-color:white;stop-opacity:0;"
         offset="1"
         id="stop7676" />
    </linearGradient>
    <linearGradient
       inkscape:collect="always"
       id="linearGradient7660">
      <stop
         style="stop-color:#eeeeec;stop-opacity:1"
         offset="0"
         id="stop7662" />
      <stop
         style="stop-color:#888a85;stop-opacity:1"
         offset="1"
         id="stop7664" />
    </linearGradient>
    <linearGradient
       inkscape:collect="always"
       id="linearGradient7652">
      <stop
         style="stop-color:#2e3436;stop-opacity:1;"
         offset="0"
         id="stop7654" />
      <stop
         style="stop-color:#2e3436;stop-opacity:0;"
         offset="1"
         id="stop7656" />
    </linearGradient>
    <linearGradient
       inkscape:collect="always"
       id="linearGradient7644">
      <stop
         style="stop-color:#888a85;stop-opacity:1;"
         offset="0"
         id="stop7646" />
      <stop
         style="stop-color:#888a85;stop-opacity:0;"
         offset="1"
         id="stop7648" />
    </linearGradient>
    <linearGradient
       inkscape:collect="always"
       id="linearGradient7628">
      <stop
         style="stop-color:#abaca8;stop-opacity:1"
         offset="0"
         id="stop7630" />
      <stop
         style="stop-color:#40413e;stop-opacity:1"
         offset="1"
         id="stop7632" />
    </linearGradient>
    <linearGradient
       id="linearGradient3641">
      <stop
         id="stop3643"
         offset="0"
         style="stop-color:#000000;stop-opacity:1;" />
      <stop
         style="stop-color:#ffffff;stop-opacity:1;"
         offset="0.35714287"
         id="stop3645" />
      <stop
         id="stop3647"
         offset="1.0000000"
         style="stop-color:#000000;stop-opacity:1.0000000;" />
    </linearGradient>
    <linearGradient
       id="linearGradient2508">
      <stop
         style="stop-color:#393939;stop-opacity:1.0000000;"
         offset="0.0000000"
         id="stop2510" />
      <stop
         id="stop2512"
         offset="0.35714287"
         style="stop-color:#ffffff;stop-opacity:1;" />
      <stop
         style="stop-color:#000000;stop-opacity:1.0000000;"
         offset="1.0000000"
         id="stop2514" />
    </linearGradient>
    <linearGradient
       id="linearGradient2384">
      <stop
         id="stop2386"
         offset="0"
         style="stop-color:#b6b6b6;stop-opacity:1;" />
      <stop
         id="stop2388"
         offset="1.0000000"
         style="stop-color:#6a6a6a;stop-opacity:1.0000000;" />
    </linearGradient>
    <linearGradient
       id="linearGradient2831">
      <stop
         style="stop-color:#000000;stop-opacity:0.0000000;"
         offset="0.0000000"
         id="stop2833" />
      <stop
         id="stop2839"
         offset="0.77570093"
         style="stop-color:#4d4d4d;stop-opacity:0.88165683;" />
      <stop
         style="stop-color:#595959;stop-opacity:0.0000000;"
         offset="1.0000000"
         id="stop2835" />
    </linearGradient>
    <radialGradient
       inkscape:collect="always"
       xlink:href="#linearGradient2384"
       id="radialGradient4985"
       gradientUnits="userSpaceOnUse"
       gradientTransform="matrix(1.709921,-1.148563,0.508836,0.778916,-24.81842,32.62618)"
       cx="26"
       cy="12.5"
       fx="26"
       fy="12.5"
       r="7.6113734" />
    <radialGradient
       inkscape:collect="always"
       xlink:href="#linearGradient7628"
       id="radialGradient7634"
       cx="40.862995"
       cy="11.092547"
       fx="40.862995"
       fy="11.092547"
       r="8.2745577"
       gradientUnits="userSpaceOnUse"
       gradientTransform="matrix(0.704314,-0.147122,0.127716,0.611413,8.030288,9.362145)" />
    <linearGradient
       inkscape:collect="always"
       xlink:href="#linearGradient7644"
       id="linearGradient7650"
       x1="25.412125"
       y1="33.06237"
       x2="25.412125"
       y2="42.519924"
       gradientUnits="userSpaceOnUse"
       gradientTransform="matrix(1,0,0,1.08333,0,-2.166592)" />
    <linearGradient
       inkscape:collect="always"
       xlink:href="#linearGradient7652"
       id="linearGradient7658"
       x1="25.412125"
       y1="33.06237"
       x2="25.412125"
       y2="42.519924"
       gradientUnits="userSpaceOnUse"
       gradientTransform="matrix(1,0,0,1.08333,0,-2.166592)" />
    <linearGradient
       inkscape:collect="always"
       xlink:href="#linearGradient7672"
       id="linearGradient7678"
       x1="24.5"
       y1="29.8125"
       x2="24.5"
       y2="41.8125"
       gradientUnits="userSpaceOnUse" />
    <linearGradient
       inkscape:collect="always"
       xlink:href="#linearGradient7672"
       id="linearGradient7680"
       x1="26.5"
       y1="30.418655"
       x2="26.5"
       y2="41.625"
       gradientUnits="userSpaceOnUse" />
    <linearGradient
       inkscape:collect="always"
       xlink:href="#linearGradient2508"
       id="linearGradient7688"
       gradientUnits="userSpaceOnUse"
       gradientTransform="matrix(0.528855,0.843439,-0.856653,0.500246,33.20989,-13.86044)"
       x1="17.949301"
       y1="10.92049"
       x2="32.5"
       y2="10.92049" />
    <linearGradient
       inkscape:collect="always"
       xlink:href="#linearGradient3641"
       id="linearGradient7695"
       gradientUnits="userSpaceOnUse"
       gradientTransform="matrix(0.536466,0.851779,-0.868981,0.505192,34.84987,-14.32453)"
       x1="30.4375"
       y1="17.125"
       x2="16.625"
       y2="-1.75" />
    <linearGradient
       inkscape:collect="always"
       xlink:href="#linearGradient2831"
       id="linearGradient7697"
       gradientUnits="userSpaceOnUse"
       gradientTransform="matrix(0.536466,0.851779,-0.868981,0.505192,34.84987,-14.32453)"
       x1="-1.0079365"
       y1="14.119439"
       x2="48.295628"
       y2="6.6948175" />
    <linearGradient
       inkscape:collect="always"
       xlink:href="#linearGradient3641"
       id="linearGradient7701"
       gradientUnits="userSpaceOnUse"
       gradientTransform="matrix(0.751675,-0.480724,0.579047,0.858109,11.81051,15.32316)"
       x1="30.4375"
       y1="17.125"
       x2="16.625"
       y2="-1.75" />
    <linearGradient
       inkscape:collect="always"
       xlink:href="#linearGradient2831"
       id="linearGradient7703"
       gradientUnits="userSpaceOnUse"
       gradientTransform="matrix(0.751675,-0.480724,0.579047,0.858109,11.81051,15.32316)"
       x1="-1.0079365"
       y1="14.119439"
       x2="48.295628"
       y2="6.6948175" />
    <linearGradient
       inkscape:collect="always"
       xlink:href="#linearGradient7717"
       id="linearGradient7748"
       gradientUnits="userSpaceOnUse"
       gradientTransform="matrix(0.5,0.866025,-1.053086,0.608,40.22391,20.40624)"
       x1="-11"
       y1="15.28125"
       x2="-5.3125"
       y2="15.28125" />
    <linearGradient
       inkscape:collect="always"
       xlink:href="#linearGradient7660"
       id="linearGradient7789"
       gradientUnits="userSpaceOnUse"
       gradientTransform="matrix(1.097142,0,0,1.166667,28.71939,-11.06828)"
       x1="-18.031248"
       y1="35.124985"
       x2="-18.031248"
       y2="39.999985" />
    <linearGradient
       inkscape:collect="always"
       xlink:href="#linearGradient7793"
       id="linearGradient7799"
       x1="7.1012464"
       y1="35.732235"
       x2="12.838498"
       y2="42.361359"
       gradientUnits="userSpaceOnUse"
       gradientTransform="matrix(1.046217,0,0,1,-0.619456,0)" />
  </defs>
  <sodipodi:namedview
     fill="#edd400"
     id="base"
     pagecolor="#ffffff"
     bordercolor="#666666"
     borderopacity="0.20392157"
     inkscape:pageopacity="0.0"
     inkscape:pageshadow="2"
     inkscape:zoom="2.8284271"
     inkscape:cx="25.05399"
     inkscape:cy="14.356653"
     inkscape:current-layer="layer1"
     showgrid="false"
     inkscape:grid-bbox="true"
     inkscape:document-units="px"
     inkscape:showpageshadow="false"
     inkscape:window-width="1270"
     inkscape:window-height="945"
     inkscape:window-x="0"
     inkscape:window-y="25"
     inkscape:grid-points="true"
     guidecolor="#0000ff"
     guideopacity="0.20392157"
     gridempcolor="#3f3fff"
     gridempopacity="0.16470588"
     gridcolor="#3f3f37"
     gridopacity="0.08235294" />
  <metadata
     id="metadata4">
    <rdf:RDF>
      <cc:Work
         rdf:about="">
        <dc:format>image/svg+xml</dc:format>
        <dc:type
           rdf:resource="http://purl.org/dc/dcmitype/StillImage" />
        <cc:license
           rdf:resource="http://creativecommons.org/licenses/GPL/2.0/" />
        <dc:title>Vocal instrument</dc:title>
        <dc:creator>
          <cc:Agent>
            <dc:title></dc:title>
          </cc:Agent>
        </dc:creator>
        <dc:subject>
          <rdf:Bag>
            <rdf:li>microphone</rdf:li>
            <rdf:li>mic</rdf:li>
            <rdf:li>vocal</rdf:li>
            <rdf:li>voice</rdf:li>
          </rdf:Bag>
        </dc:subject>
        <dc:date>July 2006</dc:date>
        <dc:contributor>
          <cc:Agent>
            <dc:title></dc:title>
          </cc:Agent>
        </dc:contributor>
        <dc:source>http://www.jokosher.org</dc:source>
      </cc:Work>
      <cc:License
         rdf:about="http://creativecommons.org/licenses/GPL/2.0/">
        <cc:permits
           rdf:resource="http://web.resource.org/cc/Reproduction" />
        <cc:permits
           rdf:resource="http://web.resource.org/cc/Distribution" />
        <cc:requires
           rdf:resource="http://web.resource.org/cc/Notice" />
        <cc:permits
           rdf:resource="http://web.resource.org/cc/DerivativeWorks" />
        <cc:requires
           rdf:resource="http://web.resource.org/cc/ShareAlike" />
        <cc:requires
           rdf:resource="http://web.resource.org/cc/SourceCode" />
      </cc:License>
    </rdf:RDF>
  </metadata>
  <g
     id="layer1"
     inkscape:label="Layer 1"
     inkscape:groupmode="layer">
    <path
       style="fill:url(#linearGradient7748);fill-opacity:1;fill-rule:evenodd;stroke:black;stroke-width:1.00000012px;stroke-linecap:butt;stroke-linejoin:miter;stroke-opacity:1"
       d="M 31,12.418325 L 8.0936504,27.987011 C 8.0936504,27.987011 7.6655634,29.677543 8.2905634,30.760075 C 8.9155635,31.842607 10.59365,32.317138 10.59365,32.317138 L 36,20 L 31,12.418325 z "
       id="path7744"
       sodipodi:nodetypes="cczccc" />
    <path
       style="opacity:0.2;fill:none;fill-opacity:1;fill-rule:evenodd;stroke:white;stroke-width:1.00000012px;stroke-linecap:butt;stroke-linejoin:miter;stroke-opacity:1"
       d="M 31,13.553447 L 8.9191665,28.592931 C 8.9191665,28.592931 8.5999484,29.210245 9.2249481,30.292776 C 9.8499481,31.375308 11,31 11,31 L 35,19 L 31,13.553447 z "
       id="path7746"
       sodipodi:nodetypes="cczccc" />
    <path
       style="fill:url(#linearGradient7701);fill-opacity:1;stroke:url(#linearGradient7703);stroke-width:0.12500006;stroke-linecap:round;stroke-linejoin:round;stroke-miterlimit:4;stroke-dasharray:none;stroke-dashoffset:0;stroke-opacity:1"
       d="M 33.785865,7.9489096 C 31.168427,9.8901884 30.647488,13.737138 32.665125,16.727143 C 34.764782,19.838698 38.826379,20.848274 41.726804,18.993346 C 44.627227,17.138418 45.28824,13.108558 43.188583,9.997005 C 41.088926,6.8854524 37.027329,5.8758747 34.126905,7.7308036 C 34.013606,7.8032602 33.892268,7.8699974 33.785865,7.9489096 z M 32.972879,9.4314097 C 32.980093,9.4296998 32.990022,9.4175121 32.99724,9.4158311 C 33.010468,9.3984037 33.032511,9.4019487 33.045959,9.3846722 C 33.142454,9.3635224 33.243371,9.3726469 33.340819,9.3565265 C 33.292197,9.4689074 33.271572,9.5932418 33.229557,9.7084318 C 33.093399,9.6988614 32.965405,9.684972 32.829261,9.6836869 C 32.879418,9.6092614 32.918994,9.5033931 32.972879,9.4314097 z M 34.53191,8.4343524 C 34.539122,8.4326433 34.549052,8.4204543 34.556272,8.4187736 C 34.5695,8.4013456 34.591541,8.4048909 34.60499,8.3876155 C 34.701486,8.3664647 34.802402,8.3755899 34.899849,8.3594701 C 34.851229,8.4718497 34.830604,8.5961855 34.788588,8.7113734 C 34.65243,8.7018038 34.524436,8.6879141 34.388293,8.6866287 C 34.438447,8.6122034 34.478024,8.5063343 34.53191,8.4343524 z M 36.090941,7.4372943 C 36.098153,7.4355842 36.108083,7.4233963 36.115301,7.4217141 C 36.12853,7.4042881 36.150572,7.4078327 36.164021,7.3905577 C 36.260517,7.3694078 36.361432,7.378532 36.45888,7.3624115 C 36.41026,7.4747912 36.389635,7.5991272 36.347618,7.7143146 C 36.211461,7.7047459 36.083468,7.6908573 35.947324,7.6895717 C 35.997479,7.6151463 36.037056,7.5092767 36.090941,7.4372943 z M 32.444587,10.250556 C 32.632531,10.241122 32.834476,10.273308 33.023396,10.281453 C 32.968946,10.488533 32.913528,10.682086 32.879408,10.89493 C 32.665202,10.840899 32.460726,10.813558 32.243881,10.779982 C 32.310361,10.607571 32.361911,10.415179 32.444587,10.250556 z M 34.003617,9.2534986 C 34.191563,9.2440647 34.393505,9.2762504 34.582428,9.2843956 C 34.527974,9.491475 34.472558,9.6850266 34.438438,9.8978722 C 34.224232,9.8438418 34.019757,9.8164992 33.802911,9.7829246 C 33.869391,9.6105122 33.920941,9.4181223 34.003617,9.2534986 z M 35.562649,8.2564388 C 35.750593,8.2470076 35.952537,8.2791928 36.141458,8.2873386 C 36.087007,8.494417 36.031588,8.6879699 35.997469,8.9008143 C 35.783264,8.8467843 35.578787,8.8194433 35.361943,8.7858657 C 35.428422,8.6134545 35.479973,8.4210634 35.562649,8.2564388 z M 37.121679,7.2593818 C 37.309624,7.2499487 37.511567,7.282134 37.70049,7.2902811 C 37.646037,7.49736 37.590619,7.6909125 37.5565,7.9037561 C 37.342294,7.8497257 37.137818,7.822385 36.920974,7.7888097 C 36.987454,7.6163972 37.039003,7.4240058 37.121679,7.2593818 z M 32.062081,11.337425 C 32.316397,11.373395 32.557571,11.394926 32.808497,11.461668 C 32.785709,11.779935 32.796254,12.134732 32.818289,12.458078 C 32.52221,12.309995 32.216273,12.144111 31.907182,12.038093 C 31.943004,11.793506 31.997359,11.573299 32.062081,11.337425 z M 33.621112,10.340368 C 33.875427,10.376336 34.116602,10.397868 34.367527,10.464611 C 34.34474,10.782877 34.355286,11.137675 34.37732,11.46102 C 34.08124,11.312937 33.775303,11.147053 33.466213,11.041035 C 33.502034,10.796449 33.55639,10.576241 33.621112,10.340368 z M 35.180143,9.34331 C 35.434458,9.3792794 35.675634,9.400811 35.926559,9.4675538 C 35.903772,9.7858205 35.914316,10.140618 35.936352,10.463962 C 35.64027,10.315878 35.334335,10.149994 35.025243,10.043977 C 35.061065,9.7993913 35.115422,9.5791843 35.180143,9.34331 z M 36.739174,8.3462528 C 36.993488,8.3822207 37.234663,8.4037517 37.485588,8.4704942 C 37.462802,8.7887616 37.473346,9.1435587 37.495381,9.466902 C 37.199302,9.3188213 36.893366,9.1529369 36.584274,9.0469187 C 36.620096,8.8023329 36.674451,8.5821258 36.739174,8.3462528 z M 38.298204,7.349194 C 38.552519,7.3851634 38.793693,7.4066937 39.04462,7.4734377 C 39.021832,7.7917036 39.032377,8.1465015 39.054413,8.4698453 C 38.758332,8.3217634 38.452397,8.1558796 38.143305,8.0498623 C 38.179126,7.8052749 38.233482,7.5850684 38.298204,7.349194 z M 31.830817,12.648428 C 32.191001,12.780512 32.551066,12.93886 32.890625,13.133738 C 33.013969,13.866948 33.265812,14.611463 33.626813,15.309975 C 33.123264,14.723591 32.555269,14.225363 31.92968,13.828512 C 31.928282,13.818357 31.91213,13.81065 31.910777,13.800496 C 31.903545,13.795943 31.899115,13.777006 31.891872,13.772479 C 31.842984,13.391706 31.812318,13.022695 31.830817,12.648428 z M 33.389848,11.65137 C 33.750032,11.783457 34.110097,11.941801 34.449656,12.136681 C 34.573,12.869889 34.824844,13.614405 35.185842,14.312916 C 34.682294,13.726533 34.1143,13.228304 33.488713,12.831455 C 33.433379,12.430291 33.370363,12.045599 33.389848,11.65137 z M 34.948879,10.654312 C 35.309062,10.786399 35.669127,10.944744 36.008686,11.139624 C 36.132031,11.872832 36.383874,12.617347 36.744875,13.315857 C 36.241326,12.729476 35.673332,12.231245 35.047743,11.834397 C 34.99241,11.433234 34.929393,11.04854 34.948879,10.654312 z M 36.50791,9.6572526 C 36.868094,9.7893401 37.228158,9.9476862 37.567718,10.142566 C 37.691061,10.875774 37.942905,11.620289 38.303907,12.3188 C 37.800356,11.732418 37.232363,11.234188 36.606774,10.837338 C 36.551442,10.436174 36.488424,10.051482 36.50791,9.6572526 z M 38.066941,8.6601958 C 38.427124,8.7922821 38.787188,8.9506282 39.126748,9.1455081 C 39.250092,9.8787162 39.501937,10.623232 39.862936,11.321741 C 39.359387,10.735361 38.791393,10.237129 38.165805,9.8402806 C 38.110473,9.4391174 38.047455,9.0544246 38.066941,8.6601958 z M 39.625971,7.663137 C 39.986155,7.795224 40.34622,7.9535717 40.685779,8.1484501 C 40.809123,8.8816596 41.060967,9.6261735 41.421968,10.324685 C 40.918418,9.738303 40.350424,9.2400721 39.724835,8.8432218 C 39.669503,8.4420586 39.606485,8.0573665 39.625971,7.663137 z M 32.053278,14.631819 C 32.668575,15.094834 33.221601,15.639694 33.679871,16.318818 C 34.138141,16.997944 34.452501,17.738493 34.643292,18.470049 C 34.029385,18.00909 33.480424,17.418578 33.022154,16.739451 C 32.563885,16.060328 32.245459,15.365432 32.053278,14.631819 z M 33.612309,13.63476 C 34.227605,14.097775 34.780632,14.642636 35.238901,15.321761 C 35.697172,16.000888 36.011532,16.741434 36.202325,17.47299 C 35.588417,17.012033 35.039457,16.421521 34.581186,15.742394 C 34.122916,15.063269 33.80449,14.368374 33.612309,13.63476 z M 35.171341,12.637702 C 35.786635,13.100718 36.339662,13.645578 36.797932,14.324702 C 37.256202,15.003829 37.570561,15.744378 37.761355,16.475933 C 37.147449,16.014974 36.598488,15.424462 36.140215,14.745336 C 35.681946,14.066211 35.363521,13.371314 35.171341,12.637702 z M 36.730371,11.640645 C 37.345666,12.10366 37.898693,12.64852 38.356963,13.327645 C 38.815234,14.00677 39.129593,14.747319 39.320386,15.478875 C 38.706477,15.017918 38.157518,14.427405 37.699248,13.748279 C 37.240977,13.069154 36.922552,12.374257 36.730371,11.640645 z M 38.289402,10.643587 C 38.904697,11.106603 39.457724,11.651462 39.915994,12.330587 C 40.374265,13.009714 40.688623,13.750261 40.879417,14.481816 C 40.265509,14.020859 39.716548,13.430347 39.258278,12.751221 C 38.800008,12.072097 38.481582,11.377199 38.289402,10.643587 z M 39.848432,9.6465286 C 40.463727,10.109544 41.016755,10.654404 41.475025,11.33353 C 41.933295,12.012655 42.247654,12.753203 42.438448,13.484759 C 41.824539,13.023801 41.275578,12.433289 40.817309,11.754164 C 40.35904,11.075039 40.040614,10.380142 39.848432,9.6465286 z M 41.407464,8.6494722 C 42.022759,9.112486 42.575787,9.6573467 43.034056,10.336471 C 43.492326,11.015597 43.806685,11.756145 43.997478,12.487701 C 43.38357,12.026743 42.834609,11.43623 42.37634,10.757106 C 41.91807,10.07798 41.599644,9.3830831 41.407464,8.6494722 z M 34.628789,16.794836 C 35.139566,17.389469 35.733965,17.891036 36.369186,18.288734 C 36.417193,18.668203 36.425384,19.055586 36.40588,19.428364 C 36.037122,19.294284 35.698541,19.099888 35.351526,18.899458 C 35.227244,18.185049 34.981133,17.476833 34.628789,16.794836 z M 36.18782,15.797778 C 36.698596,16.392411 37.292996,16.893978 37.928216,17.291676 C 37.976224,17.671145 37.984415,18.058529 37.96491,18.431308 C 37.605732,18.300709 37.268142,18.123992 36.929461,17.930417 C 36.80677,17.204938 36.545586,16.490267 36.18782,15.797778 z M 37.746852,14.800721 C 38.257627,15.395351 38.852027,15.89692 39.487248,16.294619 C 39.535254,16.674087 39.543446,17.061472 39.523942,17.43425 C 39.164763,17.303652 38.827172,17.126932 38.488493,16.933358 C 38.3658,16.207881 38.104616,15.493209 37.746852,14.800721 z M 39.305882,13.803662 C 39.816659,14.398295 40.411058,14.899863 41.046278,15.297561 C 41.094286,15.67703 41.102477,16.064414 41.082972,16.437191 C 40.723793,16.306595 40.386204,16.129875 40.047524,15.9363 C 39.924831,15.210823 39.663647,14.496151 39.305882,13.803662 z M 40.864914,12.806605 C 41.375689,13.401236 41.970088,13.902804 42.605308,14.300502 C 42.653316,14.679972 42.661507,15.067355 42.642004,15.440134 C 42.282825,15.309536 41.945234,15.132816 41.606555,14.939242 C 41.483862,14.213765 41.222678,13.499092 40.864914,12.806605 z M 42.423944,11.809546 C 42.93472,12.404179 43.52912,12.905746 44.164339,13.303445 C 44.212347,13.682914 44.220537,14.070297 44.201034,14.443076 C 43.841856,14.312479 43.504264,14.135758 43.165586,13.942185 C 43.042893,13.216708 42.781709,12.502035 42.423944,11.809546 z M 36.996343,18.649674 C 37.291692,18.796672 37.604606,18.921219 37.912906,19.026063 C 37.8764,19.269637 37.842304,19.519866 37.776911,19.754746 C 37.519544,19.719742 37.265479,19.669154 37.011591,19.602487 C 37.035169,19.285394 37.017648,18.971933 36.996343,18.649674 z M 38.555376,17.652615 C 38.850723,17.799614 39.163638,17.92416 39.471936,18.029005 C 39.435433,18.272579 39.401335,18.522808 39.335943,18.757689 C 39.078574,18.722685 38.824509,18.672096 38.570622,18.60543 C 38.594199,18.288336 38.576679,17.974876 38.555376,17.652615 z M 40.114405,16.655558 C 40.409754,16.802557 40.722666,16.927101 41.030966,17.031946 C 40.994463,17.275521 40.960366,17.525749 40.894973,17.760629 C 40.637606,17.725626 40.383541,17.675038 40.129652,17.608371 C 40.153232,17.291278 40.135709,16.977818 40.114405,16.655558 z M 41.673436,15.6585 C 41.968784,15.805498 42.281698,15.930044 42.589998,16.03489 C 42.553494,16.278463 42.519396,16.528691 42.454004,16.763572 C 42.196636,16.728569 41.942571,16.67798 41.688683,16.611314 C 41.712263,16.294221 41.69474,15.980762 41.673436,15.6585 z M 43.232467,14.661442 C 43.527816,14.808442 43.840729,14.932987 44.149028,15.037832 C 44.112525,15.281405 44.078427,15.531633 44.013035,15.766514 C 43.755666,15.731511 43.501601,15.680921 43.247714,15.614256 C 43.271293,15.297161 43.253771,14.983703 43.232467,14.661442 z M 38.475351,19.187747 C 38.689013,19.240967 38.913476,19.297931 39.129782,19.330709 C 39.066226,19.490672 39.012181,19.66336 38.934531,19.816541 C 38.737159,19.827159 38.529737,19.81001 38.331362,19.801224 C 38.384021,19.601191 38.441769,19.393155 38.475351,19.187747 z M 40.034382,18.190689 C 40.248043,18.243911 40.472506,18.300874 40.688813,18.333651 C 40.625256,18.493614 40.571213,18.666303 40.493562,18.819484 C 40.296189,18.8301 40.088767,18.812953 39.890393,18.804166 C 39.943053,18.604132 40.000801,18.396097 40.034382,18.190689 z M 41.593414,17.193631 C 41.807073,17.246853 42.031537,17.303816 42.247844,17.336594 C 42.184287,17.496555 42.130243,17.669245 42.052594,17.822426 C 41.85522,17.833043 41.647797,17.815893 41.449424,17.807107 C 41.502083,17.607075 41.55983,17.399039 41.593414,17.193631 z M 43.152444,16.196573 C 43.366104,16.249795 43.590568,16.306758 43.806874,16.339536 C 43.743318,16.499499 43.689274,16.672188 43.611624,16.825369 C 43.414251,16.835984 43.206828,16.818836 43.008455,16.810051 C 43.061114,16.610017 43.118861,16.401981 43.152444,16.196573 z M 39.708594,19.361609 C 39.849859,19.371063 39.986532,19.413854 40.127792,19.414369 C 40.06559,19.506803 40.027756,19.593537 39.959813,19.682224 C 39.839744,19.710559 39.71344,19.736594 39.591875,19.757108 C 39.647266,19.632048 39.661463,19.490175 39.708594,19.361609 z M 41.267623,18.36455 C 41.408891,18.374006 41.545563,18.416796 41.686823,18.417312 C 41.62462,18.509745 41.586788,18.59648 41.518846,18.685167 C 41.398774,18.713502 41.272471,18.739536 41.150906,18.76005 C 41.206296,18.634992 41.220492,18.493116 41.267623,18.36455 z M 42.826654,17.367492 C 42.967922,17.376947 43.104593,17.419738 43.245854,17.420254 C 43.183652,17.512687 43.145818,17.599423 43.077876,17.688109 C 42.957805,17.716443 42.831502,17.742478 42.709937,17.762992 C 42.765327,17.637932 42.779524,17.496059 42.826654,17.367492 z "
       id="path4940" />
    <path
       sodipodi:type="arc"
       style="opacity:0.82748539;fill:url(#radialGradient4985);fill-opacity:1;stroke:black;stroke-width:1.20528173;stroke-linecap:round;stroke-linejoin:round;stroke-miterlimit:4;stroke-dasharray:none;stroke-dashoffset:0;stroke-opacity:1"
       id="path4898"
       sodipodi:cx="26"
       sodipodi:cy="12.5"
       sodipodi:rx="7"
       sodipodi:ry="6.5"
       d="M 33 12.5 A 7 6.5 0 1 1  19,12.5 A 7 6.5 0 1 1  33 12.5 z"
       transform="matrix(0.552254,0.876846,-0.897885,0.521995,34.94501,-15.85196)" />
    <path
       style="fill:url(#linearGradient7695);fill-opacity:1;stroke:url(#linearGradient7697);stroke-width:0.12499998;stroke-linecap:round;stroke-linejoin:round;stroke-miterlimit:4;stroke-dasharray:none;stroke-dashoffset:0;stroke-opacity:1"
       d="M 43.561114,9.7564351 C 41.414025,6.757568 37.374524,5.7354206 34.346635,7.4957154 C 31.195662,9.3275678 30.329267,13.486763 32.399281,16.773445 C 34.469295,20.060129 38.706182,21.252472 41.857157,19.42062 C 45.00813,17.588768 45.874525,13.429575 43.804511,10.142891 C 43.723651,10.014505 43.648395,9.8783419 43.561114,9.7564351 z M 41.976161,8.7168847 C 41.978279,8.7246993 41.991459,8.7366699 41.993547,8.7444891 C 42.012347,8.7605813 42.009665,8.7833906 42.028317,8.7996963 C 42.054846,8.9040574 42.049978,9.00936 42.071302,9.1141073 C 41.951755,9.0490215 41.821021,9.0119913 41.698849,8.9535258 C 41.702555,8.8111124 41.711147,8.6778402 41.706207,8.5344242 C 41.786207,8.5964642 41.898539,8.651212 41.976161,8.7168847 z M 43.088831,10.483537 C 43.090949,10.491352 43.104129,10.503323 43.106217,10.511141 C 43.125017,10.527234 43.122334,10.550043 43.140987,10.566348 C 43.167516,10.67071 43.162648,10.776012 43.183972,10.88076 C 43.064425,10.815674 42.933691,10.778643 42.811518,10.720178 C 42.815225,10.577765 42.823817,10.444493 42.818877,10.301078 C 42.898876,10.363116 43.011209,10.417864 43.088831,10.483537 z M 44.201501,12.25019 C 44.203618,12.258004 44.216799,12.269976 44.218887,12.277794 C 44.237687,12.293887 44.235004,12.316696 44.253657,12.333001 C 44.280186,12.437363 44.275318,12.542665 44.296641,12.647412 C 44.177096,12.582328 44.046361,12.545296 43.924188,12.486831 C 43.927895,12.344417 43.936486,12.211145 43.931547,12.06773 C 44.011547,12.129769 44.123879,12.184517 44.201501,12.25019 z M 41.096757,8.0590889 C 41.115275,8.2584503 41.090998,8.4674596 41.091212,8.6656916 C 40.872549,8.5828184 40.667961,8.5005893 40.444219,8.4384489 C 40.490733,8.2191933 40.509837,8.0069182 40.534877,7.7823652 C 40.71791,7.8736622 40.921107,7.9516696 41.096757,8.0590889 z M 42.209427,9.8257417 C 42.227945,10.025103 42.203668,10.234112 42.203882,10.432344 C 41.985219,10.349471 41.780631,10.267242 41.556889,10.205102 C 41.603402,9.9858454 41.622506,9.7735703 41.647547,9.549018 C 41.830579,9.6403143 42.033776,9.7183217 42.209427,9.8257417 z M 43.322097,11.592395 C 43.340615,11.791755 43.316338,12.000765 43.316552,12.198997 C 43.097889,12.116123 42.893301,12.033894 42.669559,11.971755 C 42.716072,11.752498 42.735176,11.540223 42.760217,11.31567 C 42.94325,11.406967 43.146446,11.484975 43.322097,11.592395 z M 44.434767,13.359047 C 44.453285,13.558408 44.429007,13.767417 44.429222,13.965649 C 44.210559,13.882776 44.005971,13.800547 43.782229,13.738407 C 43.828742,13.51915 43.847846,13.306875 43.872887,13.082323 C 44.055919,13.173619 44.259116,13.251627 44.434767,13.359047 z M 39.944626,7.5221347 C 39.918817,7.7859102 39.907471,8.0376007 39.849382,8.2940185 C 39.516123,8.2308744 39.14627,8.1983919 38.809777,8.1818913 C 38.950685,7.8878511 39.10972,7.5856038 39.20612,7.2726726 C 39.463073,7.3405083 39.695434,7.4248935 39.944626,7.5221347 z M 41.057297,9.2887883 C 41.031486,9.5525623 41.02014,9.8042528 40.962052,10.060671 C 40.628792,9.9975265 40.258939,9.965044 39.922448,9.9485449 C 40.063355,9.6545032 40.22239,9.3522567 40.31879,9.0393255 C 40.575743,9.1071604 40.808104,9.1915456 41.057297,9.2887883 z M 42.169966,11.05544 C 42.144156,11.319215 42.13281,11.570906 42.074722,11.827323 C 41.741462,11.764179 41.371609,11.731697 41.035118,11.715197 C 41.176025,11.421156 41.33506,11.11891 41.431459,10.805978 C 41.688413,10.873813 41.920774,10.958198 42.169966,11.05544 z M 43.282636,12.822093 C 43.256826,13.085867 43.24548,13.337559 43.187392,13.593976 C 42.854132,13.530832 42.484279,13.498349 42.147788,13.48185 C 42.288695,13.187808 42.44773,12.885562 42.544129,12.57263 C 42.801083,12.640465 43.033443,12.724851 43.282636,12.822093 z M 44.395306,14.588745 C 44.369496,14.85252 44.35815,15.104211 44.300061,15.360628 C 43.966802,15.297484 43.596949,15.265002 43.260457,15.248502 C 43.401365,14.954461 43.5604,14.652215 43.656799,14.339282 C 43.913753,14.407118 44.146113,14.491503 44.395306,14.588745 z M 38.565526,7.1171318 C 38.444273,7.4807413 38.295604,7.8409968 38.107855,8.1751384 C 37.34822,8.2151055 36.582712,8.3891965 35.87026,8.684054 C 36.459093,8.2250862 36.952941,7.6873243 37.338309,7.0763644 C 37.348845,7.0761355 37.356143,7.0600487 37.36668,7.0598705 C 37.371099,7.0528044 37.390661,7.0504595 37.395051,7.0433766 C 37.790251,7.038617 38.17401,7.0516283 38.565526,7.1171318 z M 39.678196,8.8837846 C 39.556943,9.2473941 39.408274,9.6076497 39.220526,9.9417913 C 38.46089,9.9817584 37.695382,10.155849 36.98293,10.450707 C 37.571764,9.9917398 38.06561,9.4539764 38.450979,8.8430173 C 38.867163,8.8339658 39.265799,8.8147868 39.678196,8.8837846 z M 40.790866,10.650437 C 40.669613,11.014046 40.520944,11.374302 40.333196,11.708444 C 39.57356,11.74841 38.808052,11.922501 38.0956,12.21736 C 38.684434,11.758393 39.178281,11.22063 39.563648,10.609669 C 39.979833,10.600619 40.378469,10.58144 40.790866,10.650437 z M 41.903536,12.41709 C 41.782283,12.780699 41.633614,13.140955 41.445865,13.475096 C 40.68623,13.515063 39.920722,13.689154 39.20827,13.984013 C 39.797104,13.525045 40.29095,12.987282 40.676319,12.376322 C 41.092503,12.367272 41.491138,12.348092 41.903536,12.41709 z M 43.016206,14.183743 C 42.894952,14.547351 42.746283,14.907607 42.558535,15.241749 C 41.798899,15.281715 41.033391,15.455806 40.32094,15.750665 C 40.909774,15.291698 41.40362,14.753935 41.788989,14.142975 C 42.205173,14.133924 42.603809,14.114745 43.016206,14.183743 z M 44.128876,15.950395 C 44.007622,16.314004 43.858954,16.67426 43.671205,17.008401 C 42.911569,17.048368 42.146061,17.222459 41.433609,17.517318 C 42.022443,17.05835 42.51629,16.520588 42.901659,15.909628 C 43.317842,15.900576 43.716478,15.881397 44.128876,15.950395 z M 36.505517,7.1079837 C 36.05061,7.699958 35.507399,8.2162061 34.81967,8.6160248 C 34.131941,9.0158438 33.373457,9.2563499 32.618659,9.3676505 C 33.071483,8.7768873 33.662533,8.2705376 34.350263,7.8707186 C 35.037992,7.4708999 35.748636,7.2204954 36.505517,7.1079837 z M 37.618186,8.8746357 C 37.163279,9.4666101 36.620069,9.982859 35.93234,10.382678 C 35.244611,10.782497 34.486127,11.023002 33.731329,11.134303 C 34.184153,10.54354 34.775203,10.03719 35.462932,9.6373707 C 36.150661,9.237552 36.861306,8.9871483 37.618186,8.8746357 z M 38.730857,10.641289 C 38.275949,11.233263 37.732739,11.749511 37.04501,12.14933 C 36.35728,12.549149 35.598797,12.789655 34.843999,12.900956 C 35.296822,12.310192 35.887873,11.803843 36.575602,11.404024 C 37.263331,11.004205 37.973975,10.7538 38.730857,10.641289 z M 39.843526,12.407941 C 39.388619,12.999915 38.845409,13.516164 38.15768,13.915983 C 37.46995,14.315802 36.711466,14.556307 35.956669,14.667608 C 36.409492,14.076845 37.000543,13.570495 37.688272,13.170676 C 38.376001,12.770857 39.086645,12.520453 39.843526,12.407941 z M 40.956196,14.174594 C 40.501289,14.766568 39.958079,15.282817 39.27035,15.682635 C 38.58262,16.082454 37.824136,16.32296 37.069339,16.434261 C 37.522162,15.843498 38.113213,15.337148 38.800942,14.937329 C 39.488671,14.53751 40.199315,14.287106 40.956196,14.174594 z M 42.068866,15.941246 C 41.613959,16.53322 41.070748,17.049469 40.383019,17.449288 C 39.69529,17.849107 38.936806,18.089612 38.182008,18.200913 C 38.634832,17.61015 39.225883,17.1038 39.913612,16.703981 C 40.601341,16.304163 41.311985,16.053758 42.068866,15.941246 z M 43.181536,17.707899 C 42.726629,18.299874 42.183419,18.816122 41.49569,19.215941 C 40.807961,19.61576 40.049476,19.856266 39.294679,19.967566 C 39.747502,19.376803 40.338553,18.870453 41.026282,18.470634 C 41.714011,18.070816 42.424655,17.820411 43.181536,17.707899 z M 34.366585,9.5582317 C 33.769473,10.023807 33.273361,10.589006 32.887551,11.210019 C 32.493674,11.214012 32.0897,11.175041 31.699691,11.108659 C 31.82263,10.736253 32.009919,10.403085 32.203118,10.061763 C 32.943086,10.018497 33.670972,9.8459907 34.366585,9.5582317 z M 35.479255,11.324885 C 34.882143,11.79046 34.386031,12.355659 34.000222,12.976672 C 33.606344,12.980665 33.20237,12.941694 32.812361,12.875312 C 32.932106,12.51258 33.10099,12.178284 33.287417,11.84491 C 34.039014,11.804679 34.77294,11.617071 35.479255,11.324885 z M 36.591925,13.091537 C 35.994813,13.557112 35.498701,14.122311 35.112892,14.743325 C 34.719014,14.747317 34.315039,14.708346 33.925031,14.641965 C 34.044776,14.279233 34.21366,13.944937 34.400087,13.611562 C 35.151684,13.571332 35.88561,13.383725 36.591925,13.091537 z M 37.704595,14.85819 C 37.107483,15.323765 36.611371,15.888964 36.225561,16.509977 C 35.831684,16.51397 35.427709,16.474999 35.037701,16.408618 C 35.157446,16.045885 35.32633,15.711589 35.512757,15.378215 C 36.264353,15.337984 36.99828,15.150377 37.704595,14.85819 z M 38.817265,16.624843 C 38.220153,17.090418 37.72404,17.655616 37.338231,18.276629 C 36.944353,18.280622 36.540379,18.241651 36.150372,18.175271 C 36.270116,17.812539 36.439,17.478242 36.625427,17.144868 C 37.377023,17.104637 38.11095,16.91703 38.817265,16.624843 z M 39.929935,18.391495 C 39.332822,18.85707 38.836711,19.42227 38.450901,20.043282 C 38.057023,20.047275 37.653049,20.008304 37.263041,19.941923 C 37.382786,19.579191 37.55167,19.244895 37.738097,18.911521 C 38.489693,18.871289 39.223619,18.683682 39.929935,18.391495 z M 32.539738,11.827047 C 32.399928,12.120451 32.284364,12.435136 32.189153,12.747376 C 31.933225,12.678945 31.670463,12.612235 31.422275,12.514408 C 31.446936,12.247295 31.488018,11.985581 31.545891,11.72603 C 31.877961,11.789865 32.204344,11.80991 32.539738,11.827047 z M 33.652408,13.593701 C 33.512598,13.887103 33.397034,14.201788 33.301823,14.514029 C 33.045895,14.445598 32.783132,14.378887 32.534945,14.28106 C 32.559606,14.013947 32.600688,13.752234 32.658561,13.492683 C 32.990631,13.556518 33.317014,13.576562 33.652408,13.593701 z M 34.765078,15.360353 C 34.625268,15.653756 34.509704,15.968441 34.414492,16.280681 C 34.158565,16.212251 33.895802,16.14554 33.647615,16.047713 C 33.672276,15.7806 33.713358,15.518886 33.77123,15.259335 C 34.103302,15.323171 34.429684,15.343215 34.765078,15.360353 z M 35.877748,17.127006 C 35.737938,17.420408 35.622374,17.735093 35.527162,18.047334 C 35.271234,17.978903 35.008472,17.912192 34.760285,17.814365 C 34.784945,17.547252 34.826028,17.285539 34.8839,17.025988 C 35.215971,17.089824 35.542353,17.109867 35.877748,17.127006 z M 36.990417,18.893658 C 36.850608,19.18706 36.735044,19.501745 36.639832,19.813986 C 36.383904,19.745556 36.121142,19.678845 35.872955,19.581017 C 35.897615,19.313905 35.938698,19.052191 35.99657,18.79264 C 36.328641,18.856476 36.655023,18.87652 36.990417,18.893658 z M 32.046338,13.320648 C 32.000644,13.539428 31.951543,13.769142 31.927309,13.993226 C 31.757408,13.906542 31.57466,13.828325 31.411186,13.727613 C 31.390997,13.518162 31.399326,13.301527 31.399345,13.093406 C 31.610569,13.173522 31.830383,13.259989 32.046338,13.320648 z M 33.159008,15.087301 C 33.113314,15.306081 33.064213,15.535795 33.039978,15.759879 C 32.870078,15.673195 32.68733,15.594978 32.523855,15.494265 C 32.503667,15.284815 32.511996,15.06818 32.512015,14.860059 C 32.723239,14.940175 32.943053,15.026642 33.159008,15.087301 z M 34.271678,16.853954 C 34.225984,17.072733 34.176882,17.302447 34.152648,17.526531 C 33.982747,17.439847 33.8,17.36163 33.636525,17.260918 C 33.616337,17.051468 33.624666,16.834832 33.624684,16.626711 C 33.835909,16.706828 34.055723,16.793294 34.271678,16.853954 z M 35.384348,18.620607 C 35.338654,18.839386 35.289552,19.0691 35.265318,19.293183 C 35.095417,19.2065 34.91267,19.128283 34.749195,19.02757 C 34.729007,18.818121 34.737336,18.601485 34.737354,18.393364 C 34.948579,18.47348 35.168393,18.559947 35.384348,18.620607 z M 31.921764,14.59983 C 31.918412,14.747645 31.880054,14.886516 31.886035,15.035423 C 31.786682,14.958466 31.694401,14.907909 31.598695,14.82536 C 31.563579,14.695253 31.530576,14.558857 31.503554,14.428136 C 31.636647,14.501919 31.785392,14.534326 31.921764,14.59983 z M 33.034433,16.366482 C 33.031082,16.514297 32.992724,16.653169 32.998705,16.802076 C 32.899352,16.725119 32.807071,16.674562 32.711364,16.592012 C 32.676249,16.461906 32.643245,16.32551 32.616224,16.194789 C 32.749317,16.268572 32.898062,16.300979 33.034433,16.366482 z M 34.147103,18.133134 C 34.143752,18.28095 34.105394,18.419821 34.111374,18.568728 C 34.012022,18.491772 33.919741,18.441214 33.824034,18.358665 C 33.788918,18.228558 33.755915,18.092162 33.728894,17.961441 C 33.861987,18.035224 34.010731,18.067631 34.147103,18.133134 z "
       id="path1893" />
    <path
       transform="matrix(0.966819,3.54224e-7,-6.55023e-7,0.966819,2.462281,0.196784)"
       d="M 44.514794 13.242602 A 7.7573977 7.7573977 0 1 1  28.999999,13.242602 A 7.7573977 7.7573977 0 1 1  44.514794 13.242602 z"
       sodipodi:ry="7.7573977"
       sodipodi:rx="7.7573977"
       sodipodi:cy="13.242602"
       sodipodi:cx="36.757397"
       id="path7622"
       style="fill:url(#radialGradient7634);fill-opacity:1;fill-rule:nonzero;stroke:#2e3436;stroke-width:1.03432;stroke-linecap:round;stroke-linejoin:round;stroke-miterlimit:4;stroke-dasharray:none;stroke-dashoffset:0;stroke-opacity:1"
       sodipodi:type="arc" />
    <path
       style="fill:url(#linearGradient7688);fill-opacity:1;fill-rule:evenodd;stroke:none;stroke-width:0.2346321;stroke-linecap:butt;stroke-linejoin:miter;stroke-miterlimit:4;stroke-dasharray:none;stroke-opacity:1"
       d="M 34.57825,6.9865883 C 34.57825,6.9865883 33.621226,7.4738881 33.270857,7.7755073 C 32.715091,8.2539432 39.915009,20.112656 40.693861,19.614017 C 41.07052,19.37287 41.926347,18.822287 41.926347,18.822287 C 39.880478,16.870382 35.462771,9.7059859 34.57825,6.9865883 z "
       id="path2768"
       sodipodi:nodetypes="csscc" />
    <path
       transform="matrix(0.83791,5.93044e-7,-7.36461e-7,0.83791,7.200641,1.90387)"
       d="M 44.514794 13.242602 A 7.7573977 7.7573977 0 1 1  28.999999,13.242602 A 7.7573977 7.7573977 0 1 1  44.514794 13.242602 z"
       sodipodi:ry="7.7573977"
       sodipodi:rx="7.7573977"
       sodipodi:cy="13.242602"
       sodipodi:cx="36.757397"
       id="path7626"
       style="opacity:0.3;fill:none;fill-opacity:1;fill-rule:nonzero;stroke:white;stroke-width:1.19344592;stroke-linecap:round;stroke-linejoin:round;stroke-miterlimit:4;stroke-dasharray:none;stroke-dashoffset:0;stroke-opacity:1"
       sodipodi:type="arc" />
    <rect
       style="opacity:1;fill:url(#linearGradient7650);fill-opacity:1;fill-rule:nonzero;stroke:url(#linearGradient7658);stroke-width:0.99999934;stroke-linecap:round;stroke-linejoin:round;stroke-miterlimit:4;stroke-dasharray:none;stroke-dashoffset:0;stroke-opacity:1"
       id="rect7618"
       width="3.9999986"
       height="19.499941"
       x="23.412125"
       y="26.000048" />
    <path
       style="fill:none;fill-opacity:0.75;fill-rule:evenodd;stroke:url(#linearGradient7678);stroke-width:1px;stroke-linecap:butt;stroke-linejoin:miter;stroke-opacity:1;opacity:0.54395604"
       d="M 24.5,27.25 L 24.5,42.5"
       id="path7668"
       sodipodi:nodetypes="cc" />
    <path
       style="fill:none;fill-opacity:0.75;fill-rule:evenodd;stroke:url(#linearGradient7680);stroke-width:1px;stroke-linecap:butt;stroke-linejoin:miter;stroke-opacity:1;opacity:0.54395604"
       d="M 26.5,27 L 26.5,41"
       id="path7670"
       sodipodi:nodetypes="cc" />
    <rect
       style="opacity:1;fill:url(#linearGradient7789);fill-opacity:1;fill-rule:nonzero;stroke:#2e3436;stroke-width:0.99999875;stroke-linecap:round;stroke-linejoin:round;stroke-miterlimit:4;stroke-dasharray:none;stroke-dashoffset:0;stroke-opacity:1"
       id="rect7785"
       width="11.999989"
       height="6.9999843"
       x="2.936554"
       y="29.1817"
       transform="matrix(0.866025,-0.5,0.5,0.866025,0,0)" />
    <rect
       style="opacity:0.4;fill:none;fill-opacity:1;fill-rule:nonzero;stroke:white;stroke-width:0.99999976;stroke-linecap:butt;stroke-linejoin:miter;stroke-miterlimit:4;stroke-dasharray:none;stroke-dashoffset:0;stroke-opacity:1"
       id="rect7787"
       width="10.06249"
       height="5.0000253"
       x="3.936538"
       y="30.181705"
       transform="matrix(0.866025,-0.5,0.5,0.866025,0,0)" />
    <path
       style="fill:none;fill-opacity:0.75;fill-rule:evenodd;stroke:url(#linearGradient7799);stroke-width:0.99999976px;stroke-linecap:butt;stroke-linejoin:miter;stroke-opacity:1"
       d="M 7.75028,31 C 7.75028,31 2.398159,34.28033 3.565412,36.40901 C 4.732665,38.537689 10.205822,37.616971 12.419292,39.514719 C 14.632762,41.412467 13.524146,46 13.524146,46"
       id="path7791"
       sodipodi:nodetypes="czzc" />
  </g>
</svg>
